<svg width="28" height="28" viewBox="0 0 28 28" fill="none" xmlns="http://www.w3.org/2000/svg">
<path fill-rule="evenodd" clip-rule="evenodd" d="M8.80011 11.98L9.95365 11.0572C10.0463 10.983 10.1105 10.8792 10.1354 10.7631L11.4503 4.62891C11.8792 2.62816 14.0019 1.49126 15.905 2.24298C17.1693 2.74237 18 3.96367 18 5.32302V9.00069H18.5C20.6828 9.00069 22.5864 9.61704 23.9471 10.94C25.3126 12.2675 26 14.1788 26 16.5007V17.5007C26 19.8226 25.3126 21.7339 23.9471 23.0615C22.5864 24.3844 20.6828 25.0007 18.5 25.0007H8.81796C8.52197 25.3475 8.14408 25.6218 7.71264 25.7952C7.40773 25.9177 7.1017 25.9619 6.8011 25.9818C6.51654 26.0007 6.17379 26.0007 5.78071 26.0007H5.71939C5.32631 26.0007 4.98346 26.0007 4.6989 25.9818C4.3983 25.9619 4.09228 25.9177 3.78736 25.7952C3.06653 25.5055 2.49517 24.9342 2.20552 24.2133C2.08299 23.9084 2.03884 23.6024 2.01888 23.3018C1.99998 23.0172 1.99999 22.6745 2 22.2814V14.7201C1.99999 14.327 1.99998 13.9842 2.01888 13.6996C2.03884 13.399 2.08299 13.093 2.20552 12.7881C2.49517 12.0672 3.06653 11.4959 3.78736 11.2062C4.09228 11.0837 4.3983 11.0395 4.6989 11.0196C4.98349 11.0007 5.32627 11.0007 5.7194 11.0007H5.7806C6.17373 11.0007 6.51652 11.0007 6.8011 11.0196C7.1017 11.0395 7.40773 11.0837 7.71264 11.2062C8.13546 11.3761 8.50684 11.6429 8.80011 11.98ZM13.4059 5.04811C13.5758 4.25568 14.4165 3.8054 15.1702 4.10313C15.671 4.30092 16 4.78463 16 5.32302V10.0007C16 10.553 16.4477 11.0007 17 11.0007H18.5C20.3172 11.0007 21.6636 11.5094 22.5529 12.3739C23.4374 13.2339 24 14.5726 24 16.5007V17.5007C24 19.4288 23.4374 20.7675 22.5529 21.6275C21.6636 22.492 20.3172 23.0007 18.5 23.0007H9.49436C9.50002 22.785 9.50001 22.5444 9.5 22.2813V14.7201C9.50001 14.451 9.50002 14.2055 9.49396 13.9862L11.203 12.6189C11.6558 12.2567 11.9695 11.7492 12.091 11.1823L13.4059 5.04811ZM4.53307 13.062C4.56015 13.0511 4.62975 13.0286 4.83142 13.0152C5.04173 13.0012 5.31743 13.0007 5.75 13.0007C6.18257 13.0007 6.45827 13.0012 6.66859 13.0152C6.87025 13.0286 6.93985 13.0511 6.96693 13.062C7.18192 13.1484 7.35232 13.3188 7.43871 13.5338C7.44959 13.5608 7.47213 13.6305 7.48552 13.8321C7.49949 14.0424 7.5 14.3181 7.5 14.7507V22.2507C7.5 22.6833 7.49949 22.959 7.48552 23.1693C7.47213 23.371 7.44959 23.4406 7.43871 23.4676C7.35232 23.6826 7.18192 23.853 6.96693 23.9394C6.93985 23.9503 6.87025 23.9728 6.66859 23.9862C6.45827 24.0002 6.18257 24.0007 5.75 24.0007C5.31743 24.0007 5.04173 24.0002 4.83142 23.9862C4.62975 23.9728 4.56015 23.9503 4.53307 23.9394C4.31809 23.853 4.14769 23.6826 4.0613 23.4676C4.05042 23.4406 4.02787 23.371 4.01448 23.1693C4.00052 22.959 4 22.6833 4 22.2507V14.7507C4 14.3181 4.00052 14.0424 4.01448 13.8321C4.02787 13.6305 4.05042 13.5608 4.0613 13.5338C4.14769 13.3188 4.31809 13.1484 4.53307 13.062Z" fill="#8A32E0"/>
</svg>
