<svg width="29" height="28" viewBox="0 0 29 28" fill="none" xmlns="http://www.w3.org/2000/svg">
<path fillRule="evenodd" clipRule="evenodd" d="M12.3137 3.93116C13.6175 2.98388 15.383 2.98388 16.6869 3.93116C17.0687 4.20861 17.3679 4.59304 17.6498 5.01832C17.9306 5.4421 18.2512 5.9974 18.6474 6.68363L25.0756 17.8177C25.4718 18.504 25.7925 19.0593 26.0191 19.5144C26.2465 19.9711 26.4298 20.4224 26.4791 20.8919C26.6476 22.4946 25.7648 24.0236 24.2926 24.6791C23.8613 24.8711 23.3788 24.938 22.8696 24.9694C22.3622 25.0007 21.721 25.0007 20.9286 25.0007H8.072C7.27962 25.0007 6.6384 25.0007 6.13099 24.9694C5.62177 24.938 5.13924 24.8711 4.70803 24.6791C3.23576 24.0236 2.35301 22.4946 2.52147 20.8919C2.57081 20.4224 2.75412 19.9711 2.98153 19.5144C3.20812 19.0593 3.52872 18.504 3.92492 17.8178L10.3532 6.68362C10.7494 5.9974 11.07 5.44209 11.3508 5.01832C11.6326 4.59304 11.9319 4.20861 12.3137 3.93116ZM15.5113 5.54919C14.9084 5.11121 14.0921 5.11121 13.4893 5.54919C13.4034 5.61158 13.2636 5.75251 13.018 6.12308C12.7754 6.48919 12.4854 6.99053 12.0685 7.7127L5.67376 18.7887C5.25682 19.5109 4.96763 20.0127 4.77187 20.4058C4.57372 20.8038 4.52161 20.9954 4.51051 21.1009C4.43262 21.842 4.84077 22.5489 5.5215 22.852C5.61846 22.8952 5.81045 22.9458 6.25415 22.9732C6.69251 23.0003 7.27167 23.0007 8.10556 23.0007H20.895C21.7289 23.0007 22.3081 23.0003 22.7464 22.9732C23.1901 22.9458 23.3821 22.8952 23.4791 22.852C24.1598 22.5489 24.568 21.842 24.4901 21.1009C24.479 20.9954 24.4269 20.8038 24.2287 20.4058C24.033 20.0127 23.7438 19.5109 23.3268 18.7887L16.9321 7.7127C16.5151 6.99053 16.2252 6.4892 15.9826 6.12308C15.737 5.75251 15.5971 5.61158 15.5113 5.54919Z" fill="#E64646"/>
<path fillRule="evenodd" clipRule="evenodd" d="M14.5003 9.50073C13.948 9.50073 13.5003 9.94846 13.5003 10.5008L13.5003 15.5007C13.5003 16.053 13.948 16.5007 14.5003 16.5007C15.0526 16.5007 15.5003 16.053 15.5003 15.5007V10.5007C15.5003 9.94845 15.0526 9.50073 14.5003 9.50073ZM14.5003 18.3007C13.8376 18.3007 13.3003 18.838 13.3003 19.5007C13.3003 20.1635 13.8376 20.7007 14.5003 20.7007C15.1631 20.7007 15.7003 20.1635 15.7003 19.5007C15.7003 18.838 15.1631 18.3007 14.5003 18.3007Z" fill="#E64646"/>
</svg>
