<svg width="104" height="16" viewBox="0 0 104 16" fill="none" xmlns="http://www.w3.org/2000/svg">
  <path d="M1.71401 4.57087C1.71401 3.6241 2.48152 2.85658 3.42829 2.85658H12.5711C13.5179 2.85658 14.2854 3.6241 14.2854 4.57087V11.428C14.2854 12.3748 13.5179 13.1423 12.5711 13.1423H3.42829C2.48152 13.1423 1.71401 12.3748 1.71401 11.428V4.57087Z" stroke="#2C2D2E" stroke-width="1.14286"/>
  <path d="M22.2031 3.46875V12H21.0723V3.46875H22.2031ZM24.1602 7.37695V8.26758H22.1328V7.37695H24.1602ZM30.2832 7.46484V8.00391C30.2832 8.64453 30.2031 9.21875 30.043 9.72656C29.8828 10.2344 29.6523 10.666 29.3516 11.0215C29.0508 11.377 28.6895 11.6484 28.2676 11.8359C27.8496 12.0234 27.3809 12.1172 26.8613 12.1172C26.3574 12.1172 25.8945 12.0234 25.4727 11.8359C25.0547 11.6484 24.6914 11.377 24.3828 11.0215C24.0781 10.666 23.8418 10.2344 23.6738 9.72656C23.5059 9.21875 23.4219 8.64453 23.4219 8.00391V7.46484C23.4219 6.82422 23.5039 6.25195 23.668 5.74805C23.8359 5.24023 24.0723 4.80859 24.377 4.45312C24.6816 4.09375 25.043 3.82031 25.4609 3.63281C25.8828 3.44531 26.3457 3.35156 26.8496 3.35156C27.3691 3.35156 27.8379 3.44531 28.2559 3.63281C28.6777 3.82031 29.0391 4.09375 29.3398 4.45312C29.6445 4.80859 29.877 5.24023 30.0371 5.74805C30.2012 6.25195 30.2832 6.82422 30.2832 7.46484ZM29.1641 8.00391V7.45312C29.1641 6.94531 29.1113 6.49609 29.0059 6.10547C28.9043 5.71484 28.7539 5.38672 28.5547 5.12109C28.3555 4.85547 28.1113 4.6543 27.8223 4.51758C27.5371 4.38086 27.2129 4.3125 26.8496 4.3125C26.498 4.3125 26.1797 4.38086 25.8945 4.51758C25.6133 4.6543 25.3711 4.85547 25.168 5.12109C24.9688 5.38672 24.8145 5.71484 24.7051 6.10547C24.5957 6.49609 24.541 6.94531 24.541 7.45312V8.00391C24.541 8.51562 24.5957 8.96875 24.7051 9.36328C24.8145 9.75391 24.9707 10.084 25.1738 10.3535C25.3809 10.6191 25.625 10.8203 25.9062 10.957C26.1914 11.0938 26.5098 11.1621 26.8613 11.1621C27.2285 11.1621 27.5547 11.0938 27.8398 10.957C28.125 10.8203 28.3652 10.6191 28.5605 10.3535C28.7598 10.084 28.9102 9.75391 29.0117 9.36328C29.1133 8.96875 29.1641 8.51562 29.1641 8.00391ZM35.668 5.66016V6.55664H32.6035V5.66016H35.668ZM36.623 5.66016V12H35.5391V5.66016H36.623ZM32.3398 5.66016H33.4297L33.2656 8.71875C33.2383 9.19141 33.1934 9.60938 33.1309 9.97266C33.0723 10.332 32.9902 10.6406 32.8848 10.8984C32.7832 11.1562 32.6543 11.3672 32.498 11.5312C32.3457 11.6914 32.1621 11.8105 31.9473 11.8887C31.7324 11.9629 31.4844 12 31.2031 12H30.8633V11.0449L31.0977 11.0273C31.2656 11.0156 31.4082 10.9766 31.5254 10.9102C31.6465 10.8438 31.748 10.7461 31.8301 10.6172C31.9121 10.4844 31.9785 10.3145 32.0293 10.1074C32.084 9.90039 32.125 9.6543 32.1523 9.36914C32.1836 9.08398 32.207 8.75195 32.2227 8.37305L32.3398 5.66016ZM39.541 10.2832L42.4648 5.66016H43.5547V12H42.4648V7.37695L39.541 12H38.4629V5.66016H39.541V10.2832ZM46.5781 8.97656H47.75L45.916 12H44.7441L46.5781 8.97656ZM47.4863 5.66016H50.1348V12H49.0508V6.53906H47.4863C47.1777 6.53906 46.9258 6.5918 46.7305 6.69727C46.5352 6.79883 46.3926 6.93164 46.3027 7.0957C46.2129 7.25977 46.168 7.42969 46.168 7.60547C46.168 7.77734 46.209 7.94336 46.291 8.10352C46.373 8.25977 46.502 8.38867 46.6777 8.49023C46.8535 8.5918 47.0801 8.64258 47.3574 8.64258H49.3438V9.5332H47.3574C46.9941 9.5332 46.6719 9.48438 46.3906 9.38672C46.1094 9.28906 45.8711 9.1543 45.6758 8.98242C45.4805 8.80664 45.332 8.60156 45.2305 8.36719C45.1289 8.12891 45.0781 7.87109 45.0781 7.59375C45.0781 7.31641 45.1309 7.06055 45.2363 6.82617C45.3457 6.5918 45.502 6.38672 45.7051 6.21094C45.9121 6.03516 46.1641 5.90039 46.4609 5.80664C46.7617 5.70898 47.1035 5.66016 47.4863 5.66016ZM56.1992 10.043L60.4004 3.46875H61.5312V12H60.4004V5.41992L56.1992 12H55.0742V3.46875H56.1992V10.043ZM66.4004 9.21094H64.3203L64.3086 8.34375H66.0078C66.3438 8.34375 66.623 8.31055 66.8457 8.24414C67.0723 8.17773 67.2422 8.07812 67.3555 7.94531C67.4688 7.8125 67.5254 7.64844 67.5254 7.45312C67.5254 7.30078 67.4922 7.16797 67.4258 7.05469C67.3633 6.9375 67.2676 6.8418 67.1387 6.76758C67.0098 6.68945 66.8496 6.63281 66.6582 6.59766C66.4707 6.55859 66.25 6.53906 65.9961 6.53906H64.6074V12H63.5234V5.66016H65.9961C66.3984 5.66016 66.7598 5.69531 67.0801 5.76562C67.4043 5.83594 67.6797 5.94336 67.9062 6.08789C68.1367 6.22852 68.3125 6.4082 68.4336 6.62695C68.5547 6.8457 68.6152 7.10352 68.6152 7.40039C68.6152 7.5918 68.5762 7.77344 68.498 7.94531C68.4199 8.11719 68.3047 8.26953 68.1523 8.40234C68 8.53516 67.8125 8.64453 67.5898 8.73047C67.3672 8.8125 67.1113 8.86523 66.8223 8.88867L66.4004 9.21094ZM66.4004 12H63.9277L64.4668 11.1211H66.4004C66.7012 11.1211 66.9512 11.084 67.1504 11.0098C67.3496 10.9316 67.498 10.8223 67.5957 10.6816C67.6973 10.5371 67.748 10.3652 67.748 10.166C67.748 9.9668 67.6973 9.79688 67.5957 9.65625C67.498 9.51172 67.3496 9.40234 67.1504 9.32812C66.9512 9.25 66.7012 9.21094 66.4004 9.21094H64.7539L64.7656 8.34375H66.8223L67.2148 8.67188C67.5625 8.69922 67.8574 8.78516 68.0996 8.92969C68.3418 9.07422 68.5254 9.25781 68.6504 9.48047C68.7754 9.69922 68.8379 9.9375 68.8379 10.1953C68.8379 10.4922 68.7812 10.7539 68.668 10.9805C68.5586 11.207 68.3984 11.3965 68.1875 11.5488C67.9766 11.6973 67.7207 11.8105 67.4199 11.8887C67.1191 11.9629 66.7793 12 66.4004 12ZM74.0293 10.916V7.65234C74.0293 7.40234 73.9785 7.18555 73.877 7.00195C73.7793 6.81445 73.6309 6.66992 73.4316 6.56836C73.2324 6.4668 72.9863 6.41602 72.6934 6.41602C72.4199 6.41602 72.1797 6.46289 71.9727 6.55664C71.7695 6.65039 71.6094 6.77344 71.4922 6.92578C71.3789 7.07812 71.3223 7.24219 71.3223 7.41797H70.2383C70.2383 7.19141 70.2969 6.9668 70.4141 6.74414C70.5312 6.52148 70.6992 6.32031 70.918 6.14062C71.1406 5.95703 71.4062 5.8125 71.7148 5.70703C72.0273 5.59766 72.375 5.54297 72.7578 5.54297C73.2188 5.54297 73.625 5.62109 73.9766 5.77734C74.332 5.93359 74.6094 6.16992 74.8086 6.48633C75.0117 6.79883 75.1133 7.19141 75.1133 7.66406V10.6172C75.1133 10.8281 75.1309 11.0527 75.166 11.291C75.2051 11.5293 75.2617 11.7344 75.3359 11.9062V12H74.2051C74.1504 11.875 74.1074 11.709 74.0762 11.502C74.0449 11.291 74.0293 11.0957 74.0293 10.916ZM74.2168 8.15625L74.2285 8.91797H73.1328C72.8242 8.91797 72.5488 8.94336 72.3066 8.99414C72.0645 9.04102 71.8613 9.11328 71.6973 9.21094C71.5332 9.30859 71.4082 9.43164 71.3223 9.58008C71.2363 9.72461 71.1934 9.89453 71.1934 10.0898C71.1934 10.2891 71.2383 10.4707 71.3281 10.6348C71.418 10.7988 71.5527 10.9297 71.7324 11.0273C71.916 11.1211 72.1406 11.168 72.4062 11.168C72.7383 11.168 73.0312 11.0977 73.2852 10.957C73.5391 10.8164 73.7402 10.6445 73.8887 10.4414C74.041 10.2383 74.123 10.041 74.1348 9.84961L74.5977 10.3711C74.5703 10.5352 74.4961 10.7168 74.375 10.916C74.2539 11.1152 74.0918 11.3066 73.8887 11.4902C73.6895 11.6699 73.4512 11.8203 73.1738 11.9414C72.9004 12.0586 72.5918 12.1172 72.248 12.1172C71.8184 12.1172 71.4414 12.0332 71.1172 11.8652C70.7969 11.6973 70.5469 11.4727 70.3672 11.1914C70.1914 10.9062 70.1035 10.5879 70.1035 10.2363C70.1035 9.89648 70.1699 9.59766 70.3027 9.33984C70.4355 9.07812 70.627 8.86133 70.877 8.68945C71.127 8.51367 71.4277 8.38086 71.7793 8.29102C72.1309 8.20117 72.5234 8.15625 72.957 8.15625H74.2168ZM81.1191 8.4082V9.28711H77.7676V8.4082H81.1191ZM77.9961 5.66016V12H76.9121V5.66016H77.9961ZM81.998 5.66016V12H80.9082V5.66016H81.998ZM83.457 8.90039V8.76562C83.457 8.30859 83.5234 7.88477 83.6562 7.49414C83.7891 7.09961 83.9805 6.75781 84.2305 6.46875C84.4805 6.17578 84.7832 5.94922 85.1387 5.78906C85.4941 5.625 85.8926 5.54297 86.334 5.54297C86.7793 5.54297 87.1797 5.625 87.5352 5.78906C87.8945 5.94922 88.1992 6.17578 88.4492 6.46875C88.7031 6.75781 88.8965 7.09961 89.0293 7.49414C89.1621 7.88477 89.2285 8.30859 89.2285 8.76562V8.90039C89.2285 9.35742 89.1621 9.78125 89.0293 10.1719C88.8965 10.5625 88.7031 10.9043 88.4492 11.1973C88.1992 11.4863 87.8965 11.7129 87.541 11.877C87.1895 12.0371 86.791 12.1172 86.3457 12.1172C85.9004 12.1172 85.5 12.0371 85.1445 11.877C84.7891 11.7129 84.4844 11.4863 84.2305 11.1973C83.9805 10.9043 83.7891 10.5625 83.6562 10.1719C83.5234 9.78125 83.457 9.35742 83.457 8.90039ZM84.541 8.76562V8.90039C84.541 9.2168 84.5781 9.51562 84.6523 9.79688C84.7266 10.0742 84.8379 10.3203 84.9863 10.5352C85.1387 10.75 85.3281 10.9199 85.5547 11.0449C85.7812 11.166 86.0449 11.2266 86.3457 11.2266C86.6426 11.2266 86.9023 11.166 87.125 11.0449C87.3516 10.9199 87.5391 10.75 87.6875 10.5352C87.8359 10.3203 87.9473 10.0742 88.0215 9.79688C88.0996 9.51562 88.1387 9.2168 88.1387 8.90039V8.76562C88.1387 8.45312 88.0996 8.1582 88.0215 7.88086C87.9473 7.59961 87.834 7.35156 87.6816 7.13672C87.5332 6.91797 87.3457 6.74609 87.1191 6.62109C86.8965 6.49609 86.6348 6.43359 86.334 6.43359C86.0371 6.43359 85.7754 6.49609 85.5488 6.62109C85.3262 6.74609 85.1387 6.91797 84.9863 7.13672C84.8379 7.35156 84.7266 7.59961 84.6523 7.88086C84.5781 8.1582 84.541 8.45312 84.541 8.76562ZM93.5645 9.21094H91.4844L91.4727 8.34375H93.1719C93.5078 8.34375 93.7871 8.31055 94.0098 8.24414C94.2363 8.17773 94.4062 8.07812 94.5195 7.94531C94.6328 7.8125 94.6895 7.64844 94.6895 7.45312C94.6895 7.30078 94.6562 7.16797 94.5898 7.05469C94.5273 6.9375 94.4316 6.8418 94.3027 6.76758C94.1738 6.68945 94.0137 6.63281 93.8223 6.59766C93.6348 6.55859 93.4141 6.53906 93.1602 6.53906H91.7715V12H90.6875V5.66016H93.1602C93.5625 5.66016 93.9238 5.69531 94.2441 5.76562C94.5684 5.83594 94.8438 5.94336 95.0703 6.08789C95.3008 6.22852 95.4766 6.4082 95.5977 6.62695C95.7188 6.8457 95.7793 7.10352 95.7793 7.40039C95.7793 7.5918 95.7402 7.77344 95.6621 7.94531C95.584 8.11719 95.4688 8.26953 95.3164 8.40234C95.1641 8.53516 94.9766 8.64453 94.7539 8.73047C94.5312 8.8125 94.2754 8.86523 93.9863 8.88867L93.5645 9.21094ZM93.5645 12H91.0918L91.6309 11.1211H93.5645C93.8652 11.1211 94.1152 11.084 94.3145 11.0098C94.5137 10.9316 94.6621 10.8223 94.7598 10.6816C94.8613 10.5371 94.9121 10.3652 94.9121 10.166C94.9121 9.9668 94.8613 9.79688 94.7598 9.65625C94.6621 9.51172 94.5137 9.40234 94.3145 9.32812C94.1152 9.25 93.8652 9.21094 93.5645 9.21094H91.918L91.9297 8.34375H93.9863L94.3789 8.67188C94.7266 8.69922 95.0215 8.78516 95.2637 8.92969C95.5059 9.07422 95.6895 9.25781 95.8145 9.48047C95.9395 9.69922 96.002 9.9375 96.002 10.1953C96.002 10.4922 95.9453 10.7539 95.832 10.9805C95.7227 11.207 95.5625 11.3965 95.3516 11.5488C95.1406 11.6973 94.8848 11.8105 94.584 11.8887C94.2832 11.9629 93.9434 12 93.5645 12ZM101.193 10.916V7.65234C101.193 7.40234 101.143 7.18555 101.041 7.00195C100.943 6.81445 100.795 6.66992 100.596 6.56836C100.396 6.4668 100.15 6.41602 99.8574 6.41602C99.584 6.41602 99.3438 6.46289 99.1367 6.55664C98.9336 6.65039 98.7734 6.77344 98.6562 6.92578C98.543 7.07812 98.4863 7.24219 98.4863 7.41797H97.4023C97.4023 7.19141 97.4609 6.9668 97.5781 6.74414C97.6953 6.52148 97.8633 6.32031 98.082 6.14062C98.3047 5.95703 98.5703 5.8125 98.8789 5.70703C99.1914 5.59766 99.5391 5.54297 99.9219 5.54297C100.383 5.54297 100.789 5.62109 101.141 5.77734C101.496 5.93359 101.773 6.16992 101.973 6.48633C102.176 6.79883 102.277 7.19141 102.277 7.66406V10.6172C102.277 10.8281 102.295 11.0527 102.33 11.291C102.369 11.5293 102.426 11.7344 102.5 11.9062V12H101.369C101.314 11.875 101.271 11.709 101.24 11.502C101.209 11.291 101.193 11.0957 101.193 10.916ZM101.381 8.15625L101.393 8.91797H100.297C99.9883 8.91797 99.7129 8.94336 99.4707 8.99414C99.2285 9.04102 99.0254 9.11328 98.8613 9.21094C98.6973 9.30859 98.5723 9.43164 98.4863 9.58008C98.4004 9.72461 98.3574 9.89453 98.3574 10.0898C98.3574 10.2891 98.4023 10.4707 98.4922 10.6348C98.582 10.7988 98.7168 10.9297 98.8965 11.0273C99.0801 11.1211 99.3047 11.168 99.5703 11.168C99.9023 11.168 100.195 11.0977 100.449 10.957C100.703 10.8164 100.904 10.6445 101.053 10.4414C101.205 10.2383 101.287 10.041 101.299 9.84961L101.762 10.3711C101.734 10.5352 101.66 10.7168 101.539 10.916C101.418 11.1152 101.256 11.3066 101.053 11.4902C100.854 11.6699 100.615 11.8203 100.338 11.9414C100.064 12.0586 99.7559 12.1172 99.4121 12.1172C98.9824 12.1172 98.6055 12.0332 98.2812 11.8652C97.9609 11.6973 97.7109 11.4727 97.5312 11.1914C97.3555 10.9062 97.2676 10.5879 97.2676 10.2363C97.2676 9.89648 97.334 9.59766 97.4668 9.33984C97.5996 9.07812 97.791 8.86133 98.041 8.68945C98.291 8.51367 98.5918 8.38086 98.9434 8.29102C99.2949 8.20117 99.6875 8.15625 100.121 8.15625H101.381Z" fill="#2C2D2E"/>
</svg>
