<svg width="34" height="34" viewBox="0 0 34 34" fill="none" xmlns="http://www.w3.org/2000/svg">
  <rect width="34" height="34" rx="17" fill="#B1B3B5" fill-opacity="0.45"/>
  <path
    fill-rule="evenodd"
    clip-rule="evenodd"
    d="M15.9583 9H15.9308H15.9308C15.0207 9 14.2995 8.99999 13.7181 9.04749C13.1236 9.09606 12.6206 9.1974 12.1613 9.43143C11.4165 9.81093 10.8109 10.4165 10.4314 11.1613C10.1974 11.6206 10.0961 12.1236 10.0475 12.7181C9.99999 13.2995 10 14.0207 10 14.9308V14.9308V14.9583V22.6609V22.6894C9.99999 23.0515 9.99997 23.3656 10.0229 23.6152C10.046 23.8672 10.099 24.1601 10.2836 24.411C10.5309 24.7472 10.9103 24.9613 11.3258 24.9992C11.6361 25.0275 11.9142 24.9215 12.1419 24.811C12.3674 24.7016 12.6362 24.5392 12.9462 24.3521L12.9462 24.3521L12.9706 24.3373L15.2558 22.9575C16.0451 22.4808 16.319 22.3246 16.5961 22.2634C16.8624 22.2047 17.1383 22.2047 17.4046 22.2634C17.6817 22.3246 17.9555 22.4808 18.7449 22.9575L21.03 24.3373L21.0545 24.3521C21.3644 24.5392 21.6332 24.7016 21.8587 24.811C22.0864 24.9215 22.3646 25.0275 22.6748 24.9992C23.0904 24.9613 23.4698 24.7472 23.7171 24.411C23.9017 24.1601 23.9547 23.8672 23.9778 23.6152C24.0007 23.3656 24.0007 23.0515 24.0007 22.6894V22.6609V14.9583V14.9308C24.0007 14.0207 24.0007 13.2995 23.9532 12.7181C23.9046 12.1236 23.8033 11.6206 23.5692 11.1613C23.1897 10.4165 22.5842 9.81093 21.8394 9.43143C21.3801 9.1974 20.877 9.09606 20.2825 9.04749C19.7012 8.99999 18.9799 9 18.0698 9H18.0423H15.9583Z"
    fill="#4C239D"
  />
</svg>
