<svg width="24" height="24" viewBox="0 0 24 24" fill="none" xmlns="http://www.w3.org/2000/svg">
<path d="M17 15.5C17 16.3284 16.3284 17 15.5 17C14.6715 17 14 16.3284 14 15.5C14 14.6715 14.6715 14 15.5 14C16.3284 14 17 14.6715 17 15.5Z" fill="#99A2AD"/>
<path fill-rule="evenodd" clip-rule="evenodd" d="M7.99998 1.5C8.49703 1.5 8.89998 1.90294 8.89998 2.4V3.00043C9.07971 3 9.26681 3 9.4616 3H14.5384C14.7332 3 14.9203 3 15.1 3.00043V2.4C15.1 1.90294 15.5029 1.5 16 1.5C16.497 1.5 16.9 1.90294 16.9 2.4V3.05299C17.5278 3.10616 18.0828 3.21729 18.5976 3.47957C19.4255 3.90141 20.0986 4.57453 20.5204 5.40244C20.7866 5.92481 20.8971 6.48863 20.9493 7.12792C21 7.74834 21 8.51409 21 9.46159V14.5384C21 15.4859 21 16.2517 20.9493 16.8721C20.8971 17.5114 20.7866 18.0752 20.5204 18.5976C20.0986 19.4255 19.4255 20.0986 18.5976 20.5204C18.0752 20.7866 17.5114 20.8971 16.8721 20.9493C16.2517 21 15.4859 21 14.5384 21H9.46159C8.51409 21 7.74834 21 7.12792 20.9493C6.48863 20.8971 5.92481 20.7866 5.40244 20.5204C4.57453 20.0986 3.90142 19.4255 3.47957 18.5976C3.21341 18.0752 3.10291 17.5114 3.05067 16.8721C2.99998 16.2517 2.99999 15.4859 3 14.5384V9.46159C2.99999 8.51409 2.99998 7.74834 3.05067 7.12792C3.10291 6.48863 3.21341 5.92481 3.47957 5.40244C3.90142 4.57453 4.57453 3.90141 5.40244 3.47957C5.91719 3.2173 6.47218 3.10616 7.09998 3.053V2.4C7.09998 1.90294 7.50292 1.5 7.99998 1.5ZM7.09998 4.86117C6.6779 4.90689 6.41974 4.98142 6.21963 5.08338C5.7304 5.33265 5.33265 5.7304 5.08338 6.21962C4.96807 6.44595 4.88783 6.74652 4.8447 7.2745C4.80848 7.7178 4.8016 8.26521 4.8003 9H19.1997C19.1984 8.26521 19.1915 7.7178 19.1553 7.2745C19.1122 6.74652 19.0319 6.44595 18.9166 6.21962C18.6673 5.7304 18.2696 5.33265 17.7804 5.08338C17.5803 4.98142 17.3221 4.90688 16.9 4.86117V5.6C16.9 6.09706 16.497 6.5 16 6.5C15.5029 6.5 15.1 6.09706 15.1 5.6V4.80052C14.9129 4.80003 14.7134 4.8 14.5 4.8H9.5C9.28655 4.8 9.08703 4.80003 8.89998 4.80052V5.6C8.89998 6.09706 8.49703 6.5 7.99998 6.5C7.50292 6.5 7.09998 6.09706 7.09998 5.6V4.86117ZM19.2 10.8H4.8V14.5C4.8 15.4949 4.8007 16.187 4.8447 16.7255C4.88783 17.2535 4.96807 17.5541 5.08338 17.7804C5.33265 18.2696 5.7304 18.6673 6.21963 18.9166C6.44595 19.0319 6.74652 19.1122 7.2745 19.1553C7.81298 19.1993 8.50506 19.2 9.5 19.2H14.5C15.4949 19.2 16.187 19.1993 16.7255 19.1553C17.2535 19.1122 17.5541 19.0319 17.7804 18.9166C18.2696 18.6673 18.6673 18.2696 18.9166 17.7804C19.0319 17.5541 19.1122 17.2535 19.1553 16.7255C19.1993 16.187 19.2 15.4949 19.2 14.5V10.8Z" fill="#99A2AD"/>
</svg>
