<svg width="20" height="20" viewBox="0 0 20 20" fill="none" xmlns="http://www.w3.org/2000/svg">
<path fill-rule="evenodd" clip-rule="evenodd" d="M6.19541 3.53913C6.58553 3.53913 6.66224 3.54366 6.7265 3.55859C6.8078 3.57748 6.88538 3.6098 6.95603 3.65423C7.01188 3.68935 7.06911 3.74064 7.3438 4.01766L8.05873 4.73867L8.10296 4.78332L8.10297 4.78333C8.31887 5.00147 8.50922 5.1938 8.7392 5.33567C8.94123 5.4603 9.16172 5.55217 9.39247 5.60788C9.65514 5.67129 9.92574 5.67104 10.2327 5.67075L10.2955 5.67071H13.75C14.4624 5.67071 14.9517 5.6713 15.3309 5.70228C15.7014 5.73255 15.9004 5.78806 16.0445 5.86145C16.3738 6.02923 16.6415 6.29695 16.8093 6.62623C16.9385 6.87986 16.9912 7.31062 16.9985 8.31429C17.0015 8.7285 17.3398 9.06182 17.754 9.0588C18.1682 9.05578 18.5015 8.71756 18.4985 8.30335C18.4918 7.38233 18.4651 6.57197 18.1458 5.94524C17.8342 5.33372 17.337 4.83653 16.7255 4.52494C16.3347 4.32585 15.9163 4.24511 15.4531 4.20726C15.0055 4.1707 14.4548 4.1707 13.7814 4.17071H13.7814L10.2955 4.17071C9.89058 4.17071 9.81106 4.16584 9.74448 4.14977C9.66757 4.1312 9.59407 4.10057 9.52673 4.05903C9.46844 4.02307 9.40899 3.97004 9.12387 3.6825L8.40893 2.96149L8.36631 2.91845C8.15826 2.70827 7.97489 2.523 7.75454 2.38444C7.54257 2.25114 7.30983 2.15416 7.06593 2.0975C6.81239 2.0386 6.55171 2.03883 6.25597 2.0391L6.19541 2.03913L6.16517 2.03913C5.51653 2.03913 4.98604 2.03912 4.5544 2.07312C4.10779 2.1083 3.70382 2.18329 3.32441 2.36848C2.67335 2.68627 2.14714 3.21248 1.82935 3.86354C1.64416 4.24296 1.56916 4.64693 1.53399 5.09354C1.49999 5.52517 1.49999 6.05566 1.5 6.70429V6.7043V12.3206V12.3206C1.49999 12.9939 1.49998 13.5446 1.53655 13.9922C1.5744 14.4555 1.65514 14.8739 1.85423 15.2646C2.16582 15.8761 2.663 16.3733 3.27453 16.6849C3.66527 16.884 4.08367 16.9647 4.54693 17.0026C4.99448 17.0391 5.54518 17.0391 6.21853 17.0391H6.21856H13.0017C13.416 17.0391 13.7517 16.7033 13.7517 16.2891C13.7517 15.8749 13.416 15.5391 13.0017 15.5391H6.25C5.53756 15.5391 5.04833 15.5385 4.66908 15.5076C4.29858 15.4773 4.09956 15.4218 3.95552 15.3484C3.62623 15.1806 3.35852 14.9129 3.19074 14.5836C3.11735 14.4396 3.06184 14.2406 3.03157 13.8701C3.00058 13.4908 3 13.0016 3 12.2891V6.73454C3 6.0483 3.00054 5.57708 3.02935 5.21132C3.05751 4.85385 3.10919 4.66114 3.17734 4.52151C3.34846 4.17094 3.6318 3.88759 3.98238 3.71648C4.122 3.64832 4.31471 3.59664 4.67219 3.56849C5.03795 3.53968 5.50917 3.53913 6.19541 3.53913ZM15.2534 17.2502C15.2534 17.6645 15.5892 18.0002 16.0034 18.0002C16.4176 18.0002 16.7534 17.6645 16.7534 17.2502L16.7534 12.558L17.7212 13.5258C18.0141 13.8187 18.489 13.8187 18.7818 13.5258C19.0747 13.2329 19.0747 12.7581 18.7818 12.4652L16.5337 10.217C16.2408 9.92414 15.7659 9.92414 15.473 10.217L13.2249 12.4652C12.932 12.7581 12.932 13.2329 13.2249 13.5258C13.5178 13.8187 13.9927 13.8187 14.2856 13.5258L15.2534 12.558L15.2534 17.2502Z" fill="#2C2D2E"/>
</svg>
