<svg width="8" height="8" viewBox="0 0 8 8" fill="none" xmlns="http://www.w3.org/2000/svg">
<path d="M1.02426 0.175736C0.789949 -0.0585787 0.410051 -0.0585787 0.175736 0.175736C-0.0585787 0.410051 -0.0585787 0.78995 0.175736 1.02426L3.15147 4L0.175737 6.97574C-0.0585781 7.21005 -0.0585781 7.58995 0.175737 7.82426C0.410051 8.05858 0.789949 8.05858 1.02426 7.82426L4 4.84853L6.97574 7.82426C7.21005 8.05858 7.58995 8.05858 7.82426 7.82426C8.05858 7.58995 8.05858 7.21005 7.82426 6.97574L4.84853 4L7.82426 1.02426C8.05858 0.78995 8.05858 0.410051 7.82426 0.175736C7.58995 -0.0585787 7.21005 -0.0585787 6.97574 0.175736L4 3.15147L1.02426 0.175736Z" fill="#C3C6C9"/>
</svg>
