<svg width="20" height="20" viewBox="0 0 20 20" fill="none" xmlns="http://www.w3.org/2000/svg">
<path fill-rule="evenodd" clip-rule="evenodd" d="M7.39772 2.14258L9.28544 2.14258C9.67993 2.14258 9.99972 2.46238 9.99972 2.85686C9.99972 3.25135 9.67993 3.57115 9.28544 3.57115H7.42829C6.61643 3.57115 6.05049 3.57171 5.60989 3.6077C5.17763 3.64302 4.92928 3.70886 4.74117 3.80471C4.33797 4.01015 4.01015 4.33797 3.80471 4.74117C3.70886 4.92928 3.64302 5.17763 3.6077 5.60989C3.57171 6.05049 3.57115 6.61643 3.57115 7.42829V12.5712C3.57115 13.383 3.57171 13.9489 3.6077 14.3895C3.64302 14.8218 3.70886 15.0702 3.80471 15.2583C4.01015 15.6615 4.33797 15.9893 4.74117 16.1947C4.92928 16.2906 5.17763 16.3564 5.60989 16.3917C6.05049 16.4277 6.61643 16.4283 7.42829 16.4283H9.28544C9.67993 16.4283 9.99972 16.7481 9.99972 17.1426C9.99972 17.5371 9.67993 17.8569 9.28544 17.8569H7.3977C6.62357 17.8569 5.99919 17.8569 5.49356 17.8156C4.97295 17.773 4.51568 17.6832 4.09261 17.4676C3.42061 17.1252 2.87425 16.5788 2.53184 15.9068C2.31628 15.4838 2.22641 15.0265 2.18388 14.5059C2.14257 14.0003 2.14257 13.3759 2.14258 12.6017V7.39772C2.14257 6.62358 2.14257 5.99919 2.18388 5.49356C2.22641 4.97295 2.31628 4.51568 2.53184 4.09261C2.87425 3.42061 3.4206 2.87425 4.09261 2.53184C4.51568 2.31628 4.97295 2.22641 5.49356 2.18388C5.99919 2.14257 6.62358 2.14257 7.39772 2.14258ZM13.7804 6.6375C14.0593 6.35856 14.5116 6.35856 14.7905 6.6375L17.6477 9.49465C17.7816 9.6286 17.8569 9.81028 17.8569 9.99972C17.8569 10.1892 17.7816 10.3708 17.6477 10.5048L14.7905 13.3619C14.5116 13.6409 14.0593 13.6409 13.7804 13.3619C13.5014 13.083 13.5014 12.6307 13.7804 12.3518L15.4181 10.714H8.57115C8.17666 10.714 7.85686 10.3942 7.85686 9.99972C7.85686 9.60523 8.17666 9.28544 8.57115 9.28544H15.4181L13.7804 7.64766C13.5014 7.36871 13.5014 6.91645 13.7804 6.6375Z" fill="#E64646"/>
</svg>
