<svg width="17" height="17" viewBox="0 0 17 17" fill="none" xmlns="http://www.w3.org/2000/svg">
<path fill-rule="evenodd" clip-rule="evenodd" d="M10.5 9C10.5 10.3807 9.38071 11.5 8 11.5C6.61929 11.5 5.5 10.3807 5.5 9C5.5 7.61929 6.61929 6.5 8 6.5C9.38071 6.5 10.5 7.61929 10.5 9ZM8 10C8.55228 10 9 9.55228 9 9C9 8.44772 8.55228 8 8 8C7.44772 8 7 8.44772 7 9C7 9.55228 7.44772 10 8 10Z" fill="#99A2AD"/>
<path fill-rule="evenodd" clip-rule="evenodd" d="M12.6769 12.5103C11.4515 13.3544 9.78504 14 8 14C6.21496 14 4.54849 13.3544 3.32306 12.5103C2.7069 12.0859 2.15875 11.5819 1.75018 11.0299C1.35889 10.5012 1 9.79676 1 9C1 8.20324 1.35889 7.49876 1.75018 6.97011C2.15875 6.4181 2.7069 5.91406 3.32306 5.48967C4.54849 4.64562 6.21496 4 8 4C9.78504 4 11.4515 4.64562 12.6769 5.48967C13.2931 5.91406 13.8412 6.4181 14.2498 6.97011C14.6411 7.49876 15 8.20324 15 9C15 9.79676 14.6411 10.5012 14.2498 11.0299C13.8412 11.5819 13.2931 12.0859 12.6769 12.5103ZM8 12.5C10.8696 12.5 13.5 10.4 13.5 9C13.5 7.6 10.8696 5.5 8 5.5C5.13043 5.5 2.5 7.6 2.5 9C2.5 10.4 5.13043 12.5 8 12.5Z" fill="#99A2AD"/>
<line x1="1.73106" y1="1.31768" x2="15.3774" y2="15.9388" stroke="#2C2D2E" stroke-width="2"/>
</svg>
