<svg width="16" height="16" viewBox="0 0 16 16" fill="none" xmlns="http://www.w3.org/2000/svg">
<path fill-rule="evenodd" clip-rule="evenodd" d="M10.5 8C10.5 9.38071 9.38071 10.5 8 10.5C6.61929 10.5 5.5 9.38071 5.5 8C5.5 6.61929 6.61929 5.5 8 5.5C9.38071 5.5 10.5 6.61929 10.5 8ZM8 9C8.55228 9 9 8.55228 9 8C9 7.44772 8.55228 7 8 7C7.44772 7 7 7.44772 7 8C7 8.55228 7.44772 9 8 9Z" fill="#99A2AD"/>
<path fill-rule="evenodd" clip-rule="evenodd" d="M12.6769 11.5103C11.4515 12.3544 9.78504 13 8 13C6.21496 13 4.54849 12.3544 3.32306 11.5103C2.7069 11.0859 2.15875 10.5819 1.75018 10.0299C1.35889 9.50124 1 8.79676 1 8C1 7.20324 1.35889 6.49876 1.75018 5.97011C2.15875 5.4181 2.7069 4.91406 3.32306 4.48967C4.54849 3.64562 6.21496 3 8 3C9.78504 3 11.4515 3.64562 12.6769 4.48967C13.2931 4.91406 13.8412 5.4181 14.2498 5.97011C14.6411 6.49876 15 7.20324 15 8C15 8.79676 14.6411 9.50124 14.2498 10.0299C13.8412 10.5819 13.2931 11.0859 12.6769 11.5103ZM8 11.5C10.8696 11.5 13.5 9.4 13.5 8C13.5 6.6 10.8696 4.5 8 4.5C5.13043 4.5 2.5 6.6 2.5 8C2.5 9.4 5.13043 11.5 8 11.5Z" fill="#99A2AD"/>
</svg>
