<svg width="20" height="20" viewBox="0 0 20 20" fill="none" xmlns="http://www.w3.org/2000/svg">
<g id="icons/bookmark_20">
<path id="&#226;&#134;&#179; Icon Color" fill-rule="evenodd" clip-rule="evenodd" d="M9.26937 2H10.7306C11.6848 1.99999 12.4436 1.99999 13.0558 2.04969C13.6827 2.10058 14.2173 2.20704 14.7068 2.45484C15.497 2.85493 16.1396 3.49334 16.5422 4.27856C16.7916 4.7649 16.8988 5.29604 16.95 5.91895C17 6.52724 17 7.2812 17 8.22921V14.2421C17 14.9424 17 15.5161 16.9593 15.9602C16.9191 16.4 16.8307 16.8518 16.5466 17.2085C16.1522 17.7036 15.5533 17.9946 14.9179 17.9999C14.4601 18.0038 14.0469 17.7957 13.6728 17.5573C13.295 17.3165 12.8392 16.9643 12.2829 16.5343L10.9455 15.5008C10.4025 15.0812 10.2856 15.0075 10.1829 14.9799C10.0631 14.9477 9.93686 14.9477 9.81706 14.9799C9.71444 15.0075 9.59749 15.0812 9.05453 15.5008L7.71709 16.5344C7.16075 16.9643 6.705 17.3165 6.32716 17.5573C5.95306 17.7957 5.53993 18.0038 5.08213 17.9999C4.44665 17.9946 3.84781 17.7036 3.45339 17.2085C3.16925 16.8518 3.08094 16.4 3.04066 15.9602C2.99998 15.5161 2.99999 14.9424 3 14.242V8.22923C2.99999 7.2812 2.99999 6.52724 3.05001 5.91895C3.10123 5.29604 3.20837 4.7649 3.45777 4.27856C3.86044 3.49334 4.50296 2.85493 5.29324 2.45484C5.78271 2.20704 6.31728 2.10058 6.94421 2.04969C7.55642 1.99999 8.31524 1.99999 9.26937 2ZM7.05821 3.43611C6.51787 3.47997 6.18805 3.56303 5.92883 3.69426C5.40197 3.96099 4.97363 4.38659 4.70518 4.91007C4.5731 5.16763 4.48951 5.49534 4.44536 6.03223C4.40054 6.57723 4.4 7.27437 4.4 8.25966V14.207C4.4 14.951 4.4007 15.4607 4.4349 15.8342C4.47019 16.2194 4.53301 16.3224 4.55113 16.3451C4.6826 16.5102 4.88222 16.6072 5.09405 16.609C5.12324 16.6092 5.24363 16.5952 5.57134 16.3864C5.889 16.184 6.2944 15.8716 6.88547 15.4148L8.19502 14.4028C8.2241 14.3803 8.2529 14.358 8.28145 14.3358C8.68553 14.0225 9.03975 13.7479 9.45117 13.6372C9.81059 13.5405 10.1894 13.5405 10.5488 13.6372C10.9603 13.7479 11.3145 14.0225 11.7186 14.3358C11.7471 14.358 11.7759 14.3803 11.805 14.4028L13.1145 15.4148C13.7056 15.8716 14.111 16.184 14.4287 16.3864C14.7564 16.5952 14.8768 16.6092 14.906 16.609C15.1178 16.6072 15.3174 16.5102 15.4489 16.3451C15.467 16.3224 15.5298 16.2194 15.5651 15.8342C15.5993 15.4607 15.6 14.951 15.6 14.207V8.25966C15.6 7.27437 15.5995 6.57723 15.5546 6.03223C15.5105 5.49534 15.4269 5.16763 15.2948 4.91007C15.0264 4.38659 14.598 3.96099 14.0712 3.69426C13.812 3.56303 13.4821 3.47997 12.9418 3.43611C12.3933 3.39158 11.6916 3.39104 10.7 3.39104H9.3C8.30836 3.39104 7.60673 3.39158 7.05821 3.43611Z" fill="#B6C1CF"/>
</g>
</svg>
