<svg width="20" height="20" viewBox="0 0 20 20" fill="none" xmlns="http://www.w3.org/2000/svg">
<g id="icons/bookmark_solid_20">
<path id="Union" fill-rule="evenodd" clip-rule="evenodd" d="M8.95834 2H8.93084H8.93083C8.02071 2 7.29946 1.99999 6.71811 2.04749C6.12362 2.09606 5.6206 2.1974 5.16129 2.43143C4.41648 2.81093 3.81093 3.41648 3.43143 4.16129C3.1974 4.6206 3.09606 5.12362 3.04749 5.71811C2.99999 6.29946 3 7.02069 3 7.9308V7.93083V7.95833V15.6609V15.6894C2.99999 16.0515 2.99997 16.3656 3.02287 16.6152C3.04599 16.8672 3.099 17.1601 3.28359 17.411C3.53085 17.7472 3.91028 17.9613 4.32585 17.9992C4.63607 18.0275 4.91423 17.9215 5.14191 17.811C5.36742 17.7016 5.63624 17.5392 5.9462 17.3521L5.94621 17.3521L5.97061 17.3373L8.25577 15.9575C9.04512 15.4808 9.31896 15.3246 9.5961 15.2634C9.86238 15.2047 10.1383 15.2047 10.4046 15.2634C10.6817 15.3246 10.9555 15.4808 11.7449 15.9575L14.03 17.3373L14.0545 17.3521C14.3644 17.5392 14.6332 17.7016 14.8587 17.811C15.0864 17.9215 15.3646 18.0275 15.6748 17.9992C16.0904 17.9613 16.4698 17.7472 16.7171 17.411C16.9017 17.1601 16.9547 16.8672 16.9778 16.6152C17.0007 16.3656 17.0007 16.0515 17.0007 15.6894V15.6609V7.95833V7.93082C17.0007 7.0207 17.0007 6.29946 16.9532 5.71811C16.9046 5.12362 16.8033 4.6206 16.5692 4.16129C16.1897 3.41648 15.5842 2.81093 14.8394 2.43143C14.3801 2.1974 13.877 2.09606 13.2825 2.04749C12.7012 1.99999 11.9799 2 11.0698 2H11.0423H8.95834Z" fill="#4C239D"/>
</g>
</svg>
