<svg width="25" height="24" viewBox="0 0 25 24" fill="none" xmlns="http://www.w3.org/2000/svg">
<g clip-path="url(#clip0_1424_63878)">
<path d="M9.97399 10.2984C11.066 10.2984 11.9564 9.408 11.9564 8.3136C11.9564 8.1888 11.9396 8.1264 11.9276 8.0544C11.8667 7.68612 11.5482 7.416 11.1749 7.416H8.77067C8.39738 7.416 8.07891 7.68612 8.01799 8.0544C8.00599 8.1264 7.98919 8.2104 7.98919 8.3376C7.98919 9.4296 8.87959 10.2984 9.97399 10.2984ZM13.8548 10.044C14.162 10.2144 14.4956 10.2984 14.8244 10.2984C15.518 10.2984 16.1924 9.9336 16.5548 9.288C16.7732 8.8992 16.8524 8.5032 16.7828 8.0544C16.7204 7.68579 16.4012 7.416 16.0273 7.416H13.6258C13.2512 7.416 12.9317 7.68719 12.8708 8.0568C12.746 8.8704 13.1396 9.6408 13.8548 10.044ZM11.4092 13.7424C9.93918 13.9977 8.61498 14.4834 7.83171 14.8103C7.41904 14.9825 7.25639 15.4659 7.45663 15.8657C7.65669 16.2651 8.14261 16.4328 8.55615 16.2638C10.239 15.5761 14.3676 14.2041 16.3441 16.3252C16.6489 16.6523 17.1351 16.8025 17.5249 16.5837C17.9144 16.3651 18.0585 15.867 17.7825 15.516C16.7813 14.243 14.9065 13.1353 11.4092 13.7424ZM12.4004 0C5.78359 0 0.400391 5.3832 0.400391 12C0.400391 18.6168 5.78359 24 12.4004 24C19.0172 24 24.4004 18.6168 24.4004 12C24.4004 5.3832 19.0172 0 12.4004 0ZM12.4004 22.3824C6.67639 22.3824 2.01799 17.724 2.01799 12C2.01799 6.276 6.67639 1.6176 12.4004 1.6176C18.1244 1.6176 22.7828 6.276 22.7828 12C22.7828 17.724 18.1244 22.3824 12.4004 22.3824Z" fill="#FF6941"/>
</g>
<defs>
<clipPath id="clip0_1424_63878">
<rect width="24" height="24" fill="white" transform="translate(0.400391)"/>
</clipPath>
</defs>
</svg>
