<svg width="25" height="24" viewBox="0 0 25 24" fill="none" xmlns="http://www.w3.org/2000/svg">
<g clip-path="url(#clip0_1424_63884)">
<path d="M7.6878 15.24C7.6878 14.7893 8.05314 14.424 8.5038 14.424H16.8318C17.2825 14.424 17.6478 14.7893 17.6478 15.24C17.6478 15.6907 17.2825 16.056 16.8318 16.056H8.50381C8.05314 16.056 7.6878 15.6907 7.6878 15.24ZM12.7998 0C6.183 0 0.799805 5.3832 0.799805 12C0.799805 18.6168 6.183 24 12.7998 24C19.4166 24 24.7998 18.6168 24.7998 12C24.7998 5.3832 19.4166 0 12.7998 0ZM12.7998 22.3824C7.0758 22.3824 2.4174 17.724 2.4174 12C2.4174 6.276 7.0758 1.6176 12.7998 1.6176C18.5238 1.6176 23.1822 6.276 23.1822 12C23.1822 17.724 18.5238 22.3824 12.7998 22.3824ZM9.56221 12.1848C9.63901 12.1848 9.7182 12.18 9.7974 12.1704C10.8846 12.0432 11.6622 11.0544 11.5326 9.9672C11.403 8.8824 10.4166 8.1024 9.3294 8.232C8.8038 8.2944 8.33341 8.5584 8.0046 8.976C7.6758 9.3936 7.53181 9.9096 7.5942 10.4376C7.7142 11.4432 8.57341 12.1848 9.56221 12.1848ZM16.7382 8.4744C16.2774 8.2152 15.7422 8.1504 15.231 8.292C14.7222 8.436 14.2974 8.7672 14.0382 9.2304C13.7766 9.6912 13.7142 10.224 13.8558 10.7352C13.9998 11.2464 14.331 11.664 14.7942 11.928C15.099 12.096 15.4326 12.1848 15.7614 12.1848C16.455 12.1848 17.1294 11.82 17.4942 11.1744C18.0294 10.2216 17.691 9.0096 16.7382 8.4744Z" fill="#FEAB23"/>
</g>
<defs>
<clipPath id="clip0_1424_63884">
<rect width="24" height="24" fill="white" transform="translate(0.799805)"/>
</clipPath>
</defs>
</svg>
