<svg width="33" height="35" viewBox="0 0 33 35" fill="none" xmlns="http://www.w3.org/2000/svg">
<path d="M15 1.5C15 0.671574 15.6716 0 16.5 0C17.3284 0 18 0.671573 18 1.5V33.5C18 34.3284 17.3284 35 16.5 35C15.6716 35 15 34.3284 15 33.5V1.5Z" fill="url(#paint0_linear_2496_67807)"/>
<path d="M20 8.5C20 7.67157 20.6716 7 21.5 7C22.3284 7 23 7.67157 23 8.5V27.5C23 28.3284 22.3284 29 21.5 29C20.6716 29 20 28.3284 20 27.5V8.5Z" fill="url(#paint1_linear_2496_67807)"/>
<path d="M25 13.5C25 12.6716 25.6716 12 26.5 12C27.3284 12 28 12.6716 28 13.5V22.5C28 23.3284 27.3284 24 26.5 24C25.6716 24 25 23.3284 25 22.5V13.5Z" fill="url(#paint2_linear_2496_67807)"/>
<path d="M30 15.5C30 14.6716 30.6716 14 31.5 14C32.3284 14 33 14.6716 33 15.5V20.5C33 21.3284 32.3284 22 31.5 22C30.6716 22 30 21.3284 30 20.5V15.5Z" fill="url(#paint3_linear_2496_67807)"/>
<path d="M0 15.5C0 14.6716 0.671573 14 1.5 14C2.32843 14 3 14.6716 3 15.5V20.5C3 21.3284 2.32843 22 1.5 22C0.671573 22 0 21.3284 0 20.5V15.5Z" fill="url(#paint4_linear_2496_67807)"/>
<path d="M10 8.5C10 7.67157 10.6716 7 11.5 7C12.3284 7 13 7.67157 13 8.5V27.5C13 28.3284 12.3284 29 11.5 29C10.6716 29 10 28.3284 10 27.5V8.5Z" fill="url(#paint5_linear_2496_67807)"/>
<path d="M5 13.5C5 12.6716 5.67157 12 6.5 12C7.32843 12 8 12.6716 8 13.5V22.5C8 23.3284 7.32843 24 6.5 24C5.67157 24 5 23.3284 5 22.5V13.5Z" fill="url(#paint6_linear_2496_67807)"/>
<defs>
<linearGradient id="paint0_linear_2496_67807" x1="6.5" y1="12" x2="6.5" y2="24" gradientUnits="userSpaceOnUse">
<stop offset="0.00775638" stop-color="#FD3B77"/>
<stop offset="1" stop-color="#4C239D"/>
</linearGradient>
<linearGradient id="paint1_linear_2496_67807" x1="6.5" y1="12" x2="6.5" y2="24" gradientUnits="userSpaceOnUse">
<stop offset="0.00775638" stop-color="#FD3B77"/>
<stop offset="1" stop-color="#4C239D"/>
</linearGradient>
<linearGradient id="paint2_linear_2496_67807" x1="6.5" y1="12" x2="6.5" y2="24" gradientUnits="userSpaceOnUse">
<stop offset="0.00775638" stop-color="#FD3B77"/>
<stop offset="1" stop-color="#4C239D"/>
</linearGradient>
<linearGradient id="paint3_linear_2496_67807" x1="6.5" y1="12" x2="6.5" y2="24" gradientUnits="userSpaceOnUse">
<stop offset="0.00775638" stop-color="#FD3B77"/>
<stop offset="1" stop-color="#4C239D"/>
</linearGradient>
<linearGradient id="paint4_linear_2496_67807" x1="6.5" y1="12" x2="6.5" y2="24" gradientUnits="userSpaceOnUse">
<stop offset="0.00775638" stop-color="#FD3B77"/>
<stop offset="1" stop-color="#4C239D"/>
</linearGradient>
<linearGradient id="paint5_linear_2496_67807" x1="6.5" y1="12" x2="6.5" y2="24" gradientUnits="userSpaceOnUse">
<stop offset="0.00775638" stop-color="#FD3B77"/>
<stop offset="1" stop-color="#4C239D"/>
</linearGradient>
<linearGradient id="paint6_linear_2496_67807" x1="6.5" y1="12" x2="6.5" y2="24" gradientUnits="userSpaceOnUse">
<stop offset="0.00775638" stop-color="#FD3B77"/>
<stop offset="1" stop-color="#4C239D"/>
</linearGradient>
</defs>
</svg>
