<svg width="44" height="40" viewBox="0 0 44 40" fill="none" xmlns="http://www.w3.org/2000/svg">
<path fillRule="evenodd" clipRule="evenodd" d="M25.0501 34.4111C24.9544 34.8671 24.5438 35.1848 24.0801 35.1607C17.3493 34.8112 10.9565 31.1894 7.36711 24.9419C4.54011 20.0215 3.98615 14.4021 5.37538 9.28984C5.49758 8.84016 5.92676 8.548 6.3882 8.5994C12.9784 9.33349 19.1166 13.0634 22.6573 19.226C25.397 23.9944 26.1038 29.3879 25.0501 34.4111Z" fill="url(#paint0_linear_1621_48725)"/>
<ellipse opacity="0.8" cx="27.6618" cy="6.35778" rx="4.01237" ry="4.02965" fill="#8A32E0"/>
<path fillRule="evenodd" clipRule="evenodd" d="M24.1449 35.171C23.6796 35.2042 23.2645 34.886 23.175 34.4262C22.2177 29.5087 23.6268 24.2288 27.4071 20.4322C30.3721 17.4545 34.2455 15.9417 38.1408 15.8915C38.6073 15.8855 39.0024 16.2286 39.0651 16.6929C39.7254 21.5797 38.1934 26.6982 34.465 30.4427C31.5931 33.3269 27.9095 34.9024 24.1449 35.171Z" fill="#4C239D"/>
<defs>
<linearGradient id="paint0_linear_1621_48725" x1="5.30762" y1="9.07575" x2="24.9577" y2="34.6812" gradientUnits="userSpaceOnUse">
<stop offset="0.00226547" stop-color="#FF3B76"/>
<stop offset="1" stop-color="#8A32E0"/>
</linearGradient>
</defs>
</svg>
