<svg width="604" height="24" viewBox="0 0 604 24" fill="none" xmlns="http://www.w3.org/2000/svg">
<path d="M1.872 16V8.2L2.556 8.908H0.096V7.6H3.432V16H1.872Z" fill="#99A2AD"/>
<path d="M14.1095 16V14.956L17.4455 11.788C17.7255 11.524 17.9335 11.292 18.0695 11.092C18.2055 10.892 18.2935 10.708 18.3335 10.54C18.3815 10.364 18.4055 10.2 18.4055 10.048C18.4055 9.664 18.2735 9.368 18.0095 9.16C17.7455 8.944 17.3575 8.836 16.8455 8.836C16.4375 8.836 16.0655 8.908 15.7295 9.052C15.4015 9.196 15.1175 9.416 14.8775 9.712L13.7855 8.872C14.1135 8.432 14.5535 8.092 15.1055 7.852C15.6655 7.604 16.2895 7.48 16.9775 7.48C17.5855 7.48 18.1135 7.58 18.5615 7.78C19.0175 7.972 19.3655 8.248 19.6055 8.608C19.8535 8.968 19.9775 9.396 19.9775 9.892C19.9775 10.164 19.9415 10.436 19.8695 10.708C19.7975 10.972 19.6615 11.252 19.4615 11.548C19.2615 11.844 18.9695 12.176 18.5855 12.544L15.7175 15.268L15.3935 14.68H20.3015V16H14.1095Z" fill="#99A2AD"/>
<path d="M32.5469 16.12C31.9549 16.12 31.3749 16.036 30.8069 15.868C30.2469 15.692 29.7749 15.452 29.3909 15.148L30.0629 13.936C30.3669 14.184 30.7349 14.384 31.1669 14.536C31.5989 14.688 32.0509 14.764 32.5229 14.764C33.0829 14.764 33.5189 14.652 33.8309 14.428C34.1429 14.196 34.2989 13.884 34.2989 13.492C34.2989 13.108 34.1549 12.804 33.8669 12.58C33.5789 12.356 33.1149 12.244 32.4749 12.244H31.7069V11.176L34.1069 8.32L34.3109 8.908H29.7989V7.6H35.5229V8.644L33.1229 11.5L32.3069 11.02H32.7749C33.8069 11.02 34.5789 11.252 35.0909 11.716C35.6109 12.172 35.8709 12.76 35.8709 13.48C35.8709 13.952 35.7509 14.388 35.5109 14.788C35.2709 15.188 34.9029 15.512 34.4069 15.76C33.9189 16 33.2989 16.12 32.5469 16.12Z" fill="#99A2AD"/>
<path d="M45.4773 14.092V13.012L49.6173 7.6H51.2853L47.2053 13.012L46.4253 12.772H53.0853V14.092H45.4773ZM50.0853 16V14.092L50.1333 12.772V11.08H51.5973V16H50.0853Z" fill="#99A2AD"/>
<path d="M66.0708 16.12C65.4788 16.12 64.8988 16.036 64.3308 15.868C63.7708 15.692 63.2988 15.452 62.9148 15.148L63.5748 13.936C63.8788 14.184 64.2468 14.384 64.6788 14.536C65.1188 14.688 65.5748 14.764 66.0468 14.764C66.5988 14.764 67.0308 14.648 67.3428 14.416C67.6628 14.184 67.8228 13.872 67.8228 13.48C67.8228 13.216 67.7548 12.984 67.6188 12.784C67.4908 12.584 67.2588 12.432 66.9228 12.328C66.5948 12.224 66.1428 12.172 65.5668 12.172H63.5388L63.9708 7.6H68.9028V8.908H64.5468L65.3628 8.164L65.0388 11.584L64.2228 10.852H65.9148C66.7468 10.852 67.4148 10.964 67.9188 11.188C68.4308 11.404 68.8028 11.708 69.0348 12.1C69.2748 12.484 69.3948 12.924 69.3948 13.42C69.3948 13.908 69.2748 14.356 69.0348 14.764C68.7948 15.172 68.4268 15.5 67.9308 15.748C67.4428 15.996 66.8228 16.12 66.0708 16.12Z" fill="#99A2AD"/>
<path d="M83.6122 16.12C82.8522 16.12 82.2002 15.96 81.6562 15.64C81.1122 15.312 80.6962 14.84 80.4082 14.224C80.1202 13.608 79.9762 12.848 79.9762 11.944C79.9762 10.984 80.1482 10.172 80.4922 9.508C80.8442 8.844 81.3282 8.34 81.9442 7.996C82.5682 7.652 83.2842 7.48 84.0922 7.48C84.5162 7.48 84.9202 7.524 85.3042 7.612C85.6962 7.7 86.0282 7.836 86.3002 8.02L85.7242 9.196C85.4922 9.044 85.2402 8.94 84.9682 8.884C84.7042 8.82 84.4242 8.788 84.1282 8.788C83.3362 8.788 82.7082 9.032 82.2442 9.52C81.7802 10.008 81.5482 10.728 81.5482 11.68C81.5482 11.832 81.5522 12.012 81.5602 12.22C81.5682 12.42 81.5962 12.624 81.6442 12.832L81.1642 12.304C81.3082 11.976 81.5042 11.704 81.7522 11.488C82.0082 11.264 82.3082 11.096 82.6522 10.984C83.0042 10.872 83.3842 10.816 83.7922 10.816C84.3442 10.816 84.8362 10.924 85.2682 11.14C85.7002 11.348 86.0442 11.648 86.3002 12.04C86.5562 12.424 86.6842 12.876 86.6842 13.396C86.6842 13.948 86.5482 14.428 86.2762 14.836C86.0042 15.244 85.6362 15.56 85.1722 15.784C84.7082 16.008 84.1882 16.12 83.6122 16.12ZM83.5282 14.896C83.8482 14.896 84.1322 14.84 84.3802 14.728C84.6282 14.608 84.8202 14.44 84.9562 14.224C85.1002 14.008 85.1722 13.756 85.1722 13.468C85.1722 13.028 85.0202 12.68 84.7162 12.424C84.4122 12.168 84.0042 12.04 83.4922 12.04C83.1562 12.04 82.8602 12.104 82.6042 12.232C82.3562 12.352 82.1562 12.52 82.0042 12.736C81.8602 12.952 81.7882 13.2 81.7882 13.48C81.7882 13.736 81.8562 13.972 81.9922 14.188C82.1282 14.404 82.3242 14.576 82.5802 14.704C82.8442 14.832 83.1602 14.896 83.5282 14.896Z" fill="#99A2AD"/>
<path d="M98.0697 16L101.538 8.224L101.946 8.92H97.1817L97.9257 8.164V10.348H96.4737V7.6H103.002V8.644L99.7377 16H98.0697Z" fill="#99A2AD"/>
<path d="M116.727 16.12C116.031 16.12 115.427 16.016 114.915 15.808C114.403 15.6 114.007 15.308 113.727 14.932C113.447 14.548 113.307 14.1 113.307 13.588C113.307 13.076 113.443 12.644 113.715 12.292C113.987 11.94 114.379 11.672 114.891 11.488C115.403 11.304 116.015 11.212 116.727 11.212C117.439 11.212 118.051 11.304 118.563 11.488C119.083 11.672 119.479 11.944 119.751 12.304C120.031 12.656 120.171 13.084 120.171 13.588C120.171 14.1 120.027 14.548 119.739 14.932C119.459 15.308 119.059 15.6 118.539 15.808C118.027 16.016 117.423 16.12 116.727 16.12ZM116.727 14.896C117.303 14.896 117.759 14.776 118.095 14.536C118.431 14.296 118.599 13.964 118.599 13.54C118.599 13.124 118.431 12.796 118.095 12.556C117.759 12.316 117.303 12.196 116.727 12.196C116.151 12.196 115.699 12.316 115.371 12.556C115.043 12.796 114.879 13.124 114.879 13.54C114.879 13.964 115.043 14.296 115.371 14.536C115.699 14.776 116.151 14.896 116.727 14.896ZM116.727 12.028C116.079 12.028 115.523 11.944 115.059 11.776C114.595 11.6 114.235 11.348 113.979 11.02C113.731 10.684 113.607 10.284 113.607 9.82C113.607 9.34 113.735 8.928 113.991 8.584C114.255 8.232 114.623 7.96 115.095 7.768C115.567 7.576 116.111 7.48 116.727 7.48C117.351 7.48 117.899 7.576 118.371 7.768C118.843 7.96 119.211 8.232 119.475 8.584C119.739 8.928 119.871 9.34 119.871 9.82C119.871 10.284 119.743 10.684 119.487 11.02C119.239 11.348 118.879 11.6 118.407 11.776C117.935 11.944 117.375 12.028 116.727 12.028ZM116.727 11.068C117.223 11.068 117.615 10.964 117.903 10.756C118.191 10.54 118.335 10.252 118.335 9.892C118.335 9.516 118.187 9.224 117.891 9.016C117.595 8.808 117.207 8.704 116.727 8.704C116.247 8.704 115.863 8.808 115.575 9.016C115.287 9.224 115.143 9.516 115.143 9.892C115.143 10.252 115.283 10.54 115.563 10.756C115.851 10.964 116.239 11.068 116.727 11.068Z" fill="#99A2AD"/>
<path d="M132.878 7.48C133.646 7.48 134.298 7.644 134.834 7.972C135.378 8.292 135.794 8.76 136.082 9.376C136.37 9.992 136.514 10.752 136.514 11.656C136.514 12.616 136.338 13.428 135.986 14.092C135.642 14.756 135.162 15.26 134.546 15.604C133.93 15.948 133.214 16.12 132.398 16.12C131.974 16.12 131.57 16.076 131.186 15.988C130.802 15.9 130.47 15.764 130.19 15.58L130.766 14.404C130.998 14.556 131.25 14.664 131.522 14.728C131.794 14.784 132.074 14.812 132.362 14.812C133.154 14.812 133.782 14.568 134.246 14.08C134.71 13.592 134.942 12.872 134.942 11.92C134.942 11.768 134.938 11.592 134.93 11.392C134.922 11.184 134.894 10.976 134.846 10.768L135.326 11.296C135.19 11.624 134.994 11.9 134.738 12.124C134.482 12.34 134.182 12.504 133.838 12.616C133.494 12.728 133.114 12.784 132.698 12.784C132.154 12.784 131.662 12.68 131.222 12.472C130.79 12.256 130.446 11.956 130.19 11.572C129.934 11.18 129.806 10.724 129.806 10.204C129.806 9.644 129.942 9.164 130.214 8.764C130.486 8.356 130.854 8.04 131.318 7.816C131.79 7.592 132.31 7.48 132.878 7.48ZM132.962 8.704C132.642 8.704 132.358 8.764 132.11 8.884C131.862 8.996 131.666 9.16 131.522 9.376C131.386 9.584 131.318 9.836 131.318 10.132C131.318 10.572 131.47 10.92 131.774 11.176C132.078 11.432 132.486 11.56 132.998 11.56C133.334 11.56 133.63 11.5 133.886 11.38C134.142 11.252 134.342 11.08 134.486 10.864C134.63 10.64 134.702 10.392 134.702 10.12C134.702 9.856 134.634 9.62 134.498 9.412C134.362 9.196 134.166 9.024 133.91 8.896C133.654 8.768 133.338 8.704 132.962 8.704Z" fill="#99A2AD"/>
<path d="M148.079 16V8.2L148.763 8.908H146.303V7.6H149.639V16H148.079ZM154.809 16.12C154.145 16.12 153.545 15.952 153.009 15.616C152.481 15.28 152.065 14.792 151.761 14.152C151.457 13.504 151.305 12.72 151.305 11.8C151.305 10.88 151.457 10.1 151.761 9.46C152.065 8.812 152.481 8.32 153.009 7.984C153.545 7.648 154.145 7.48 154.809 7.48C155.481 7.48 156.081 7.648 156.609 7.984C157.137 8.32 157.553 8.812 157.857 9.46C158.169 10.1 158.325 10.88 158.325 11.8C158.325 12.72 158.169 13.504 157.857 14.152C157.553 14.792 157.137 15.28 156.609 15.616C156.081 15.952 155.481 16.12 154.809 16.12ZM154.809 14.764C155.201 14.764 155.541 14.66 155.829 14.452C156.117 14.236 156.341 13.908 156.501 13.468C156.669 13.028 156.753 12.472 156.753 11.8C156.753 11.12 156.669 10.564 156.501 10.132C156.341 9.692 156.117 9.368 155.829 9.16C155.541 8.944 155.201 8.836 154.809 8.836C154.433 8.836 154.097 8.944 153.801 9.16C153.513 9.368 153.285 9.692 153.117 10.132C152.957 10.564 152.877 11.12 152.877 11.8C152.877 12.472 152.957 13.028 153.117 13.468C153.285 13.908 153.513 14.236 153.801 14.452C154.097 14.66 154.433 14.764 154.809 14.764Z" fill="#99A2AD"/>
<path d="M169.768 16V8.2L170.452 8.908H167.992V7.6H171.328V16H169.768ZM174.339 16V8.2L175.023 8.908H172.563V7.6H175.899V16H174.339Z" fill="#99A2AD"/>
<path d="M188.458 16V8.2L189.142 8.908H186.682V7.6H190.018V16H188.458ZM191.576 16V14.956L194.912 11.788C195.192 11.524 195.4 11.292 195.536 11.092C195.672 10.892 195.76 10.708 195.8 10.54C195.848 10.364 195.872 10.2 195.872 10.048C195.872 9.664 195.74 9.368 195.476 9.16C195.212 8.944 194.824 8.836 194.312 8.836C193.904 8.836 193.532 8.908 193.196 9.052C192.868 9.196 192.584 9.416 192.344 9.712L191.252 8.872C191.58 8.432 192.02 8.092 192.572 7.852C193.132 7.604 193.756 7.48 194.444 7.48C195.052 7.48 195.58 7.58 196.028 7.78C196.484 7.972 196.832 8.248 197.072 8.608C197.32 8.968 197.444 9.396 197.444 9.892C197.444 10.164 197.408 10.436 197.336 10.708C197.264 10.972 197.128 11.252 196.928 11.548C196.728 11.844 196.436 12.176 196.052 12.544L193.184 15.268L192.86 14.68H197.768V16H191.576Z" fill="#99A2AD"/>
<path d="M209.147 16V8.2L209.831 8.908H207.371V7.6H210.707V16H209.147ZM215.014 16.12C214.422 16.12 213.842 16.036 213.274 15.868C212.714 15.692 212.242 15.452 211.858 15.148L212.53 13.936C212.834 14.184 213.202 14.384 213.634 14.536C214.066 14.688 214.518 14.764 214.99 14.764C215.55 14.764 215.986 14.652 216.298 14.428C216.61 14.196 216.766 13.884 216.766 13.492C216.766 13.108 216.622 12.804 216.334 12.58C216.046 12.356 215.582 12.244 214.942 12.244H214.174V11.176L216.574 8.32L216.778 8.908H212.266V7.6H217.99V8.644L215.59 11.5L214.774 11.02H215.242C216.274 11.02 217.046 11.252 217.558 11.716C218.078 12.172 218.338 12.76 218.338 13.48C218.338 13.952 218.218 14.388 217.978 14.788C217.738 15.188 217.37 15.512 216.874 15.76C216.386 16 215.766 16.12 215.014 16.12Z" fill="#99A2AD"/>
<path d="M229.838 16V8.2L230.522 8.908H228.062V7.6H231.398V16H229.838ZM232.944 14.092V13.012L237.084 7.6H238.752L234.672 13.012L233.892 12.772H240.552V14.092H232.944ZM237.552 16V14.092L237.6 12.772V11.08H239.064V16H237.552Z" fill="#99A2AD"/>
<path d="M251.527 16V8.2L252.211 8.908H249.751V7.6H253.087V16H251.527ZM257.538 16.12C256.946 16.12 256.366 16.036 255.798 15.868C255.238 15.692 254.766 15.452 254.382 15.148L255.042 13.936C255.346 14.184 255.714 14.384 256.146 14.536C256.586 14.688 257.042 14.764 257.514 14.764C258.066 14.764 258.498 14.648 258.81 14.416C259.13 14.184 259.29 13.872 259.29 13.48C259.29 13.216 259.222 12.984 259.086 12.784C258.958 12.584 258.726 12.432 258.39 12.328C258.062 12.224 257.61 12.172 257.034 12.172H255.006L255.438 7.6H260.37V8.908H256.014L256.83 8.164L256.506 11.584L255.69 10.852H257.382C258.214 10.852 258.882 10.964 259.386 11.188C259.898 11.404 260.27 11.708 260.502 12.1C260.742 12.484 260.862 12.924 260.862 13.42C260.862 13.908 260.742 14.356 260.502 14.764C260.262 15.172 259.894 15.5 259.398 15.748C258.91 15.996 258.29 16.12 257.538 16.12Z" fill="#99A2AD"/>
<path d="M272.217 16V8.2L272.901 8.908H270.441V7.6H273.777V16H272.217ZM279.079 16.12C278.319 16.12 277.667 15.96 277.123 15.64C276.579 15.312 276.163 14.84 275.875 14.224C275.587 13.608 275.443 12.848 275.443 11.944C275.443 10.984 275.615 10.172 275.959 9.508C276.311 8.844 276.795 8.34 277.411 7.996C278.035 7.652 278.751 7.48 279.559 7.48C279.983 7.48 280.387 7.524 280.771 7.612C281.163 7.7 281.495 7.836 281.767 8.02L281.191 9.196C280.959 9.044 280.707 8.94 280.435 8.884C280.171 8.82 279.891 8.788 279.595 8.788C278.803 8.788 278.175 9.032 277.711 9.52C277.247 10.008 277.015 10.728 277.015 11.68C277.015 11.832 277.019 12.012 277.027 12.22C277.035 12.42 277.063 12.624 277.111 12.832L276.631 12.304C276.775 11.976 276.971 11.704 277.219 11.488C277.475 11.264 277.775 11.096 278.119 10.984C278.471 10.872 278.851 10.816 279.259 10.816C279.811 10.816 280.303 10.924 280.735 11.14C281.167 11.348 281.511 11.648 281.767 12.04C282.023 12.424 282.151 12.876 282.151 13.396C282.151 13.948 282.015 14.428 281.743 14.836C281.471 15.244 281.103 15.56 280.639 15.784C280.175 16.008 279.655 16.12 279.079 16.12ZM278.995 14.896C279.315 14.896 279.599 14.84 279.847 14.728C280.095 14.608 280.287 14.44 280.423 14.224C280.567 14.008 280.639 13.756 280.639 13.468C280.639 13.028 280.487 12.68 280.183 12.424C279.879 12.168 279.471 12.04 278.959 12.04C278.623 12.04 278.327 12.104 278.071 12.232C277.823 12.352 277.623 12.52 277.471 12.736C277.327 12.952 277.255 13.2 277.255 13.48C277.255 13.736 277.323 13.972 277.459 14.188C277.595 14.404 277.791 14.576 278.047 14.704C278.311 14.832 278.627 14.896 278.995 14.896Z" fill="#99A2AD"/>
<path d="M293.906 16V8.2L294.59 8.908H292.13V7.6H295.466V16H293.906ZM298.536 16L302.004 8.224L302.412 8.92H297.648L298.392 8.164V10.348H296.94V7.6H303.468V8.644L300.204 16H298.536Z" fill="#99A2AD"/>
<path d="M314.597 16V8.2L315.281 8.908H312.821V7.6H316.157V16H314.597ZM321.195 16.12C320.499 16.12 319.895 16.016 319.383 15.808C318.871 15.6 318.475 15.308 318.195 14.932C317.915 14.548 317.775 14.1 317.775 13.588C317.775 13.076 317.911 12.644 318.183 12.292C318.455 11.94 318.847 11.672 319.359 11.488C319.871 11.304 320.483 11.212 321.195 11.212C321.907 11.212 322.519 11.304 323.031 11.488C323.551 11.672 323.947 11.944 324.219 12.304C324.499 12.656 324.639 13.084 324.639 13.588C324.639 14.1 324.495 14.548 324.207 14.932C323.927 15.308 323.527 15.6 323.007 15.808C322.495 16.016 321.891 16.12 321.195 16.12ZM321.195 14.896C321.771 14.896 322.227 14.776 322.563 14.536C322.899 14.296 323.067 13.964 323.067 13.54C323.067 13.124 322.899 12.796 322.563 12.556C322.227 12.316 321.771 12.196 321.195 12.196C320.619 12.196 320.167 12.316 319.839 12.556C319.511 12.796 319.347 13.124 319.347 13.54C319.347 13.964 319.511 14.296 319.839 14.536C320.167 14.776 320.619 14.896 321.195 14.896ZM321.195 12.028C320.547 12.028 319.991 11.944 319.527 11.776C319.063 11.6 318.703 11.348 318.447 11.02C318.199 10.684 318.075 10.284 318.075 9.82C318.075 9.34 318.203 8.928 318.459 8.584C318.723 8.232 319.091 7.96 319.563 7.768C320.035 7.576 320.579 7.48 321.195 7.48C321.819 7.48 322.367 7.576 322.839 7.768C323.311 7.96 323.679 8.232 323.943 8.584C324.207 8.928 324.339 9.34 324.339 9.82C324.339 10.284 324.211 10.684 323.955 11.02C323.707 11.348 323.347 11.6 322.875 11.776C322.403 11.944 321.843 12.028 321.195 12.028ZM321.195 11.068C321.691 11.068 322.083 10.964 322.371 10.756C322.659 10.54 322.803 10.252 322.803 9.892C322.803 9.516 322.655 9.224 322.359 9.016C322.063 8.808 321.675 8.704 321.195 8.704C320.715 8.704 320.331 8.808 320.043 9.016C319.755 9.224 319.611 9.516 319.611 9.892C319.611 10.252 319.751 10.54 320.031 10.756C320.319 10.964 320.707 11.068 321.195 11.068Z" fill="#99A2AD"/>
<path d="M336.286 16V8.2L336.97 8.908H334.51V7.6H337.846V16H336.286ZM342.344 7.48C343.112 7.48 343.764 7.644 344.3 7.972C344.844 8.292 345.26 8.76 345.548 9.376C345.836 9.992 345.98 10.752 345.98 11.656C345.98 12.616 345.804 13.428 345.452 14.092C345.108 14.756 344.628 15.26 344.012 15.604C343.396 15.948 342.68 16.12 341.864 16.12C341.44 16.12 341.036 16.076 340.652 15.988C340.268 15.9 339.936 15.764 339.656 15.58L340.232 14.404C340.464 14.556 340.716 14.664 340.988 14.728C341.26 14.784 341.54 14.812 341.828 14.812C342.62 14.812 343.248 14.568 343.712 14.08C344.176 13.592 344.408 12.872 344.408 11.92C344.408 11.768 344.404 11.592 344.396 11.392C344.388 11.184 344.36 10.976 344.312 10.768L344.792 11.296C344.656 11.624 344.46 11.9 344.204 12.124C343.948 12.34 343.648 12.504 343.304 12.616C342.96 12.728 342.58 12.784 342.164 12.784C341.62 12.784 341.128 12.68 340.688 12.472C340.256 12.256 339.912 11.956 339.656 11.572C339.4 11.18 339.272 10.724 339.272 10.204C339.272 9.644 339.408 9.164 339.68 8.764C339.952 8.356 340.32 8.04 340.784 7.816C341.256 7.592 341.776 7.48 342.344 7.48ZM342.428 8.704C342.108 8.704 341.824 8.764 341.576 8.884C341.328 8.996 341.132 9.16 340.988 9.376C340.852 9.584 340.784 9.836 340.784 10.132C340.784 10.572 340.936 10.92 341.24 11.176C341.544 11.432 341.952 11.56 342.464 11.56C342.8 11.56 343.096 11.5 343.352 11.38C343.608 11.252 343.808 11.08 343.952 10.864C344.096 10.64 344.168 10.392 344.168 10.12C344.168 9.856 344.1 9.62 343.964 9.412C343.828 9.196 343.632 9.024 343.376 8.896C343.12 8.768 342.804 8.704 342.428 8.704Z" fill="#99A2AD"/>
<path d="M356.524 16V14.956L359.86 11.788C360.14 11.524 360.348 11.292 360.484 11.092C360.62 10.892 360.708 10.708 360.748 10.54C360.796 10.364 360.82 10.2 360.82 10.048C360.82 9.664 360.688 9.368 360.424 9.16C360.16 8.944 359.772 8.836 359.26 8.836C358.852 8.836 358.48 8.908 358.144 9.052C357.816 9.196 357.532 9.416 357.292 9.712L356.2 8.872C356.528 8.432 356.968 8.092 357.52 7.852C358.08 7.604 358.704 7.48 359.392 7.48C360 7.48 360.528 7.58 360.976 7.78C361.432 7.972 361.78 8.248 362.02 8.608C362.268 8.968 362.392 9.396 362.392 9.892C362.392 10.164 362.356 10.436 362.284 10.708C362.212 10.972 362.076 11.252 361.876 11.548C361.676 11.844 361.384 12.176 361 12.544L358.132 15.268L357.808 14.68H362.716V16H356.524ZM367.12 16.12C366.456 16.12 365.856 15.952 365.32 15.616C364.792 15.28 364.376 14.792 364.072 14.152C363.768 13.504 363.616 12.72 363.616 11.8C363.616 10.88 363.768 10.1 364.072 9.46C364.376 8.812 364.792 8.32 365.32 7.984C365.856 7.648 366.456 7.48 367.12 7.48C367.792 7.48 368.392 7.648 368.92 7.984C369.448 8.32 369.864 8.812 370.168 9.46C370.48 10.1 370.636 10.88 370.636 11.8C370.636 12.72 370.48 13.504 370.168 14.152C369.864 14.792 369.448 15.28 368.92 15.616C368.392 15.952 367.792 16.12 367.12 16.12ZM367.12 14.764C367.512 14.764 367.852 14.66 368.14 14.452C368.428 14.236 368.652 13.908 368.812 13.468C368.98 13.028 369.064 12.472 369.064 11.8C369.064 11.12 368.98 10.564 368.812 10.132C368.652 9.692 368.428 9.368 368.14 9.16C367.852 8.944 367.512 8.836 367.12 8.836C366.744 8.836 366.408 8.944 366.112 9.16C365.824 9.368 365.596 9.692 365.428 10.132C365.268 10.564 365.188 11.12 365.188 11.8C365.188 12.472 365.268 13.028 365.428 13.468C365.596 13.908 365.824 14.236 366.112 14.452C366.408 14.66 366.744 14.764 367.12 14.764Z" fill="#99A2AD"/>
<path d="M381.213 16V14.956L384.549 11.788C384.829 11.524 385.037 11.292 385.173 11.092C385.309 10.892 385.397 10.708 385.437 10.54C385.485 10.364 385.509 10.2 385.509 10.048C385.509 9.664 385.377 9.368 385.113 9.16C384.849 8.944 384.461 8.836 383.949 8.836C383.541 8.836 383.169 8.908 382.833 9.052C382.505 9.196 382.221 9.416 381.981 9.712L380.889 8.872C381.217 8.432 381.657 8.092 382.209 7.852C382.769 7.604 383.393 7.48 384.081 7.48C384.689 7.48 385.217 7.58 385.665 7.78C386.121 7.972 386.469 8.248 386.709 8.608C386.957 8.968 387.081 9.396 387.081 9.892C387.081 10.164 387.045 10.436 386.973 10.708C386.901 10.972 386.765 11.252 386.565 11.548C386.365 11.844 386.073 12.176 385.689 12.544L382.821 15.268L382.497 14.68H387.405V16H381.213ZM389.649 16V8.2L390.333 8.908H387.873V7.6H391.209V16H389.649Z" fill="#99A2AD"/>
<path d="M401.902 16V14.956L405.238 11.788C405.518 11.524 405.726 11.292 405.862 11.092C405.998 10.892 406.086 10.708 406.126 10.54C406.174 10.364 406.198 10.2 406.198 10.048C406.198 9.664 406.066 9.368 405.802 9.16C405.538 8.944 405.15 8.836 404.638 8.836C404.23 8.836 403.858 8.908 403.522 9.052C403.194 9.196 402.91 9.416 402.67 9.712L401.578 8.872C401.906 8.432 402.346 8.092 402.898 7.852C403.458 7.604 404.082 7.48 404.77 7.48C405.378 7.48 405.906 7.58 406.354 7.78C406.81 7.972 407.158 8.248 407.398 8.608C407.646 8.968 407.77 9.396 407.77 9.892C407.77 10.164 407.734 10.436 407.662 10.708C407.59 10.972 407.454 11.252 407.254 11.548C407.054 11.844 406.762 12.176 406.378 12.544L403.51 15.268L403.186 14.68H408.094V16H401.902ZM408.887 16V14.956L412.223 11.788C412.503 11.524 412.711 11.292 412.847 11.092C412.983 10.892 413.071 10.708 413.111 10.54C413.159 10.364 413.183 10.2 413.183 10.048C413.183 9.664 413.051 9.368 412.787 9.16C412.523 8.944 412.135 8.836 411.623 8.836C411.215 8.836 410.843 8.908 410.507 9.052C410.179 9.196 409.895 9.416 409.655 9.712L408.563 8.872C408.891 8.432 409.331 8.092 409.883 7.852C410.443 7.604 411.067 7.48 411.755 7.48C412.363 7.48 412.891 7.58 413.339 7.78C413.795 7.972 414.143 8.248 414.383 8.608C414.631 8.968 414.755 9.396 414.755 9.892C414.755 10.164 414.719 10.436 414.647 10.708C414.575 10.972 414.439 11.252 414.239 11.548C414.039 11.844 413.747 12.176 413.363 12.544L410.495 15.268L410.171 14.68H415.079V16H408.887Z" fill="#99A2AD"/>
<path d="M424.593 16V14.956L427.929 11.788C428.209 11.524 428.417 11.292 428.553 11.092C428.689 10.892 428.777 10.708 428.817 10.54C428.865 10.364 428.889 10.2 428.889 10.048C428.889 9.664 428.757 9.368 428.493 9.16C428.229 8.944 427.841 8.836 427.329 8.836C426.921 8.836 426.549 8.908 426.213 9.052C425.885 9.196 425.601 9.416 425.361 9.712L424.269 8.872C424.597 8.432 425.037 8.092 425.589 7.852C426.149 7.604 426.773 7.48 427.461 7.48C428.069 7.48 428.597 7.58 429.045 7.78C429.501 7.972 429.849 8.248 430.089 8.608C430.337 8.968 430.461 9.396 430.461 9.892C430.461 10.164 430.425 10.436 430.353 10.708C430.281 10.972 430.145 11.252 429.945 11.548C429.745 11.844 429.453 12.176 429.069 12.544L426.201 15.268L425.877 14.68H430.785V16H424.593ZM434.325 16.12C433.733 16.12 433.153 16.036 432.585 15.868C432.025 15.692 431.553 15.452 431.169 15.148L431.841 13.936C432.145 14.184 432.513 14.384 432.945 14.536C433.377 14.688 433.829 14.764 434.301 14.764C434.861 14.764 435.297 14.652 435.609 14.428C435.921 14.196 436.077 13.884 436.077 13.492C436.077 13.108 435.933 12.804 435.645 12.58C435.357 12.356 434.893 12.244 434.253 12.244H433.485V11.176L435.885 8.32L436.089 8.908H431.577V7.6H437.301V8.644L434.901 11.5L434.085 11.02H434.553C435.585 11.02 436.357 11.252 436.869 11.716C437.389 12.172 437.649 12.76 437.649 13.48C437.649 13.952 437.529 14.388 437.289 14.788C437.049 15.188 436.681 15.512 436.185 15.76C435.697 16 435.077 16.12 434.325 16.12Z" fill="#99A2AD"/>
<path d="M447.282 16V14.956L450.618 11.788C450.898 11.524 451.106 11.292 451.242 11.092C451.378 10.892 451.466 10.708 451.506 10.54C451.554 10.364 451.578 10.2 451.578 10.048C451.578 9.664 451.446 9.368 451.182 9.16C450.918 8.944 450.53 8.836 450.018 8.836C449.61 8.836 449.238 8.908 448.902 9.052C448.574 9.196 448.29 9.416 448.05 9.712L446.958 8.872C447.286 8.432 447.726 8.092 448.278 7.852C448.838 7.604 449.462 7.48 450.15 7.48C450.758 7.48 451.286 7.58 451.734 7.78C452.19 7.972 452.538 8.248 452.778 8.608C453.026 8.968 453.15 9.396 453.15 9.892C453.15 10.164 453.114 10.436 453.042 10.708C452.97 10.972 452.834 11.252 452.634 11.548C452.434 11.844 452.142 12.176 451.758 12.544L448.89 15.268L448.566 14.68H453.474V16H447.282ZM454.079 14.092V13.012L458.219 7.6H459.887L455.807 13.012L455.027 12.772H461.687V14.092H454.079ZM458.687 16V14.092L458.735 12.772V11.08H460.199V16H458.687Z" fill="#99A2AD"/>
<path d="M470.972 16V14.956L474.308 11.788C474.588 11.524 474.796 11.292 474.932 11.092C475.068 10.892 475.156 10.708 475.196 10.54C475.244 10.364 475.268 10.2 475.268 10.048C475.268 9.664 475.136 9.368 474.872 9.16C474.608 8.944 474.22 8.836 473.708 8.836C473.3 8.836 472.928 8.908 472.592 9.052C472.264 9.196 471.98 9.416 471.74 9.712L470.648 8.872C470.976 8.432 471.416 8.092 471.968 7.852C472.528 7.604 473.152 7.48 473.84 7.48C474.448 7.48 474.976 7.58 475.424 7.78C475.88 7.972 476.228 8.248 476.468 8.608C476.716 8.968 476.84 9.396 476.84 9.892C476.84 10.164 476.804 10.436 476.732 10.708C476.66 10.972 476.524 11.252 476.324 11.548C476.124 11.844 475.832 12.176 475.448 12.544L472.58 15.268L472.256 14.68H477.164V16H470.972ZM480.848 16.12C480.256 16.12 479.676 16.036 479.108 15.868C478.548 15.692 478.076 15.452 477.692 15.148L478.352 13.936C478.656 14.184 479.024 14.384 479.456 14.536C479.896 14.688 480.352 14.764 480.824 14.764C481.376 14.764 481.808 14.648 482.12 14.416C482.44 14.184 482.6 13.872 482.6 13.48C482.6 13.216 482.532 12.984 482.396 12.784C482.268 12.584 482.036 12.432 481.7 12.328C481.372 12.224 480.92 12.172 480.344 12.172H478.316L478.748 7.6H483.68V8.908H479.324L480.14 8.164L479.816 11.584L479 10.852H480.692C481.524 10.852 482.192 10.964 482.696 11.188C483.208 11.404 483.58 11.708 483.812 12.1C484.052 12.484 484.172 12.924 484.172 13.42C484.172 13.908 484.052 14.356 483.812 14.764C483.572 15.172 483.204 15.5 482.708 15.748C482.22 15.996 481.6 16.12 480.848 16.12Z" fill="#99A2AD"/>
<path d="M493.661 16V14.956L496.997 11.788C497.277 11.524 497.485 11.292 497.621 11.092C497.757 10.892 497.845 10.708 497.885 10.54C497.933 10.364 497.957 10.2 497.957 10.048C497.957 9.664 497.825 9.368 497.561 9.16C497.297 8.944 496.909 8.836 496.397 8.836C495.989 8.836 495.617 8.908 495.281 9.052C494.953 9.196 494.669 9.416 494.429 9.712L493.337 8.872C493.665 8.432 494.105 8.092 494.657 7.852C495.217 7.604 495.841 7.48 496.529 7.48C497.137 7.48 497.665 7.58 498.113 7.78C498.569 7.972 498.917 8.248 499.157 8.608C499.405 8.968 499.529 9.396 499.529 9.892C499.529 10.164 499.493 10.436 499.421 10.708C499.349 10.972 499.213 11.252 499.013 11.548C498.813 11.844 498.521 12.176 498.137 12.544L495.269 15.268L494.945 14.68H499.853V16H493.661ZM504.39 16.12C503.63 16.12 502.978 15.96 502.434 15.64C501.89 15.312 501.474 14.84 501.186 14.224C500.898 13.608 500.754 12.848 500.754 11.944C500.754 10.984 500.926 10.172 501.27 9.508C501.622 8.844 502.106 8.34 502.722 7.996C503.346 7.652 504.062 7.48 504.87 7.48C505.294 7.48 505.698 7.524 506.082 7.612C506.474 7.7 506.806 7.836 507.078 8.02L506.502 9.196C506.27 9.044 506.018 8.94 505.746 8.884C505.482 8.82 505.202 8.788 504.906 8.788C504.114 8.788 503.486 9.032 503.022 9.52C502.558 10.008 502.326 10.728 502.326 11.68C502.326 11.832 502.33 12.012 502.338 12.22C502.346 12.42 502.374 12.624 502.422 12.832L501.942 12.304C502.086 11.976 502.282 11.704 502.53 11.488C502.786 11.264 503.086 11.096 503.43 10.984C503.782 10.872 504.162 10.816 504.57 10.816C505.122 10.816 505.614 10.924 506.046 11.14C506.478 11.348 506.822 11.648 507.078 12.04C507.334 12.424 507.462 12.876 507.462 13.396C507.462 13.948 507.326 14.428 507.054 14.836C506.782 15.244 506.414 15.56 505.95 15.784C505.486 16.008 504.966 16.12 504.39 16.12ZM504.306 14.896C504.626 14.896 504.91 14.84 505.158 14.728C505.406 14.608 505.598 14.44 505.734 14.224C505.878 14.008 505.95 13.756 505.95 13.468C505.95 13.028 505.798 12.68 505.494 12.424C505.19 12.168 504.782 12.04 504.27 12.04C503.934 12.04 503.638 12.104 503.382 12.232C503.134 12.352 502.934 12.52 502.782 12.736C502.638 12.952 502.566 13.2 502.566 13.48C502.566 13.736 502.634 13.972 502.77 14.188C502.906 14.404 503.102 14.576 503.358 14.704C503.622 14.832 503.938 14.896 504.306 14.896Z" fill="#99A2AD"/>
<path d="M517.351 16V14.956L520.687 11.788C520.967 11.524 521.175 11.292 521.311 11.092C521.447 10.892 521.535 10.708 521.575 10.54C521.623 10.364 521.647 10.2 521.647 10.048C521.647 9.664 521.515 9.368 521.251 9.16C520.987 8.944 520.599 8.836 520.087 8.836C519.679 8.836 519.307 8.908 518.971 9.052C518.643 9.196 518.359 9.416 518.119 9.712L517.027 8.872C517.355 8.432 517.795 8.092 518.347 7.852C518.907 7.604 519.531 7.48 520.219 7.48C520.827 7.48 521.355 7.58 521.803 7.78C522.259 7.972 522.607 8.248 522.847 8.608C523.095 8.968 523.219 9.396 523.219 9.892C523.219 10.164 523.183 10.436 523.111 10.708C523.039 10.972 522.903 11.252 522.703 11.548C522.503 11.844 522.211 12.176 521.827 12.544L518.959 15.268L518.635 14.68H523.543V16H517.351ZM525.847 16L529.315 8.224L529.723 8.92H524.959L525.703 8.164V10.348H524.251V7.6H530.779V8.644L527.515 16H525.847Z" fill="#99A2AD"/>
<path d="M541.041 16V14.956L544.377 11.788C544.657 11.524 544.865 11.292 545.001 11.092C545.137 10.892 545.225 10.708 545.265 10.54C545.313 10.364 545.337 10.2 545.337 10.048C545.337 9.664 545.205 9.368 544.941 9.16C544.677 8.944 544.289 8.836 543.777 8.836C543.369 8.836 542.997 8.908 542.661 9.052C542.333 9.196 542.049 9.416 541.809 9.712L540.717 8.872C541.045 8.432 541.485 8.092 542.037 7.852C542.597 7.604 543.221 7.48 543.909 7.48C544.517 7.48 545.045 7.58 545.493 7.78C545.949 7.972 546.297 8.248 546.537 8.608C546.785 8.968 546.909 9.396 546.909 9.892C546.909 10.164 546.873 10.436 546.801 10.708C546.729 10.972 546.593 11.252 546.393 11.548C546.193 11.844 545.901 12.176 545.517 12.544L542.649 15.268L542.325 14.68H547.233V16H541.041ZM551.505 16.12C550.809 16.12 550.205 16.016 549.693 15.808C549.181 15.6 548.785 15.308 548.505 14.932C548.225 14.548 548.085 14.1 548.085 13.588C548.085 13.076 548.221 12.644 548.493 12.292C548.765 11.94 549.157 11.672 549.669 11.488C550.181 11.304 550.793 11.212 551.505 11.212C552.217 11.212 552.829 11.304 553.341 11.488C553.861 11.672 554.257 11.944 554.529 12.304C554.809 12.656 554.949 13.084 554.949 13.588C554.949 14.1 554.805 14.548 554.517 14.932C554.237 15.308 553.837 15.6 553.317 15.808C552.805 16.016 552.201 16.12 551.505 16.12ZM551.505 14.896C552.081 14.896 552.537 14.776 552.873 14.536C553.209 14.296 553.377 13.964 553.377 13.54C553.377 13.124 553.209 12.796 552.873 12.556C552.537 12.316 552.081 12.196 551.505 12.196C550.929 12.196 550.477 12.316 550.149 12.556C549.821 12.796 549.657 13.124 549.657 13.54C549.657 13.964 549.821 14.296 550.149 14.536C550.477 14.776 550.929 14.896 551.505 14.896ZM551.505 12.028C550.857 12.028 550.301 11.944 549.837 11.776C549.373 11.6 549.013 11.348 548.757 11.02C548.509 10.684 548.385 10.284 548.385 9.82C548.385 9.34 548.513 8.928 548.769 8.584C549.033 8.232 549.401 7.96 549.873 7.768C550.345 7.576 550.889 7.48 551.505 7.48C552.129 7.48 552.677 7.576 553.149 7.768C553.621 7.96 553.989 8.232 554.253 8.584C554.517 8.928 554.649 9.34 554.649 9.82C554.649 10.284 554.521 10.684 554.265 11.02C554.017 11.348 553.657 11.6 553.185 11.776C552.713 11.944 552.153 12.028 551.505 12.028ZM551.505 11.068C552.001 11.068 552.393 10.964 552.681 10.756C552.969 10.54 553.113 10.252 553.113 9.892C553.113 9.516 552.965 9.224 552.669 9.016C552.373 8.808 551.985 8.704 551.505 8.704C551.025 8.704 550.641 8.808 550.353 9.016C550.065 9.224 549.921 9.516 549.921 9.892C549.921 10.252 550.061 10.54 550.341 10.756C550.629 10.964 551.017 11.068 551.505 11.068Z" fill="#99A2AD"/>
<path d="M564.731 16V14.956L568.067 11.788C568.347 11.524 568.555 11.292 568.691 11.092C568.827 10.892 568.915 10.708 568.955 10.54C569.003 10.364 569.027 10.2 569.027 10.048C569.027 9.664 568.895 9.368 568.631 9.16C568.367 8.944 567.979 8.836 567.467 8.836C567.059 8.836 566.687 8.908 566.351 9.052C566.023 9.196 565.739 9.416 565.499 9.712L564.407 8.872C564.735 8.432 565.175 8.092 565.727 7.852C566.287 7.604 566.911 7.48 567.599 7.48C568.207 7.48 568.735 7.58 569.183 7.78C569.639 7.972 569.987 8.248 570.227 8.608C570.475 8.968 570.599 9.396 570.599 9.892C570.599 10.164 570.563 10.436 570.491 10.708C570.419 10.972 570.283 11.252 570.083 11.548C569.883 11.844 569.591 12.176 569.207 12.544L566.339 15.268L566.015 14.68H570.923V16H564.731ZM574.655 7.48C575.423 7.48 576.075 7.644 576.611 7.972C577.155 8.292 577.571 8.76 577.859 9.376C578.147 9.992 578.291 10.752 578.291 11.656C578.291 12.616 578.115 13.428 577.763 14.092C577.419 14.756 576.939 15.26 576.323 15.604C575.707 15.948 574.991 16.12 574.175 16.12C573.751 16.12 573.347 16.076 572.963 15.988C572.579 15.9 572.247 15.764 571.967 15.58L572.543 14.404C572.775 14.556 573.027 14.664 573.299 14.728C573.571 14.784 573.851 14.812 574.139 14.812C574.931 14.812 575.559 14.568 576.023 14.08C576.487 13.592 576.719 12.872 576.719 11.92C576.719 11.768 576.715 11.592 576.707 11.392C576.699 11.184 576.671 10.976 576.623 10.768L577.103 11.296C576.967 11.624 576.771 11.9 576.515 12.124C576.259 12.34 575.959 12.504 575.615 12.616C575.271 12.728 574.891 12.784 574.475 12.784C573.931 12.784 573.439 12.68 572.999 12.472C572.567 12.256 572.223 11.956 571.967 11.572C571.711 11.18 571.583 10.724 571.583 10.204C571.583 9.644 571.719 9.164 571.991 8.764C572.263 8.356 572.631 8.04 573.095 7.816C573.567 7.592 574.087 7.48 574.655 7.48ZM574.739 8.704C574.419 8.704 574.135 8.764 573.887 8.884C573.639 8.996 573.443 9.16 573.299 9.376C573.163 9.584 573.095 9.836 573.095 10.132C573.095 10.572 573.247 10.92 573.551 11.176C573.855 11.432 574.263 11.56 574.775 11.56C575.111 11.56 575.407 11.5 575.663 11.38C575.919 11.252 576.119 11.08 576.263 10.864C576.407 10.64 576.479 10.392 576.479 10.12C576.479 9.856 576.411 9.62 576.275 9.412C576.139 9.196 575.943 9.024 575.687 8.896C575.431 8.768 575.115 8.704 574.739 8.704Z" fill="#99A2AD"/>
<path d="M591.168 16.12C590.576 16.12 589.996 16.036 589.428 15.868C588.868 15.692 588.396 15.452 588.012 15.148L588.684 13.936C588.988 14.184 589.356 14.384 589.788 14.536C590.22 14.688 590.672 14.764 591.144 14.764C591.704 14.764 592.14 14.652 592.452 14.428C592.764 14.196 592.92 13.884 592.92 13.492C592.92 13.108 592.776 12.804 592.488 12.58C592.2 12.356 591.736 12.244 591.096 12.244H590.328V11.176L592.728 8.32L592.932 8.908H588.42V7.6H594.144V8.644L591.744 11.5L590.928 11.02H591.396C592.428 11.02 593.2 11.252 593.712 11.716C594.232 12.172 594.492 12.76 594.492 13.48C594.492 13.952 594.372 14.388 594.132 14.788C593.892 15.188 593.524 15.512 593.028 15.76C592.54 16 591.92 16.12 591.168 16.12ZM599.016 16.12C598.352 16.12 597.752 15.952 597.216 15.616C596.688 15.28 596.272 14.792 595.968 14.152C595.664 13.504 595.512 12.72 595.512 11.8C595.512 10.88 595.664 10.1 595.968 9.46C596.272 8.812 596.688 8.32 597.216 7.984C597.752 7.648 598.352 7.48 599.016 7.48C599.688 7.48 600.288 7.648 600.816 7.984C601.344 8.32 601.76 8.812 602.064 9.46C602.376 10.1 602.532 10.88 602.532 11.8C602.532 12.72 602.376 13.504 602.064 14.152C601.76 14.792 601.344 15.28 600.816 15.616C600.288 15.952 599.688 16.12 599.016 16.12ZM599.016 14.764C599.408 14.764 599.748 14.66 600.036 14.452C600.324 14.236 600.548 13.908 600.708 13.468C600.876 13.028 600.96 12.472 600.96 11.8C600.96 11.12 600.876 10.564 600.708 10.132C600.548 9.692 600.324 9.368 600.036 9.16C599.748 8.944 599.408 8.836 599.016 8.836C598.64 8.836 598.304 8.944 598.008 9.16C597.72 9.368 597.492 9.692 597.324 10.132C597.164 10.564 597.084 11.12 597.084 11.8C597.084 12.472 597.164 13.028 597.324 13.468C597.492 13.908 597.72 14.236 598.008 14.452C598.304 14.66 598.64 14.764 599.016 14.764Z" fill="#99A2AD"/>
</svg>
