<svg width="20" height="16" viewBox="0 0 20 16" fill="none" xmlns="http://www.w3.org/2000/svg">
<path fill-rule="evenodd" clip-rule="evenodd" d="M0.435974 2.18404C0 3.03969 0 4.15979 0 6.4V9.6C0 11.8402 0 12.9603 0.435974 13.816C0.819467 14.5686 1.43139 15.1805 2.18404 15.564C3.03969 16 4.15979 16 6.4 16H13.6C15.8402 16 16.9603 16 17.816 15.564C18.5686 15.1805 19.1805 14.5686 19.564 13.816C20 12.9603 20 11.8402 20 9.6V6.4C20 4.15979 20 3.03969 19.564 2.18404C19.1805 1.43139 18.5686 0.819467 17.816 0.435974C16.9603 0 15.8402 0 13.6 0H6.4C4.15979 0 3.03969 0 2.18404 0.435974C1.43139 0.819467 0.819467 1.43139 0.435974 2.18404ZM12.5163 8.50282C12.8945 8.27714 12.8945 7.72286 12.5163 7.49717L8.46811 5.0816C8.0842 4.85252 7.59998 5.13298 7.59998 5.58442V10.4156C7.59998 10.867 8.0842 11.1475 8.46811 10.9184L12.5163 8.50282ZM2 3.5C2 3.22386 2.22386 3 2.5 3H3.5C3.77614 3 4 3.22386 4 3.5V4.5C4 4.77614 3.77614 5 3.5 5H2.5C2.22386 5 2 4.77614 2 4.5V3.5ZM16.5 3C16.2239 3 16 3.22386 16 3.5V4.5C16 4.77614 16.2239 5 16.5 5H17.5C17.7761 5 18 4.77614 18 4.5V3.5C18 3.22386 17.7761 3 17.5 3H16.5ZM2 7.5C2 7.22386 2.22386 7 2.5 7H3.5C3.77614 7 4 7.22386 4 7.5V8.5C4 8.77614 3.77614 9 3.5 9H2.5C2.22386 9 2 8.77614 2 8.5V7.5ZM16.5 7C16.2239 7 16 7.22386 16 7.5V8.5C16 8.77614 16.2239 9 16.5 9H17.5C17.7761 9 18 8.77614 18 8.5V7.5C18 7.22386 17.7761 7 17.5 7H16.5ZM2 11.5C2 11.2239 2.22386 11 2.5 11H3.5C3.77614 11 4 11.2239 4 11.5V12.5C4 12.7761 3.77614 13 3.5 13H2.5C2.22386 13 2 12.7761 2 12.5V11.5ZM16.5 11C16.2239 11 16 11.2239 16 11.5V12.5C16 12.7761 16.2239 13 16.5 13H17.5C17.7761 13 18 12.7761 18 12.5V11.5C18 11.2239 17.7761 11 17.5 11H16.5Z" fill="white"/>
</svg>
