<svg width="25" height="24" viewBox="0 0 25 24" fill="none" xmlns="http://www.w3.org/2000/svg">
<g clip-path="url(#clip0_1424_63890)">
<path d="M12.4004 0C5.78359 0 0.400391 5.3832 0.400391 12C0.400391 18.6168 5.78359 24 12.4004 24C19.0172 24 24.4004 18.6168 24.4004 12C24.4004 5.3832 19.0172 0 12.4004 0ZM12.4004 22.3824C6.67639 22.3824 2.01799 17.724 2.01799 12C2.01799 6.276 6.67639 1.6176 12.4004 1.6176C18.1244 1.6176 22.7828 6.276 22.7828 12C22.7828 17.724 18.1244 22.3824 12.4004 22.3824ZM15.8132 15.672C13.9004 17.3304 10.9004 17.3304 8.98759 15.672C8.64919 15.3792 8.13799 15.4152 7.84519 15.7536C7.55479 16.0896 7.59079 16.6008 7.92679 16.8936C9.20359 18 10.802 18.552 12.4004 18.552C13.9988 18.552 15.5972 18 16.874 16.8936C17.21 16.6008 17.246 16.0896 16.9556 15.7536C16.6652 15.4176 16.1516 15.3792 15.8132 15.672ZM11.1476 9.3936C11.1476 10.0416 10.622 10.5672 9.97399 10.5672C9.32599 10.5672 8.79799 10.0416 8.79799 9.3936C8.79799 8.7456 9.32599 8.22 9.97399 8.22C10.622 8.22 11.1476 8.7456 11.1476 9.3936ZM15.4028 8.3712C15.9692 8.688 16.1684 9.4056 15.8492 9.9696C15.53 10.5336 14.8172 10.7352 14.2508 10.4184C13.6868 10.0992 13.4852 9.384 13.8044 8.8176C14.1236 8.2512 14.8388 8.052 15.4028 8.3712Z" fill="#99CA65"/>
</g>
<defs>
<clipPath id="clip0_1424_63890">
<rect width="24" height="24" fill="white" transform="translate(0.400391)"/>
</clipPath>
</defs>
</svg>
