<svg width="16" height="16" viewBox="0 0 16 16" fill="none" xmlns="http://www.w3.org/2000/svg">
<path d="M15.501 2.82015C14.8309 1.44495 12.9006 0.319784 10.6553 0.97488C9.58235 1.2848 8.64624 1.94942 7.99989 2.86016C7.35354 1.94942 6.41743 1.2848 5.3445 0.97488C3.09417 0.329785 1.16888 1.44495 0.498786 2.82015C-0.441352 4.74543 -0.0512946 6.91075 1.65896 9.2561C2.99915 11.0914 4.91444 12.9516 7.69484 15.112C7.78271 15.1805 7.89095 15.2177 8.00239 15.2177C8.11382 15.2177 8.22207 15.1805 8.30994 15.112C11.0853 12.9566 13.0056 11.1114 14.3458 9.2561C16.0511 6.91075 16.4411 4.74543 15.501 2.82015Z" fill="white"/>
</svg>
