<svg width="28" height="28" viewBox="0 0 28 28" fill="none" xmlns="http://www.w3.org/2000/svg">
<path fill-rule="evenodd" clip-rule="evenodd" d="M14.0182 5.5C8.63315 5.5 4.53663 9.21891 4.53663 13.4989C4.53663 15.0359 5.05127 16.4778 5.95849 17.6996C6.08651 17.872 6.15563 18.081 6.15563 18.2957C6.15563 19.3376 5.88201 20.3477 5.54547 21.2587C5.3335 21.8325 5.08167 22.4034 4.84121 22.9339C6.89728 22.7155 8.24612 22.0571 9.05946 21.1C9.33263 20.7786 9.77815 20.6631 10.1731 20.8114C11.3453 21.2516 12.6456 21.4979 14.0182 21.4979C19.4033 21.4979 23.4998 17.779 23.4998 13.4989C23.4998 9.21891 19.4033 5.5 14.0182 5.5ZM2.53663 13.4989C2.53663 7.83902 7.82565 3.5 14.0182 3.5C20.2108 3.5 25.4998 7.83902 25.4998 13.4989C25.4998 19.1589 20.2108 23.4979 14.0182 23.4979C12.6451 23.4979 11.3252 23.288 10.1002 22.9013C8.65537 24.2498 6.55607 24.898 3.98805 24.9989C2.94194 25.04 2.18689 23.9519 2.62492 22.978C2.71461 22.7772 2.80508 22.5787 2.89503 22.3814L2.89519 22.381L2.8952 22.381C3.17091 21.7761 3.44163 21.1822 3.66938 20.5657C3.92549 19.8724 4.09992 19.2173 4.14443 18.6002C3.1276 17.1195 2.53663 15.3721 2.53663 13.4989ZM13.9876 10.0019C13.5587 10.0019 13.1958 10.2952 13.0933 10.6937C12.9556 11.2285 12.4104 11.5505 11.8756 11.4129C11.3407 11.2752 11.0187 10.73 11.1564 10.1952C11.4808 8.93452 12.624 8.00191 13.9876 8.00191C15.6021 8.00191 16.9109 9.31074 16.9109 10.9253C16.9109 12.2149 16.2016 12.8913 15.7217 13.3393C15.2522 13.7775 15.0421 13.9806 14.9775 14.4326C14.8994 14.9793 14.3929 15.3592 13.8462 15.2811C13.2994 15.203 12.9195 14.6965 12.9977 14.1497C13.1645 12.9818 13.8496 12.3474 14.2883 11.941L14.3571 11.8772C14.7788 11.4836 14.9109 11.3185 14.9109 10.9253C14.9109 10.4153 14.4975 10.0019 13.9876 10.0019ZM13.9989 19C14.6893 19 15.2489 18.4404 15.2489 17.75C15.2489 17.0596 14.6893 16.5 13.9989 16.5C13.3086 16.5 12.7489 17.0596 12.7489 17.75C12.7489 18.4404 13.3086 19 13.9989 19Z" fill="#8A32E0"/>
</svg>
