<svg width="20" height="20" viewBox="0 0 20 20" fill="none" xmlns="http://www.w3.org/2000/svg">
<path d="M10.8201 1.45684C11.1255 1.5057 11.4143 1.62255 11.6737 1.83006C12.0987 2.17 12.301 2.59852 12.4574 3.22411C12.4974 3.38427 12.5667 3.57097 12.6533 3.75217C12.8519 3.83661 13.0463 3.93047 13.2357 4.03338C13.4226 3.98718 13.6022 3.92584 13.7456 3.85909C14.7543 3.38948 15.6006 3.41415 16.2936 4.16162C16.3522 4.22484 16.3872 4.26672 16.4633 4.36075L16.9128 4.91586C17.0337 5.06515 17.0854 5.13317 17.1616 5.26009C17.6558 6.08254 17.4631 6.84851 16.8385 7.67852C16.7349 7.81624 16.629 7.99652 16.5405 8.18619C16.5964 8.388 16.6429 8.59265 16.6798 8.79958C16.8389 8.92705 17.0081 9.03874 17.1574 9.11497C17.7318 9.40809 18.1038 9.70165 18.3395 10.1921C18.4833 10.4916 18.5322 10.7993 18.5111 11.1079C18.5 11.271 18.4823 11.3619 18.4353 11.5654L18.2747 12.2614C18.2277 12.465 18.2036 12.5544 18.1422 12.7059C18.0259 12.9924 17.847 13.2476 17.5865 13.4537C17.1597 13.7913 16.6966 13.892 16.0519 13.9037C15.8888 13.9066 15.6939 13.9316 15.5 13.9743C15.374 14.1485 15.2397 14.3166 15.0978 14.478C15.1002 14.6738 15.1197 14.8663 15.1531 15.0237C15.2867 15.6546 15.2927 16.1284 15.0598 16.6202C14.9176 16.9205 14.7092 17.1521 14.4561 17.3299C14.3224 17.4239 14.2407 17.4674 14.0529 17.559L13.4109 17.8721C13.2231 17.9637 13.1385 18.0013 12.9821 18.0489C12.6862 18.1388 12.3753 18.1604 12.0512 18.0876C11.5203 17.9684 11.1506 17.6719 10.7358 17.1782C10.6261 17.0477 10.4763 16.9056 10.3134 16.7777C10.2092 16.7825 10.1048 16.7849 10.0001 16.7849C9.89536 16.7849 9.7909 16.7825 9.68676 16.7777C9.52385 16.9056 9.37401 17.0477 9.26436 17.1782C8.84955 17.6719 8.47983 17.9684 7.94889 18.0876C7.62478 18.1604 7.31391 18.1388 7.01801 18.0489C6.86161 18.0013 6.777 17.9637 6.58923 17.8721L5.94724 17.559C5.89079 17.5315 5.85578 17.5142 5.81488 17.4929C4.87806 17.005 4.60343 16.1736 4.84707 15.0237C4.88042 14.8663 4.89989 14.6738 4.90232 14.478C4.76039 14.3166 4.62616 14.1485 4.50011 13.9743C4.30624 13.9316 4.11134 13.9066 3.94825 13.9037C3.3035 13.892 2.84045 13.7913 2.41364 13.4537C2.1531 13.2476 1.97425 12.9924 1.85795 12.7059C1.79647 12.5544 1.77246 12.465 1.72547 12.2614L1.56479 11.5654C1.51503 11.3499 1.49671 11.2538 1.48727 11.0792C1.46957 10.7518 1.53222 10.4266 1.69839 10.118C1.94049 9.66847 2.29885 9.3925 2.84268 9.11497C2.99206 9.03874 3.16118 8.92705 3.32029 8.79958C3.35726 8.59265 3.40376 8.388 3.45961 8.18619C3.37109 7.99652 3.26526 7.81624 3.16162 7.67852C2.53699 6.84851 2.34429 6.08254 2.83848 5.26009C2.91474 5.13317 2.96638 5.06515 3.08728 4.91586L3.53679 4.36075C3.61294 4.26672 3.64794 4.22484 3.70655 4.16162C4.39955 3.41415 5.24579 3.38948 6.25454 3.85909C6.39792 3.92584 6.57748 3.98718 6.76445 4.03338C6.95386 3.93047 7.14819 3.83661 7.34681 3.75217C7.4334 3.57097 7.50268 3.38427 7.54271 3.22411C7.69911 2.59852 7.90147 2.17 8.32639 1.83006C8.58578 1.62255 8.87466 1.5057 9.18005 1.45684C9.30919 1.43618 9.39424 1.42995 9.53005 1.42828L10.3572 1.42773C10.5661 1.42773 10.6586 1.43101 10.8201 1.45684ZM10.4184 2.85645L9.64292 2.85631C9.28577 2.85631 9.1072 2.85631 8.92863 3.57059C8.82951 3.96707 8.62035 4.47359 8.3317 4.90691C7.87271 5.05719 7.44104 5.2678 7.04605 5.52937C6.53407 5.47892 6.01742 5.32449 5.65162 5.15419C4.98414 4.84345 4.87176 4.98223 4.647 5.25978L4.19749 5.81489C3.97273 6.09244 3.86035 6.23122 4.30308 6.81951C4.55226 7.15062 4.81817 7.64086 4.97237 8.14526C4.81447 8.57334 4.70968 9.02713 4.66599 9.49864C4.30769 9.88025 3.85816 10.2006 3.49205 10.3874C2.83624 10.7221 2.87641 10.8961 2.95675 11.2441L3.11743 11.9401C3.19777 12.288 3.23794 12.462 3.97408 12.4754C4.3811 12.4827 4.91906 12.5719 5.40471 12.7542C5.65138 13.1648 5.9515 13.5396 6.29546 13.8689C6.36286 14.3814 6.32868 14.9231 6.24461 15.3199C6.09199 16.0401 6.25248 16.1184 6.57348 16.275L7.21548 16.5881C7.53648 16.7447 7.69697 16.823 8.1706 16.2592C8.43617 15.9431 8.85189 15.5754 9.30666 15.3118C9.53364 15.3412 9.76508 15.3563 10.0001 15.3563C10.235 15.3563 10.4665 15.3412 10.6935 15.3118C11.1482 15.5754 11.564 15.9431 11.8295 16.2592C12.3031 16.823 12.4636 16.7447 12.7846 16.5881L13.4266 16.275C13.7476 16.1184 13.9081 16.0401 13.7555 15.3199C13.6714 14.9231 13.6373 14.3814 13.7047 13.8689C14.0486 13.5396 14.3487 13.1648 14.5954 12.7542C15.0811 12.5719 15.619 12.4827 16.026 12.4754C16.7622 12.462 16.8024 12.288 16.8827 11.9401L17.0434 11.2441C17.1237 10.8961 17.1639 10.7221 16.5081 10.3874C16.142 10.2006 15.6924 9.88025 15.3341 9.49864C15.2904 9.02713 15.1856 8.57334 15.0277 8.14526C15.182 7.64086 15.4479 7.15062 15.697 6.81951C16.1398 6.23122 16.0274 6.09244 15.8026 5.81489L15.3531 5.25978C15.1284 4.98223 15.016 4.84345 14.3485 5.15419C13.9827 5.32449 13.466 5.47892 12.9541 5.52937C12.5591 5.2678 12.1274 5.05719 11.6684 4.90691C11.3798 4.47359 11.1706 3.96707 11.0715 3.57059C10.9034 2.89832 10.7354 2.85878 10.4184 2.85645ZM10.0001 6.78488C11.7753 6.78488 13.2143 8.22396 13.2143 9.99916C13.2143 11.7744 11.7753 13.2134 10.0001 13.2134C8.22486 13.2134 6.78577 11.7744 6.78577 9.99916C6.78577 8.22396 8.22486 6.78488 10.0001 6.78488ZM10.0001 8.21345C9.01384 8.21345 8.21435 9.01294 8.21435 9.99916C8.21435 10.9854 9.01384 11.7849 10.0001 11.7849C10.9863 11.7849 11.7858 10.9854 11.7858 9.99916C11.7858 9.01294 10.9863 8.21345 10.0001 8.21345Z" fill="#4C239D"/>
</svg>
