<svg width="536" height="18" viewBox="0 0 536 18" fill="none" xmlns="http://www.w3.org/2000/svg">
<path d="M16.5732 10.4727H17.9404L15.8008 14H14.4336L16.5732 10.4727ZM17.6328 6.60352H20.7227V14H19.458V7.62891H17.6328C17.2728 7.62891 16.9788 7.69043 16.751 7.81348C16.5231 7.93197 16.3568 8.08691 16.252 8.27832C16.1471 8.46973 16.0947 8.66797 16.0947 8.87305C16.0947 9.07357 16.1426 9.26725 16.2383 9.4541C16.334 9.63639 16.4844 9.78678 16.6895 9.90527C16.8945 10.0238 17.1589 10.083 17.4824 10.083H19.7998V11.1221H17.4824C17.0586 11.1221 16.6826 11.0651 16.3545 10.9512C16.0264 10.8372 15.7484 10.68 15.5205 10.4795C15.2926 10.2744 15.1195 10.0352 15.001 9.76172C14.8825 9.48372 14.8232 9.18294 14.8232 8.85938C14.8232 8.53581 14.8848 8.2373 15.0078 7.96387C15.1354 7.69043 15.3177 7.45117 15.5547 7.24609C15.7962 7.04102 16.0902 6.88379 16.4365 6.77441C16.7874 6.66048 17.1862 6.60352 17.6328 6.60352ZM27.7773 9.80957V10.835H23.8672V9.80957H27.7773ZM24.1338 6.60352V14H22.8691V6.60352H24.1338ZM28.8027 6.60352V14H27.5312V6.60352H28.8027ZM34.3125 10.7461H31.8857L31.8721 9.73438H33.8545C34.2464 9.73438 34.5723 9.69564 34.832 9.61816C35.0964 9.54069 35.2946 9.42448 35.4268 9.26953C35.5589 9.11458 35.625 8.92318 35.625 8.69531C35.625 8.51758 35.5863 8.36263 35.5088 8.23047C35.4359 8.09375 35.3242 7.9821 35.1738 7.89551C35.0234 7.80436 34.8366 7.73828 34.6133 7.69727C34.3945 7.65169 34.137 7.62891 33.8408 7.62891H32.2207V14H30.9561V6.60352H33.8408C34.3102 6.60352 34.7318 6.64453 35.1055 6.72656C35.4837 6.80859 35.805 6.93392 36.0693 7.10254C36.3382 7.2666 36.5433 7.47624 36.6846 7.73145C36.8258 7.98665 36.8965 8.28743 36.8965 8.63379C36.8965 8.8571 36.8509 9.06901 36.7598 9.26953C36.6686 9.47005 36.5342 9.64779 36.3564 9.80273C36.1787 9.95768 35.96 10.0853 35.7002 10.1855C35.4404 10.2812 35.1419 10.3428 34.8047 10.3701L34.3125 10.7461ZM34.3125 14H31.4277L32.0566 12.9746H34.3125C34.6634 12.9746 34.9551 12.9313 35.1875 12.8447C35.4199 12.7536 35.5931 12.626 35.707 12.4619C35.8255 12.2933 35.8848 12.0928 35.8848 11.8604C35.8848 11.6279 35.8255 11.4297 35.707 11.2656C35.5931 11.097 35.4199 10.9694 35.1875 10.8828C34.9551 10.7917 34.6634 10.7461 34.3125 10.7461H32.3916L32.4053 9.73438H34.8047L35.2627 10.1172C35.6683 10.1491 36.0124 10.2493 36.2949 10.418C36.5775 10.5866 36.7917 10.8008 36.9375 11.0605C37.0833 11.3158 37.1562 11.5938 37.1562 11.8945C37.1562 12.2409 37.0902 12.5462 36.958 12.8105C36.8304 13.0749 36.6436 13.2959 36.3975 13.4736C36.1514 13.6468 35.8529 13.779 35.502 13.8701C35.151 13.9567 34.7546 14 34.3125 14Z" fill="#99A2AD"/>
<path d="M66.6709 10.4316V10.5752C66.6709 11.0947 66.6139 11.5732 66.5 12.0107C66.3861 12.4437 66.2152 12.8197 65.9873 13.1387C65.764 13.4577 65.486 13.7061 65.1533 13.8838C64.8206 14.057 64.4355 14.1436 63.998 14.1436C63.638 14.1436 63.3213 14.0957 63.0479 14C62.7744 13.8997 62.542 13.7562 62.3506 13.5693C62.1637 13.3825 62.0133 13.1592 61.8994 12.8994C61.79 12.6351 61.7148 12.3389 61.6738 12.0107V8.72949C61.7148 8.37858 61.79 8.06413 61.8994 7.78613C62.0133 7.50814 62.1637 7.27116 62.3506 7.0752C62.542 6.87923 62.7721 6.72884 63.041 6.62402C63.3099 6.51921 63.6243 6.4668 63.9844 6.4668C64.3398 6.4668 64.6589 6.5306 64.9414 6.6582C65.2285 6.78125 65.4792 6.95898 65.6934 7.19141C65.9121 7.42383 66.0921 7.7041 66.2334 8.03223C66.3792 8.35579 66.4886 8.72038 66.5615 9.12598C66.6344 9.53158 66.6709 9.9668 66.6709 10.4316ZM65.4062 10.5752V10.4316C65.4062 10.1126 65.3835 9.80957 65.3379 9.52246C65.2969 9.23079 65.2308 8.96419 65.1396 8.72266C65.0531 8.47656 64.9391 8.26237 64.7979 8.08008C64.6566 7.89779 64.4857 7.75651 64.2852 7.65625C64.0892 7.55599 63.8636 7.50586 63.6084 7.50586C63.335 7.50586 63.1071 7.54004 62.9248 7.6084C62.7471 7.67676 62.6081 7.7679 62.5078 7.88184C62.4076 7.99121 62.3346 8.10742 62.2891 8.23047V12.5166C62.3438 12.6169 62.4235 12.7126 62.5283 12.8037C62.6331 12.8903 62.7744 12.9632 62.9521 13.0225C63.1299 13.0771 63.3532 13.1045 63.6221 13.1045C63.9411 13.1045 64.2122 13.0407 64.4355 12.9131C64.6634 12.7809 64.848 12.5986 64.9893 12.3662C65.1351 12.1338 65.2399 11.8649 65.3037 11.5596C65.3721 11.2542 65.4062 10.9261 65.4062 10.5752ZM57.8867 10.5752V10.4316C57.8867 9.9668 57.9232 9.53158 57.9961 9.12598C58.069 8.72038 58.1784 8.35579 58.3242 8.03223C58.4701 7.7041 58.6501 7.42383 58.8643 7.19141C59.083 6.95898 59.3337 6.78125 59.6162 6.6582C59.9033 6.5306 60.2246 6.4668 60.5801 6.4668C60.931 6.4668 61.2363 6.51921 61.4961 6.62402C61.7604 6.72884 61.9837 6.87923 62.166 7.0752C62.3483 7.27116 62.4941 7.50814 62.6035 7.78613C62.7129 8.06413 62.7904 8.37858 62.8359 8.72949V11.8809C62.7949 12.2272 62.7197 12.5394 62.6104 12.8174C62.501 13.0954 62.3551 13.3346 62.1729 13.5352C61.9906 13.7311 61.765 13.8815 61.4961 13.9863C61.2318 14.0911 60.9219 14.1436 60.5664 14.1436C60.1289 14.1436 59.7438 14.057 59.4111 13.8838C59.0785 13.7061 58.7982 13.4577 58.5703 13.1387C58.347 12.8197 58.1761 12.4437 58.0576 12.0107C57.9437 11.5732 57.8867 11.0947 57.8867 10.5752ZM59.1582 10.4316V10.5752C59.1582 10.9261 59.1878 11.2542 59.2471 11.5596C59.3109 11.8649 59.4089 12.1338 59.541 12.3662C59.6777 12.5986 59.8555 12.7809 60.0742 12.9131C60.293 13.0407 60.5618 13.1045 60.8809 13.1045C61.1543 13.1045 61.3799 13.0703 61.5576 13.002C61.7354 12.9336 61.8766 12.8447 61.9814 12.7354C62.0863 12.626 62.166 12.512 62.2207 12.3936V8.23047C62.1751 8.10742 62.0999 7.99121 61.9951 7.88184C61.8949 7.7679 61.7559 7.67676 61.5781 7.6084C61.4004 7.54004 61.1725 7.50586 60.8945 7.50586C60.5755 7.50586 60.3044 7.58333 60.0811 7.73828C59.8577 7.89323 59.6777 8.10514 59.541 8.37402C59.4089 8.6429 59.3109 8.95508 59.2471 9.31055C59.1878 9.66146 59.1582 10.0352 59.1582 10.4316ZM61.5918 16.8438V3.5H62.8633V16.8438H61.5918ZM71.3945 14.1367C70.8796 14.1367 70.4124 14.0501 69.9932 13.877C69.5785 13.6992 69.2207 13.4508 68.9199 13.1318C68.6237 12.8128 68.3958 12.4346 68.2363 11.9971C68.0768 11.5596 67.9971 11.0811 67.9971 10.5615V10.2744C67.9971 9.67285 68.0859 9.13737 68.2637 8.66797C68.4414 8.19401 68.6829 7.79297 68.9883 7.46484C69.2936 7.13672 69.64 6.88835 70.0273 6.71973C70.4147 6.55111 70.8158 6.4668 71.2305 6.4668C71.7591 6.4668 72.2148 6.55794 72.5977 6.74023C72.985 6.92253 73.3018 7.17773 73.5479 7.50586C73.7939 7.82943 73.9762 8.21224 74.0947 8.6543C74.2132 9.0918 74.2725 9.57031 74.2725 10.0898V10.6572H68.749V9.625H73.0078V9.5293C72.9896 9.20117 72.9212 8.88216 72.8027 8.57227C72.6888 8.26237 72.5065 8.00716 72.2559 7.80664C72.0052 7.60612 71.6634 7.50586 71.2305 7.50586C70.9434 7.50586 70.679 7.56738 70.4375 7.69043C70.196 7.80892 69.9886 7.98665 69.8154 8.22363C69.6423 8.46061 69.5078 8.75 69.4121 9.0918C69.3164 9.43359 69.2686 9.8278 69.2686 10.2744V10.5615C69.2686 10.9124 69.3164 11.2428 69.4121 11.5527C69.5124 11.8581 69.6559 12.127 69.8428 12.3594C70.0342 12.5918 70.2643 12.7741 70.5332 12.9062C70.8066 13.0384 71.1165 13.1045 71.4629 13.1045C71.9095 13.1045 72.2878 13.0133 72.5977 12.8311C72.9076 12.6488 73.1787 12.4049 73.4111 12.0996L74.1768 12.708C74.0173 12.9495 73.8145 13.1797 73.5684 13.3984C73.3223 13.6172 73.0192 13.7949 72.6592 13.9316C72.3037 14.0684 71.8822 14.1367 71.3945 14.1367ZM79.2217 10.7461H76.7949L76.7812 9.73438H78.7637C79.1556 9.73438 79.4814 9.69564 79.7412 9.61816C80.0055 9.54069 80.2038 9.42448 80.3359 9.26953C80.4681 9.11458 80.5342 8.92318 80.5342 8.69531C80.5342 8.51758 80.4954 8.36263 80.418 8.23047C80.3451 8.09375 80.2334 7.9821 80.083 7.89551C79.9326 7.80436 79.7458 7.73828 79.5225 7.69727C79.3037 7.65169 79.0462 7.62891 78.75 7.62891H77.1299V14H75.8652V6.60352H78.75C79.2194 6.60352 79.641 6.64453 80.0146 6.72656C80.3929 6.80859 80.7142 6.93392 80.9785 7.10254C81.2474 7.2666 81.4525 7.47624 81.5938 7.73145C81.735 7.98665 81.8057 8.28743 81.8057 8.63379C81.8057 8.8571 81.7601 9.06901 81.6689 9.26953C81.5778 9.47005 81.4434 9.64779 81.2656 9.80273C81.0879 9.95768 80.8691 10.0853 80.6094 10.1855C80.3496 10.2812 80.0511 10.3428 79.7139 10.3701L79.2217 10.7461ZM79.2217 14H76.3369L76.9658 12.9746H79.2217C79.5726 12.9746 79.8643 12.9313 80.0967 12.8447C80.3291 12.7536 80.5023 12.626 80.6162 12.4619C80.7347 12.2933 80.7939 12.0928 80.7939 11.8604C80.7939 11.6279 80.7347 11.4297 80.6162 11.2656C80.5023 11.097 80.3291 10.9694 80.0967 10.8828C79.8643 10.7917 79.5726 10.7461 79.2217 10.7461H77.3008L77.3145 9.73438H79.7139L80.1719 10.1172C80.5775 10.1491 80.9215 10.2493 81.2041 10.418C81.4867 10.5866 81.7008 10.8008 81.8467 11.0605C81.9925 11.3158 82.0654 11.5938 82.0654 11.8945C82.0654 12.2409 81.9993 12.5462 81.8672 12.8105C81.7396 13.0749 81.5527 13.2959 81.3066 13.4736C81.0605 13.6468 80.762 13.779 80.4111 13.8701C80.0602 13.9567 79.6637 14 79.2217 14Z" fill="#99A2AD"/>
<path d="M103.186 12.3184L105.701 6.60352H106.918L103.623 14H102.748L99.4668 6.60352H100.684L103.186 12.3184ZM100.314 6.60352V14H99.0498V6.60352H100.314ZM106.016 14V6.60352H107.287V14H106.016ZM113.686 12.7354V8.92773C113.686 8.63607 113.626 8.38314 113.508 8.16895C113.394 7.9502 113.221 7.78158 112.988 7.66309C112.756 7.5446 112.469 7.48535 112.127 7.48535C111.808 7.48535 111.528 7.54004 111.286 7.64941C111.049 7.75879 110.862 7.90234 110.726 8.08008C110.593 8.25781 110.527 8.44922 110.527 8.6543H109.263C109.263 8.38997 109.331 8.12793 109.468 7.86816C109.604 7.6084 109.8 7.3737 110.056 7.16406C110.315 6.94987 110.625 6.78125 110.985 6.6582C111.35 6.5306 111.756 6.4668 112.202 6.4668C112.74 6.4668 113.214 6.55794 113.624 6.74023C114.039 6.92253 114.362 7.19824 114.595 7.56738C114.832 7.93197 114.95 8.38997 114.95 8.94141V12.3867C114.95 12.6328 114.971 12.8949 115.012 13.1729C115.057 13.4508 115.123 13.6901 115.21 13.8906V14H113.891C113.827 13.8542 113.777 13.6605 113.74 13.4189C113.704 13.1729 113.686 12.945 113.686 12.7354ZM113.904 9.51562L113.918 10.4043H112.64C112.28 10.4043 111.958 10.4339 111.676 10.4932C111.393 10.5479 111.156 10.6322 110.965 10.7461C110.773 10.86 110.628 11.0036 110.527 11.1768C110.427 11.3454 110.377 11.5436 110.377 11.7715C110.377 12.0039 110.429 12.2158 110.534 12.4072C110.639 12.5986 110.796 12.7513 111.006 12.8652C111.22 12.9746 111.482 13.0293 111.792 13.0293C112.179 13.0293 112.521 12.9473 112.817 12.7832C113.114 12.6191 113.348 12.4186 113.521 12.1816C113.699 11.9447 113.795 11.7145 113.809 11.4912L114.349 12.0996C114.317 12.291 114.23 12.5029 114.089 12.7354C113.948 12.9678 113.758 13.1911 113.521 13.4053C113.289 13.6149 113.011 13.7904 112.688 13.9316C112.368 14.0684 112.008 14.1367 111.607 14.1367C111.106 14.1367 110.666 14.0387 110.288 13.8428C109.914 13.6468 109.623 13.3848 109.413 13.0566C109.208 12.724 109.105 12.3525 109.105 11.9424C109.105 11.5459 109.183 11.1973 109.338 10.8965C109.493 10.5911 109.716 10.3382 110.008 10.1377C110.299 9.93262 110.65 9.77767 111.061 9.67285C111.471 9.56803 111.929 9.51562 112.435 9.51562H113.904ZM118.204 8.02539V16.8438H116.933V6.60352H118.095L118.204 8.02539ZM123.188 10.2402V10.3838C123.188 10.9215 123.124 11.4206 122.996 11.8809C122.868 12.3366 122.682 12.7331 122.436 13.0703C122.194 13.4076 121.896 13.6696 121.54 13.8564C121.185 14.0433 120.777 14.1367 120.316 14.1367C119.847 14.1367 119.432 14.0592 119.072 13.9043C118.712 13.7493 118.407 13.5238 118.156 13.2275C117.906 12.9313 117.705 12.5758 117.555 12.1611C117.409 11.7464 117.309 11.2793 117.254 10.7598V9.99414C117.309 9.44727 117.411 8.95736 117.562 8.52441C117.712 8.09147 117.91 7.72233 118.156 7.41699C118.407 7.1071 118.71 6.8724 119.065 6.71289C119.421 6.54883 119.831 6.4668 120.296 6.4668C120.761 6.4668 121.173 6.55794 121.533 6.74023C121.893 6.91797 122.196 7.17318 122.442 7.50586C122.688 7.83854 122.873 8.2373 122.996 8.70215C123.124 9.16243 123.188 9.67513 123.188 10.2402ZM121.916 10.3838V10.2402C121.916 9.87109 121.877 9.52474 121.8 9.20117C121.722 8.87305 121.602 8.58594 121.438 8.33984C121.278 8.08919 121.073 7.89323 120.822 7.75195C120.572 7.60612 120.273 7.5332 119.927 7.5332C119.608 7.5332 119.33 7.58789 119.093 7.69727C118.86 7.80664 118.662 7.95475 118.498 8.1416C118.334 8.32389 118.2 8.53353 118.095 8.77051C117.994 9.00293 117.919 9.24447 117.869 9.49512V11.2656C117.96 11.5846 118.088 11.8854 118.252 12.168C118.416 12.446 118.635 12.6715 118.908 12.8447C119.182 13.0133 119.526 13.0977 119.94 13.0977C120.282 13.0977 120.576 13.027 120.822 12.8857C121.073 12.7399 121.278 12.5417 121.438 12.291C121.602 12.0404 121.722 11.7533 121.8 11.4297C121.877 11.1016 121.916 10.7529 121.916 10.3838ZM127.269 6.60352V14H125.997V6.60352H127.269ZM129.75 6.60352V7.62891H123.563V6.60352H129.75Z" fill="#99A2AD"/>
<path d="M151.547 12.7354V8.92773C151.547 8.63607 151.488 8.38314 151.369 8.16895C151.255 7.9502 151.082 7.78158 150.85 7.66309C150.617 7.5446 150.33 7.48535 149.988 7.48535C149.669 7.48535 149.389 7.54004 149.147 7.64941C148.91 7.75879 148.724 7.90234 148.587 8.08008C148.455 8.25781 148.389 8.44922 148.389 8.6543H147.124C147.124 8.38997 147.192 8.12793 147.329 7.86816C147.466 7.6084 147.662 7.3737 147.917 7.16406C148.177 6.94987 148.487 6.78125 148.847 6.6582C149.211 6.5306 149.617 6.4668 150.063 6.4668C150.601 6.4668 151.075 6.55794 151.485 6.74023C151.9 6.92253 152.224 7.19824 152.456 7.56738C152.693 7.93197 152.812 8.38997 152.812 8.94141V12.3867C152.812 12.6328 152.832 12.8949 152.873 13.1729C152.919 13.4508 152.985 13.6901 153.071 13.8906V14H151.752C151.688 13.8542 151.638 13.6605 151.602 13.4189C151.565 13.1729 151.547 12.945 151.547 12.7354ZM151.766 9.51562L151.779 10.4043H150.501C150.141 10.4043 149.82 10.4339 149.537 10.4932C149.255 10.5479 149.018 10.6322 148.826 10.7461C148.635 10.86 148.489 11.0036 148.389 11.1768C148.288 11.3454 148.238 11.5436 148.238 11.7715C148.238 12.0039 148.291 12.2158 148.396 12.4072C148.5 12.5986 148.658 12.7513 148.867 12.8652C149.081 12.9746 149.343 13.0293 149.653 13.0293C150.041 13.0293 150.382 12.9473 150.679 12.7832C150.975 12.6191 151.21 12.4186 151.383 12.1816C151.561 11.9447 151.656 11.7145 151.67 11.4912L152.21 12.0996C152.178 12.291 152.091 12.5029 151.95 12.7354C151.809 12.9678 151.62 13.1911 151.383 13.4053C151.15 13.6149 150.872 13.7904 150.549 13.9316C150.23 14.0684 149.87 14.1367 149.469 14.1367C148.967 14.1367 148.528 14.0387 148.149 13.8428C147.776 13.6468 147.484 13.3848 147.274 13.0566C147.069 12.724 146.967 12.3525 146.967 11.9424C146.967 11.5459 147.044 11.1973 147.199 10.8965C147.354 10.5911 147.577 10.3382 147.869 10.1377C148.161 9.93262 148.512 9.77767 148.922 9.67285C149.332 9.56803 149.79 9.51562 150.296 9.51562H151.766ZM159.729 6.60352V7.64941H155.99V6.60352H159.729ZM156.175 6.60352V14H154.91V6.60352H156.175ZM160.851 6.60352V14H159.579V6.60352H160.851ZM164.146 8.02539V16.8438H162.874V6.60352H164.036L164.146 8.02539ZM169.129 10.2402V10.3838C169.129 10.9215 169.065 11.4206 168.938 11.8809C168.81 12.3366 168.623 12.7331 168.377 13.0703C168.135 13.4076 167.837 13.6696 167.481 13.8564C167.126 14.0433 166.718 14.1367 166.258 14.1367C165.788 14.1367 165.374 14.0592 165.014 13.9043C164.654 13.7493 164.348 13.5238 164.098 13.2275C163.847 12.9313 163.646 12.5758 163.496 12.1611C163.35 11.7464 163.25 11.2793 163.195 10.7598V9.99414C163.25 9.44727 163.353 8.95736 163.503 8.52441C163.653 8.09147 163.852 7.72233 164.098 7.41699C164.348 7.1071 164.651 6.8724 165.007 6.71289C165.362 6.54883 165.772 6.4668 166.237 6.4668C166.702 6.4668 167.115 6.55794 167.475 6.74023C167.835 6.91797 168.138 7.17318 168.384 7.50586C168.63 7.83854 168.814 8.2373 168.938 8.70215C169.065 9.16243 169.129 9.67513 169.129 10.2402ZM167.857 10.3838V10.2402C167.857 9.87109 167.819 9.52474 167.741 9.20117C167.664 8.87305 167.543 8.58594 167.379 8.33984C167.219 8.08919 167.014 7.89323 166.764 7.75195C166.513 7.60612 166.215 7.5332 165.868 7.5332C165.549 7.5332 165.271 7.58789 165.034 7.69727C164.802 7.80664 164.604 7.95475 164.439 8.1416C164.275 8.32389 164.141 8.53353 164.036 8.77051C163.936 9.00293 163.861 9.24447 163.811 9.49512V11.2656C163.902 11.5846 164.029 11.8854 164.193 12.168C164.357 12.446 164.576 12.6715 164.85 12.8447C165.123 13.0133 165.467 13.0977 165.882 13.0977C166.224 13.0977 166.518 13.027 166.764 12.8857C167.014 12.7399 167.219 12.5417 167.379 12.291C167.543 12.0404 167.664 11.7533 167.741 11.4297C167.819 11.1016 167.857 10.7529 167.857 10.3838Z" fill="#99A2AD"/>
<path d="M194.173 12.3184L196.688 6.60352H197.905L194.61 14H193.735L190.454 6.60352H191.671L194.173 12.3184ZM191.302 6.60352V14H190.037V6.60352H191.302ZM197.003 14V6.60352H198.274V14H197.003ZM204.673 12.7354V8.92773C204.673 8.63607 204.614 8.38314 204.495 8.16895C204.381 7.9502 204.208 7.78158 203.976 7.66309C203.743 7.5446 203.456 7.48535 203.114 7.48535C202.795 7.48535 202.515 7.54004 202.273 7.64941C202.036 7.75879 201.85 7.90234 201.713 8.08008C201.581 8.25781 201.515 8.44922 201.515 8.6543H200.25C200.25 8.38997 200.318 8.12793 200.455 7.86816C200.592 7.6084 200.788 7.3737 201.043 7.16406C201.303 6.94987 201.613 6.78125 201.973 6.6582C202.337 6.5306 202.743 6.4668 203.189 6.4668C203.727 6.4668 204.201 6.55794 204.611 6.74023C205.026 6.92253 205.35 7.19824 205.582 7.56738C205.819 7.93197 205.938 8.38997 205.938 8.94141V12.3867C205.938 12.6328 205.958 12.8949 205.999 13.1729C206.045 13.4508 206.111 13.6901 206.197 13.8906V14H204.878C204.814 13.8542 204.764 13.6605 204.728 13.4189C204.691 13.1729 204.673 12.945 204.673 12.7354ZM204.892 9.51562L204.905 10.4043H203.627C203.267 10.4043 202.946 10.4339 202.663 10.4932C202.381 10.5479 202.144 10.6322 201.952 10.7461C201.761 10.86 201.615 11.0036 201.515 11.1768C201.414 11.3454 201.364 11.5436 201.364 11.7715C201.364 12.0039 201.417 12.2158 201.521 12.4072C201.626 12.5986 201.784 12.7513 201.993 12.8652C202.207 12.9746 202.469 13.0293 202.779 13.0293C203.167 13.0293 203.508 12.9473 203.805 12.7832C204.101 12.6191 204.336 12.4186 204.509 12.1816C204.687 11.9447 204.782 11.7145 204.796 11.4912L205.336 12.0996C205.304 12.291 205.217 12.5029 205.076 12.7354C204.935 12.9678 204.746 13.1911 204.509 13.4053C204.276 13.6149 203.998 13.7904 203.675 13.9316C203.356 14.0684 202.996 14.1367 202.595 14.1367C202.093 14.1367 201.654 14.0387 201.275 13.8428C200.902 13.6468 200.61 13.3848 200.4 13.0566C200.195 12.724 200.093 12.3525 200.093 11.9424C200.093 11.5459 200.17 11.1973 200.325 10.8965C200.48 10.5911 200.703 10.3382 200.995 10.1377C201.287 9.93262 201.638 9.77767 202.048 9.67285C202.458 9.56803 202.916 9.51562 203.422 9.51562H204.892ZM209.294 11.9971L212.705 6.60352H213.977V14H212.705V8.60645L209.294 14H208.036V6.60352H209.294V11.9971ZM212.015 3.92383H213.04C213.04 4.2793 212.958 4.59603 212.794 4.87402C212.63 5.14746 212.395 5.36165 212.09 5.5166C211.785 5.67155 211.422 5.74902 211.003 5.74902C210.369 5.74902 209.868 5.5804 209.499 5.24316C209.134 4.90137 208.952 4.46159 208.952 3.92383H209.978C209.978 4.19271 210.055 4.42969 210.21 4.63477C210.365 4.83984 210.629 4.94238 211.003 4.94238C211.368 4.94238 211.627 4.83984 211.782 4.63477C211.937 4.42969 212.015 4.19271 212.015 3.92383Z" fill="#99A2AD"/>
<path d="M230.735 11.9971L234.146 6.60352H235.418V14H234.146V8.60645L230.735 14H229.478V6.60352H230.735V11.9971ZM241.659 9.74121V10.7734H237.729V9.74121H241.659ZM238.829 6.60352V14H237.564V6.60352H238.829ZM240.579 10.3838V10.2266C240.579 9.69336 240.657 9.19889 240.812 8.74316C240.966 8.28288 241.19 7.88411 241.481 7.54688C241.778 7.20508 242.131 6.94076 242.541 6.75391C242.956 6.5625 243.421 6.4668 243.936 6.4668C244.46 6.4668 244.929 6.5625 245.344 6.75391C245.758 6.94076 246.112 7.20508 246.403 7.54688C246.7 7.88411 246.925 8.28288 247.08 8.74316C247.235 9.19889 247.312 9.69336 247.312 10.2266V10.3838C247.312 10.917 247.235 11.4115 247.08 11.8672C246.925 12.3229 246.702 12.7217 246.41 13.0635C246.118 13.4007 245.765 13.665 245.351 13.8564C244.936 14.0433 244.469 14.1367 243.949 14.1367C243.43 14.1367 242.963 14.0433 242.548 13.8564C242.133 13.665 241.778 13.4007 241.481 13.0635C241.19 12.7217 240.966 12.3229 240.812 11.8672C240.657 11.4115 240.579 10.917 240.579 10.3838ZM241.851 10.2266V10.3838C241.851 10.7529 241.894 11.1016 241.98 11.4297C242.067 11.7533 242.197 12.0404 242.37 12.291C242.548 12.5417 242.767 12.7399 243.026 12.8857C243.291 13.027 243.598 13.0977 243.949 13.0977C244.3 13.0977 244.605 13.027 244.865 12.8857C245.13 12.7399 245.348 12.5417 245.521 12.291C245.695 12.0404 245.825 11.7533 245.911 11.4297C246.002 11.1016 246.048 10.7529 246.048 10.3838V10.2266C246.048 9.86198 246.002 9.5179 245.911 9.19434C245.825 8.86621 245.692 8.57682 245.515 8.32617C245.341 8.07096 245.123 7.87044 244.858 7.72461C244.594 7.57878 244.286 7.50586 243.936 7.50586C243.589 7.50586 243.286 7.57878 243.026 7.72461C242.767 7.87044 242.548 8.07096 242.37 8.32617C242.197 8.57682 242.067 8.86621 241.98 9.19434C241.894 9.5179 241.851 9.86198 241.851 10.2266ZM253.896 9.80957V10.835H249.985V9.80957H253.896ZM250.252 6.60352V14H248.987V6.60352H250.252ZM254.921 6.60352V14H253.649V6.60352H254.921ZM257.997 9.14648H260.219C260.816 9.14648 261.319 9.2513 261.729 9.46094C262.14 9.66602 262.45 9.95085 262.659 10.3154C262.873 10.6755 262.98 11.0856 262.98 11.5459C262.98 11.8877 262.921 12.209 262.803 12.5098C262.684 12.806 262.507 13.0658 262.27 13.2891C262.037 13.5124 261.748 13.6878 261.401 13.8154C261.06 13.9385 260.665 14 260.219 14H257.074V6.60352H258.339V12.9609H260.219C260.583 12.9609 260.875 12.8949 261.094 12.7627C261.312 12.6305 261.47 12.4596 261.565 12.25C261.661 12.0404 261.709 11.8216 261.709 11.5938C261.709 11.3704 261.661 11.1517 261.565 10.9375C261.47 10.7233 261.312 10.5456 261.094 10.4043C260.875 10.2585 260.583 10.1855 260.219 10.1855H257.997V9.14648Z" fill="#99A2AD"/>
<path d="M274.776 11.9971L278.188 6.60352H279.459V14H278.188V8.60645L274.776 14H273.519V6.60352H274.776V11.9971ZM285.7 9.74121V10.7734H281.77V9.74121H285.7ZM282.87 6.60352V14H281.605V6.60352H282.87ZM284.62 10.3838V10.2266C284.62 9.69336 284.698 9.19889 284.853 8.74316C285.007 8.28288 285.231 7.88411 285.522 7.54688C285.819 7.20508 286.172 6.94076 286.582 6.75391C286.997 6.5625 287.462 6.4668 287.977 6.4668C288.501 6.4668 288.97 6.5625 289.385 6.75391C289.799 6.94076 290.153 7.20508 290.444 7.54688C290.741 7.88411 290.966 8.28288 291.121 8.74316C291.276 9.19889 291.354 9.69336 291.354 10.2266V10.3838C291.354 10.917 291.276 11.4115 291.121 11.8672C290.966 12.3229 290.743 12.7217 290.451 13.0635C290.16 13.4007 289.806 13.665 289.392 13.8564C288.977 14.0433 288.51 14.1367 287.99 14.1367C287.471 14.1367 287.004 14.0433 286.589 13.8564C286.174 13.665 285.819 13.4007 285.522 13.0635C285.231 12.7217 285.007 12.3229 284.853 11.8672C284.698 11.4115 284.62 10.917 284.62 10.3838ZM285.892 10.2266V10.3838C285.892 10.7529 285.935 11.1016 286.021 11.4297C286.108 11.7533 286.238 12.0404 286.411 12.291C286.589 12.5417 286.808 12.7399 287.067 12.8857C287.332 13.027 287.639 13.0977 287.99 13.0977C288.341 13.0977 288.646 13.027 288.906 12.8857C289.171 12.7399 289.389 12.5417 289.562 12.291C289.736 12.0404 289.866 11.7533 289.952 11.4297C290.043 11.1016 290.089 10.7529 290.089 10.3838V10.2266C290.089 9.86198 290.043 9.5179 289.952 9.19434C289.866 8.86621 289.733 8.57682 289.556 8.32617C289.382 8.07096 289.164 7.87044 288.899 7.72461C288.635 7.57878 288.327 7.50586 287.977 7.50586C287.63 7.50586 287.327 7.57878 287.067 7.72461C286.808 7.87044 286.589 8.07096 286.411 8.32617C286.238 8.57682 286.108 8.86621 286.021 9.19434C285.935 9.5179 285.892 9.86198 285.892 10.2266ZM297.766 6.60352V7.64941H294.19V6.60352H297.766ZM298.88 6.60352V14H297.615V6.60352H298.88ZM293.883 6.60352H295.154L294.963 10.1719C294.931 10.7233 294.879 11.2109 294.806 11.6348C294.737 12.054 294.642 12.4141 294.519 12.7148C294.4 13.0156 294.25 13.2617 294.067 13.4531C293.89 13.64 293.675 13.779 293.425 13.8701C293.174 13.9567 292.885 14 292.557 14H292.16V12.8857L292.434 12.8652C292.63 12.8516 292.796 12.806 292.933 12.7285C293.074 12.651 293.192 12.5371 293.288 12.3867C293.384 12.2318 293.461 12.0335 293.521 11.792C293.584 11.5505 293.632 11.2633 293.664 10.9307C293.701 10.598 293.728 10.2106 293.746 9.76855L293.883 6.60352ZM301.956 9.14648H304.178C304.775 9.14648 305.278 9.2513 305.688 9.46094C306.099 9.66602 306.409 9.95085 306.618 10.3154C306.832 10.6755 306.939 11.0856 306.939 11.5459C306.939 11.8877 306.88 12.209 306.762 12.5098C306.643 12.806 306.465 13.0658 306.229 13.2891C305.996 13.5124 305.707 13.6878 305.36 13.8154C305.019 13.9385 304.624 14 304.178 14H301.033V6.60352H302.298V12.9609H304.178C304.542 12.9609 304.834 12.8949 305.053 12.7627C305.271 12.6305 305.429 12.4596 305.524 12.25C305.62 12.0404 305.668 11.8216 305.668 11.5938C305.668 11.3704 305.62 11.1517 305.524 10.9375C305.429 10.7233 305.271 10.5456 305.053 10.4043C304.834 10.2585 304.542 10.1855 304.178 10.1855H301.956V9.14648Z" fill="#99A2AD"/>
<path d="M328.572 12.7354V8.92773C328.572 8.63607 328.513 8.38314 328.395 8.16895C328.281 7.9502 328.107 7.78158 327.875 7.66309C327.643 7.5446 327.355 7.48535 327.014 7.48535C326.695 7.48535 326.414 7.54004 326.173 7.64941C325.936 7.75879 325.749 7.90234 325.612 8.08008C325.48 8.25781 325.414 8.44922 325.414 8.6543H324.149C324.149 8.38997 324.218 8.12793 324.354 7.86816C324.491 7.6084 324.687 7.3737 324.942 7.16406C325.202 6.94987 325.512 6.78125 325.872 6.6582C326.237 6.5306 326.642 6.4668 327.089 6.4668C327.627 6.4668 328.101 6.55794 328.511 6.74023C328.925 6.92253 329.249 7.19824 329.481 7.56738C329.718 7.93197 329.837 8.38997 329.837 8.94141V12.3867C329.837 12.6328 329.857 12.8949 329.898 13.1729C329.944 13.4508 330.01 13.6901 330.097 13.8906V14H328.777C328.714 13.8542 328.663 13.6605 328.627 13.4189C328.59 13.1729 328.572 12.945 328.572 12.7354ZM328.791 9.51562L328.805 10.4043H327.526C327.166 10.4043 326.845 10.4339 326.562 10.4932C326.28 10.5479 326.043 10.6322 325.852 10.7461C325.66 10.86 325.514 11.0036 325.414 11.1768C325.314 11.3454 325.264 11.5436 325.264 11.7715C325.264 12.0039 325.316 12.2158 325.421 12.4072C325.526 12.5986 325.683 12.7513 325.893 12.8652C326.107 12.9746 326.369 13.0293 326.679 13.0293C327.066 13.0293 327.408 12.9473 327.704 12.7832C328 12.6191 328.235 12.4186 328.408 12.1816C328.586 11.9447 328.682 11.7145 328.695 11.4912L329.235 12.0996C329.203 12.291 329.117 12.5029 328.976 12.7354C328.834 12.9678 328.645 13.1911 328.408 13.4053C328.176 13.6149 327.898 13.7904 327.574 13.9316C327.255 14.0684 326.895 14.1367 326.494 14.1367C325.993 14.1367 325.553 14.0387 325.175 13.8428C324.801 13.6468 324.509 13.3848 324.3 13.0566C324.095 12.724 323.992 12.3525 323.992 11.9424C323.992 11.5459 324.07 11.1973 324.225 10.8965C324.38 10.5911 324.603 10.3382 324.895 10.1377C325.186 9.93262 325.537 9.77767 325.947 9.67285C326.357 9.56803 326.815 9.51562 327.321 9.51562H328.791ZM335.299 10.7461H332.872L332.858 9.73438H334.841C335.233 9.73438 335.559 9.69564 335.818 9.61816C336.083 9.54069 336.281 9.42448 336.413 9.26953C336.545 9.11458 336.611 8.92318 336.611 8.69531C336.611 8.51758 336.573 8.36263 336.495 8.23047C336.422 8.09375 336.311 7.9821 336.16 7.89551C336.01 7.80436 335.823 7.73828 335.6 7.69727C335.381 7.65169 335.123 7.62891 334.827 7.62891H333.207V14H331.942V6.60352H334.827C335.297 6.60352 335.718 6.64453 336.092 6.72656C336.47 6.80859 336.791 6.93392 337.056 7.10254C337.325 7.2666 337.53 7.47624 337.671 7.73145C337.812 7.98665 337.883 8.28743 337.883 8.63379C337.883 8.8571 337.837 9.06901 337.746 9.26953C337.655 9.47005 337.521 9.64779 337.343 9.80273C337.165 9.95768 336.946 10.0853 336.687 10.1855C336.427 10.2812 336.128 10.3428 335.791 10.3701L335.299 10.7461ZM335.299 14H332.414L333.043 12.9746H335.299C335.65 12.9746 335.941 12.9313 336.174 12.8447C336.406 12.7536 336.579 12.626 336.693 12.4619C336.812 12.2933 336.871 12.0928 336.871 11.8604C336.871 11.6279 336.812 11.4297 336.693 11.2656C336.579 11.097 336.406 10.9694 336.174 10.8828C335.941 10.7917 335.65 10.7461 335.299 10.7461H333.378L333.392 9.73438H335.791L336.249 10.1172C336.655 10.1491 336.999 10.2493 337.281 10.418C337.564 10.5866 337.778 10.8008 337.924 11.0605C338.07 11.3158 338.143 11.5938 338.143 11.8945C338.143 12.2409 338.076 12.5462 337.944 12.8105C337.817 13.0749 337.63 13.2959 337.384 13.4736C337.138 13.6468 336.839 13.779 336.488 13.8701C336.137 13.9567 335.741 14 335.299 14ZM344.616 6.60352V7.64941H341.198V14H339.934V6.60352H344.616Z" fill="#99A2AD"/>
<path d="M370.508 13.0977C370.809 13.0977 371.087 13.0361 371.342 12.9131C371.597 12.79 371.807 12.6214 371.971 12.4072C372.135 12.1885 372.228 11.9401 372.251 11.6621H373.454C373.431 12.0996 373.283 12.5075 373.01 12.8857C372.741 13.2594 372.388 13.5625 371.95 13.7949C371.513 14.0228 371.032 14.1367 370.508 14.1367C369.952 14.1367 369.466 14.0387 369.052 13.8428C368.642 13.6468 368.3 13.3779 368.026 13.0361C367.757 12.6943 367.555 12.3024 367.418 11.8604C367.286 11.4137 367.22 10.9421 367.22 10.4453V10.1582C367.22 9.66146 367.286 9.19206 367.418 8.75C367.555 8.30339 367.757 7.90918 368.026 7.56738C368.3 7.22559 368.642 6.95671 369.052 6.76074C369.466 6.56478 369.952 6.4668 370.508 6.4668C371.087 6.4668 371.592 6.58529 372.025 6.82227C372.458 7.05469 372.798 7.3737 373.044 7.7793C373.295 8.18034 373.431 8.63607 373.454 9.14648H372.251C372.228 8.84115 372.142 8.56543 371.991 8.31934C371.845 8.07324 371.645 7.87728 371.39 7.73145C371.139 7.58105 370.845 7.50586 370.508 7.50586C370.12 7.50586 369.795 7.58333 369.53 7.73828C369.271 7.88867 369.063 8.09375 368.908 8.35352C368.758 8.60872 368.648 8.89355 368.58 9.20801C368.516 9.5179 368.484 9.83464 368.484 10.1582V10.4453C368.484 10.7689 368.516 11.0879 368.58 11.4023C368.644 11.7168 368.751 12.0016 368.901 12.2568C369.056 12.512 369.264 12.7171 369.523 12.8721C369.788 13.0225 370.116 13.0977 370.508 13.0977ZM377.945 14.1367C377.43 14.1367 376.963 14.0501 376.544 13.877C376.129 13.6992 375.771 13.4508 375.471 13.1318C375.174 12.8128 374.947 12.4346 374.787 11.9971C374.628 11.5596 374.548 11.0811 374.548 10.5615V10.2744C374.548 9.67285 374.637 9.13737 374.814 8.66797C374.992 8.19401 375.234 7.79297 375.539 7.46484C375.844 7.13672 376.191 6.88835 376.578 6.71973C376.965 6.55111 377.367 6.4668 377.781 6.4668C378.31 6.4668 378.766 6.55794 379.148 6.74023C379.536 6.92253 379.853 7.17773 380.099 7.50586C380.345 7.82943 380.527 8.21224 380.646 8.6543C380.764 9.0918 380.823 9.57031 380.823 10.0898V10.6572H375.3V9.625H379.559V9.5293C379.54 9.20117 379.472 8.88216 379.354 8.57227C379.24 8.26237 379.057 8.00716 378.807 7.80664C378.556 7.60612 378.214 7.50586 377.781 7.50586C377.494 7.50586 377.23 7.56738 376.988 7.69043C376.747 7.80892 376.539 7.98665 376.366 8.22363C376.193 8.46061 376.059 8.75 375.963 9.0918C375.867 9.43359 375.819 9.8278 375.819 10.2744V10.5615C375.819 10.9124 375.867 11.2428 375.963 11.5527C376.063 11.8581 376.207 12.127 376.394 12.3594C376.585 12.5918 376.815 12.7741 377.084 12.9062C377.357 13.0384 377.667 13.1045 378.014 13.1045C378.46 13.1045 378.839 13.0133 379.148 12.8311C379.458 12.6488 379.729 12.4049 379.962 12.0996L380.728 12.708C380.568 12.9495 380.365 13.1797 380.119 13.3984C379.873 13.6172 379.57 13.7949 379.21 13.9316C378.854 14.0684 378.433 14.1367 377.945 14.1367ZM387.317 9.80957V10.835H383.407V9.80957H387.317ZM383.674 6.60352V14H382.409V6.60352H383.674ZM388.343 6.60352V14H387.071V6.60352H388.343Z" fill="#99A2AD"/>
<path d="M411.479 10.3838V10.2266C411.479 9.69336 411.557 9.19889 411.712 8.74316C411.867 8.28288 412.09 7.88411 412.382 7.54688C412.674 7.20508 413.027 6.94076 413.441 6.75391C413.856 6.5625 414.321 6.4668 414.836 6.4668C415.355 6.4668 415.823 6.5625 416.237 6.75391C416.657 6.94076 417.012 7.20508 417.304 7.54688C417.6 7.88411 417.826 8.28288 417.98 8.74316C418.135 9.19889 418.213 9.69336 418.213 10.2266V10.3838C418.213 10.917 418.135 11.4115 417.98 11.8672C417.826 12.3229 417.6 12.7217 417.304 13.0635C417.012 13.4007 416.659 13.665 416.244 13.8564C415.834 14.0433 415.369 14.1367 414.85 14.1367C414.33 14.1367 413.863 14.0433 413.448 13.8564C413.034 13.665 412.678 13.4007 412.382 13.0635C412.09 12.7217 411.867 12.3229 411.712 11.8672C411.557 11.4115 411.479 10.917 411.479 10.3838ZM412.744 10.2266V10.3838C412.744 10.7529 412.787 11.1016 412.874 11.4297C412.961 11.7533 413.09 12.0404 413.264 12.291C413.441 12.5417 413.662 12.7399 413.927 12.8857C414.191 13.027 414.499 13.0977 414.85 13.0977C415.196 13.0977 415.499 13.027 415.759 12.8857C416.023 12.7399 416.242 12.5417 416.415 12.291C416.588 12.0404 416.718 11.7533 416.805 11.4297C416.896 11.1016 416.941 10.7529 416.941 10.3838V10.2266C416.941 9.86198 416.896 9.5179 416.805 9.19434C416.718 8.86621 416.586 8.57682 416.408 8.32617C416.235 8.07096 416.016 7.87044 415.752 7.72461C415.492 7.57878 415.187 7.50586 414.836 7.50586C414.49 7.50586 414.184 7.57878 413.92 7.72461C413.66 7.87044 413.441 8.07096 413.264 8.32617C413.09 8.57682 412.961 8.86621 412.874 9.19434C412.787 9.5179 412.744 9.86198 412.744 10.2266ZM421.173 6.60352V14H419.908V6.60352H421.173ZM426.026 6.60352L422.52 10.8418H420.749L420.558 9.73438H422.007L424.488 6.60352H426.026ZM424.666 14L421.945 10.6504L422.759 9.73438L426.272 14H424.666ZM430.388 6.60352V14H429.116V6.60352H430.388ZM432.869 6.60352V7.62891H426.683V6.60352H432.869Z" fill="#99A2AD"/>
<path d="M460.107 9.80957V10.835H456.197V9.80957H460.107ZM456.464 6.60352V14H455.199V6.60352H456.464ZM461.133 6.60352V14H459.861V6.60352H461.133ZM462.835 10.3838V10.2266C462.835 9.69336 462.912 9.19889 463.067 8.74316C463.222 8.28288 463.446 7.88411 463.737 7.54688C464.029 7.20508 464.382 6.94076 464.797 6.75391C465.212 6.5625 465.676 6.4668 466.191 6.4668C466.711 6.4668 467.178 6.5625 467.593 6.75391C468.012 6.94076 468.368 7.20508 468.659 7.54688C468.955 7.88411 469.181 8.28288 469.336 8.74316C469.491 9.19889 469.568 9.69336 469.568 10.2266V10.3838C469.568 10.917 469.491 11.4115 469.336 11.8672C469.181 12.3229 468.955 12.7217 468.659 13.0635C468.368 13.4007 468.014 13.665 467.6 13.8564C467.189 14.0433 466.725 14.1367 466.205 14.1367C465.686 14.1367 465.218 14.0433 464.804 13.8564C464.389 13.665 464.034 13.4007 463.737 13.0635C463.446 12.7217 463.222 12.3229 463.067 11.8672C462.912 11.4115 462.835 10.917 462.835 10.3838ZM464.1 10.2266V10.3838C464.1 10.7529 464.143 11.1016 464.229 11.4297C464.316 11.7533 464.446 12.0404 464.619 12.291C464.797 12.5417 465.018 12.7399 465.282 12.8857C465.547 13.027 465.854 13.0977 466.205 13.0977C466.551 13.0977 466.854 13.027 467.114 12.8857C467.379 12.7399 467.597 12.5417 467.771 12.291C467.944 12.0404 468.074 11.7533 468.16 11.4297C468.251 11.1016 468.297 10.7529 468.297 10.3838V10.2266C468.297 9.86198 468.251 9.5179 468.16 9.19434C468.074 8.86621 467.941 8.57682 467.764 8.32617C467.59 8.07096 467.372 7.87044 467.107 7.72461C466.848 7.57878 466.542 7.50586 466.191 7.50586C465.845 7.50586 465.54 7.57878 465.275 7.72461C465.016 7.87044 464.797 8.07096 464.619 8.32617C464.446 8.57682 464.316 8.86621 464.229 9.19434C464.143 9.5179 464.1 9.86198 464.1 10.2266ZM472.651 10.4727H474.019L471.879 14H470.512L472.651 10.4727ZM473.711 6.60352H476.801V14H475.536V7.62891H473.711C473.351 7.62891 473.057 7.69043 472.829 7.81348C472.601 7.93197 472.435 8.08691 472.33 8.27832C472.225 8.46973 472.173 8.66797 472.173 8.87305C472.173 9.07357 472.221 9.26725 472.316 9.4541C472.412 9.63639 472.562 9.78678 472.768 9.90527C472.973 10.0238 473.237 10.083 473.561 10.083H475.878V11.1221H473.561C473.137 11.1221 472.761 11.0651 472.433 10.9512C472.104 10.8372 471.826 10.68 471.599 10.4795C471.371 10.2744 471.198 10.0352 471.079 9.76172C470.961 9.48372 470.901 9.18294 470.901 8.85938C470.901 8.53581 470.963 8.2373 471.086 7.96387C471.214 7.69043 471.396 7.45117 471.633 7.24609C471.874 7.04102 472.168 6.88379 472.515 6.77441C472.866 6.66048 473.264 6.60352 473.711 6.60352Z" fill="#99A2AD"/>
<path d="M500.573 6.60352H501.838L501.729 9.37207C501.701 10.0739 501.621 10.68 501.489 11.1904C501.357 11.7008 501.188 12.1361 500.983 12.4961C500.778 12.8516 500.548 13.1501 500.293 13.3916C500.042 13.6331 499.783 13.8359 499.514 14H498.885L498.919 12.9678L499.179 12.9609C499.329 12.7832 499.475 12.6009 499.616 12.4141C499.757 12.2227 499.887 11.9971 500.006 11.7373C500.124 11.473 500.222 11.1517 500.3 10.7734C500.382 10.3906 500.434 9.9235 500.457 9.37207L500.573 6.60352ZM500.888 6.60352H505.338V14H504.073V7.77246H500.888V6.60352ZM498.598 12.9609H506.288V16.1807H505.023V14H499.862V16.1807H498.591L498.598 12.9609ZM510.759 14.1367C510.244 14.1367 509.777 14.0501 509.357 13.877C508.943 13.6992 508.585 13.4508 508.284 13.1318C507.988 12.8128 507.76 12.4346 507.601 11.9971C507.441 11.5596 507.361 11.0811 507.361 10.5615V10.2744C507.361 9.67285 507.45 9.13737 507.628 8.66797C507.806 8.19401 508.047 7.79297 508.353 7.46484C508.658 7.13672 509.004 6.88835 509.392 6.71973C509.779 6.55111 510.18 6.4668 510.595 6.4668C511.123 6.4668 511.579 6.55794 511.962 6.74023C512.349 6.92253 512.666 7.17773 512.912 7.50586C513.158 7.82943 513.34 8.21224 513.459 8.6543C513.577 9.0918 513.637 9.57031 513.637 10.0898V10.6572H508.113V9.625H512.372V9.5293C512.354 9.20117 512.285 8.88216 512.167 8.57227C512.053 8.26237 511.871 8.00716 511.62 7.80664C511.369 7.60612 511.028 7.50586 510.595 7.50586C510.308 7.50586 510.043 7.56738 509.802 7.69043C509.56 7.80892 509.353 7.98665 509.18 8.22363C509.007 8.46061 508.872 8.75 508.776 9.0918C508.681 9.43359 508.633 9.8278 508.633 10.2744V10.5615C508.633 10.9124 508.681 11.2428 508.776 11.5527C508.877 11.8581 509.02 12.127 509.207 12.3594C509.398 12.5918 509.629 12.7741 509.897 12.9062C510.171 13.0384 510.481 13.1045 510.827 13.1045C511.274 13.1045 511.652 13.0133 511.962 12.8311C512.272 12.6488 512.543 12.4049 512.775 12.0996L513.541 12.708C513.382 12.9495 513.179 13.1797 512.933 13.3984C512.687 13.6172 512.383 13.7949 512.023 13.9316C511.668 14.0684 511.246 14.1367 510.759 14.1367ZM516.487 6.60352V14H515.223V6.60352H516.487ZM521.341 6.60352L517.834 10.8418H516.063L515.872 9.73438H517.321L519.803 6.60352H521.341ZM519.98 14L517.26 10.6504L518.073 9.73438L521.587 14H519.98Z" fill="#99A2AD"/>
</svg>
