<svg width="34" height="112" viewBox="0 0 34 112" fill="none" xmlns="http://www.w3.org/2000/svg">
<path d="M5.04395 3.99219V14H3.7793V5.57129L1.22949 6.50098V5.35938L4.8457 3.99219H5.04395ZM15.0107 8.23047V9.74805C15.0107 10.5638 14.9378 11.252 14.792 11.8125C14.6462 12.373 14.4365 12.8242 14.1631 13.166C13.8896 13.5078 13.5592 13.7562 13.1719 13.9111C12.7891 14.0615 12.3561 14.1367 11.873 14.1367C11.4902 14.1367 11.137 14.0889 10.8135 13.9932C10.4899 13.8975 10.1982 13.7448 9.93848 13.5352C9.68327 13.321 9.46452 13.043 9.28223 12.7012C9.09993 12.3594 8.96094 11.9447 8.86523 11.457C8.76953 10.9694 8.72168 10.3997 8.72168 9.74805V8.23047C8.72168 7.41471 8.7946 6.73112 8.94043 6.17969C9.09082 5.62826 9.30273 5.1862 9.57617 4.85352C9.84961 4.51628 10.1777 4.27474 10.5605 4.12891C10.9479 3.98307 11.3809 3.91016 11.8594 3.91016C12.2467 3.91016 12.6022 3.95801 12.9258 4.05371C13.2539 4.14486 13.5456 4.29297 13.8008 4.49805C14.056 4.69857 14.2725 4.96745 14.4502 5.30469C14.6325 5.63737 14.7715 6.04525 14.8672 6.52832C14.9629 7.01139 15.0107 7.57878 15.0107 8.23047ZM13.7393 9.95312V8.01855C13.7393 7.57194 13.7119 7.18001 13.6572 6.84277C13.6071 6.50098 13.5319 6.20931 13.4316 5.96777C13.3314 5.72624 13.2038 5.53027 13.0488 5.37988C12.8984 5.22949 12.723 5.12012 12.5225 5.05176C12.3265 4.97884 12.1055 4.94238 11.8594 4.94238C11.5586 4.94238 11.292 4.99935 11.0596 5.11328C10.8271 5.22266 10.6312 5.39811 10.4717 5.63965C10.3167 5.88118 10.1982 6.19792 10.1162 6.58984C10.0342 6.98177 9.99316 7.45801 9.99316 8.01855V9.95312C9.99316 10.3997 10.0182 10.7939 10.0684 11.1357C10.123 11.4775 10.2028 11.7738 10.3076 12.0244C10.4124 12.2705 10.54 12.4733 10.6904 12.6328C10.8408 12.7923 11.014 12.9108 11.21 12.9883C11.4105 13.0612 11.6315 13.0977 11.873 13.0977C12.1829 13.0977 12.4541 13.0384 12.6865 12.9199C12.9189 12.8014 13.1126 12.6169 13.2676 12.3662C13.4271 12.111 13.5456 11.7852 13.623 11.3887C13.7005 10.9876 13.7393 10.5091 13.7393 9.95312ZM22.8857 8.23047V9.74805C22.8857 10.5638 22.8128 11.252 22.667 11.8125C22.5212 12.373 22.3115 12.8242 22.0381 13.166C21.7646 13.5078 21.4342 13.7562 21.0469 13.9111C20.6641 14.0615 20.2311 14.1367 19.748 14.1367C19.3652 14.1367 19.012 14.0889 18.6885 13.9932C18.3649 13.8975 18.0732 13.7448 17.8135 13.5352C17.5583 13.321 17.3395 13.043 17.1572 12.7012C16.9749 12.3594 16.8359 11.9447 16.7402 11.457C16.6445 10.9694 16.5967 10.3997 16.5967 9.74805V8.23047C16.5967 7.41471 16.6696 6.73112 16.8154 6.17969C16.9658 5.62826 17.1777 5.1862 17.4512 4.85352C17.7246 4.51628 18.0527 4.27474 18.4355 4.12891C18.8229 3.98307 19.2559 3.91016 19.7344 3.91016C20.1217 3.91016 20.4772 3.95801 20.8008 4.05371C21.1289 4.14486 21.4206 4.29297 21.6758 4.49805C21.931 4.69857 22.1475 4.96745 22.3252 5.30469C22.5075 5.63737 22.6465 6.04525 22.7422 6.52832C22.8379 7.01139 22.8857 7.57878 22.8857 8.23047ZM21.6143 9.95312V8.01855C21.6143 7.57194 21.5869 7.18001 21.5322 6.84277C21.4821 6.50098 21.4069 6.20931 21.3066 5.96777C21.2064 5.72624 21.0788 5.53027 20.9238 5.37988C20.7734 5.22949 20.598 5.12012 20.3975 5.05176C20.2015 4.97884 19.9805 4.94238 19.7344 4.94238C19.4336 4.94238 19.167 4.99935 18.9346 5.11328C18.7021 5.22266 18.5062 5.39811 18.3467 5.63965C18.1917 5.88118 18.0732 6.19792 17.9912 6.58984C17.9092 6.98177 17.8682 7.45801 17.8682 8.01855V9.95312C17.8682 10.3997 17.8932 10.7939 17.9434 11.1357C17.998 11.4775 18.0778 11.7738 18.1826 12.0244C18.2874 12.2705 18.415 12.4733 18.5654 12.6328C18.7158 12.7923 18.889 12.9108 19.085 12.9883C19.2855 13.0612 19.5065 13.0977 19.748 13.0977C20.0579 13.0977 20.3291 13.0384 20.5615 12.9199C20.7939 12.8014 20.9876 12.6169 21.1426 12.3662C21.3021 12.111 21.4206 11.7852 21.498 11.3887C21.5755 10.9876 21.6143 10.5091 21.6143 9.95312ZM24.4033 6.4873V5.96094C24.4033 5.58268 24.4854 5.23861 24.6494 4.92871C24.8135 4.61882 25.0482 4.37044 25.3535 4.18359C25.6589 3.99674 26.0212 3.90332 26.4404 3.90332C26.8688 3.90332 27.2334 3.99674 27.5342 4.18359C27.8395 4.37044 28.0742 4.61882 28.2383 4.92871C28.4023 5.23861 28.4844 5.58268 28.4844 5.96094V6.4873C28.4844 6.85645 28.4023 7.19596 28.2383 7.50586C28.0788 7.81576 27.8464 8.06413 27.541 8.25098C27.2402 8.43783 26.8779 8.53125 26.4541 8.53125C26.0303 8.53125 25.6634 8.43783 25.3535 8.25098C25.0482 8.06413 24.8135 7.81576 24.6494 7.50586C24.4854 7.19596 24.4033 6.85645 24.4033 6.4873ZM25.3535 5.96094V6.4873C25.3535 6.69694 25.3923 6.89518 25.4697 7.08203C25.5518 7.26888 25.6748 7.42155 25.8389 7.54004C26.0029 7.65397 26.208 7.71094 26.4541 7.71094C26.7002 7.71094 26.903 7.65397 27.0625 7.54004C27.222 7.42155 27.3405 7.26888 27.418 7.08203C27.4954 6.89518 27.5342 6.69694 27.5342 6.4873V5.96094C27.5342 5.74674 27.4932 5.54622 27.4111 5.35938C27.3337 5.16797 27.2129 5.0153 27.0488 4.90137C26.8893 4.78288 26.6865 4.72363 26.4404 4.72363C26.1989 4.72363 25.9961 4.78288 25.832 4.90137C25.6725 5.0153 25.5518 5.16797 25.4697 5.35938C25.3923 5.54622 25.3535 5.74674 25.3535 5.96094ZM29.25 12.0928V11.5596C29.25 11.1859 29.332 10.8441 29.4961 10.5342C29.6602 10.2243 29.8949 9.97591 30.2002 9.78906C30.5055 9.60221 30.8678 9.50879 31.2871 9.50879C31.7155 9.50879 32.0801 9.60221 32.3809 9.78906C32.6862 9.97591 32.9209 10.2243 33.085 10.5342C33.249 10.8441 33.3311 11.1859 33.3311 11.5596V12.0928C33.3311 12.4665 33.249 12.8083 33.085 13.1182C32.9255 13.4281 32.693 13.6764 32.3877 13.8633C32.0869 14.0501 31.7246 14.1436 31.3008 14.1436C30.877 14.1436 30.5124 14.0501 30.207 13.8633C29.9017 13.6764 29.6647 13.4281 29.4961 13.1182C29.332 12.8083 29.25 12.4665 29.25 12.0928ZM30.2002 11.5596V12.0928C30.2002 12.3024 30.2389 12.5029 30.3164 12.6943C30.3984 12.8812 30.5215 13.0339 30.6855 13.1523C30.8496 13.2663 31.0547 13.3232 31.3008 13.3232C31.5469 13.3232 31.7497 13.2663 31.9092 13.1523C32.0732 13.0339 32.194 12.8812 32.2715 12.6943C32.349 12.5075 32.3877 12.307 32.3877 12.0928V11.5596C32.3877 11.3454 32.3467 11.1449 32.2646 10.958C32.1872 10.7712 32.0664 10.6208 31.9023 10.5068C31.7428 10.3883 31.5378 10.3291 31.2871 10.3291C31.0456 10.3291 30.8428 10.3883 30.6787 10.5068C30.5192 10.6208 30.3984 10.7712 30.3164 10.958C30.2389 11.1449 30.2002 11.3454 30.2002 11.5596ZM31.6016 5.46191L26.7412 13.2412L26.0303 12.79L30.8906 5.01074L31.6016 5.46191Z" fill="#99A2AD"/>
<path d="M6.4248 56.2627L5.41309 56.0029L5.91211 51.0469H11.0186V52.2158H6.98535L6.68457 54.9229C6.86686 54.818 7.09701 54.7201 7.375 54.6289C7.65755 54.5378 7.98112 54.4922 8.3457 54.4922C8.80599 54.4922 9.21842 54.5719 9.58301 54.7314C9.94759 54.8864 10.2575 55.1097 10.5127 55.4014C10.7725 55.693 10.9707 56.0439 11.1074 56.4541C11.2441 56.8643 11.3125 57.3223 11.3125 57.8281C11.3125 58.3066 11.2464 58.7464 11.1143 59.1475C10.9867 59.5485 10.793 59.8994 10.5332 60.2002C10.2734 60.4964 9.94531 60.7266 9.54883 60.8906C9.1569 61.0547 8.69434 61.1367 8.16113 61.1367C7.76009 61.1367 7.37956 61.082 7.01953 60.9727C6.66406 60.8587 6.34505 60.6878 6.0625 60.46C5.78451 60.2275 5.55664 59.9404 5.37891 59.5986C5.20573 59.2523 5.09635 58.8467 5.05078 58.3818H6.25391C6.30859 58.7555 6.41797 59.07 6.58203 59.3252C6.74609 59.5804 6.96029 59.7741 7.22461 59.9062C7.49349 60.0339 7.80566 60.0977 8.16113 60.0977C8.46191 60.0977 8.72852 60.0452 8.96094 59.9404C9.19336 59.8356 9.38932 59.6852 9.54883 59.4893C9.70833 59.2933 9.8291 59.0563 9.91113 58.7783C9.99772 58.5003 10.041 58.1882 10.041 57.8418C10.041 57.5273 9.99772 57.2357 9.91113 56.9668C9.82454 56.6979 9.69466 56.4632 9.52148 56.2627C9.35286 56.0622 9.14551 55.9072 8.89941 55.7979C8.65332 55.6839 8.37077 55.627 8.05176 55.627C7.62793 55.627 7.30664 55.6839 7.08789 55.7979C6.8737 55.9118 6.65267 56.0667 6.4248 56.2627ZM18.9482 55.2305V56.748C18.9482 57.5638 18.8753 58.252 18.7295 58.8125C18.5837 59.373 18.374 59.8242 18.1006 60.166C17.8271 60.5078 17.4967 60.7562 17.1094 60.9111C16.7266 61.0615 16.2936 61.1367 15.8105 61.1367C15.4277 61.1367 15.0745 61.0889 14.751 60.9932C14.4274 60.8975 14.1357 60.7448 13.876 60.5352C13.6208 60.321 13.402 60.043 13.2197 59.7012C13.0374 59.3594 12.8984 58.9447 12.8027 58.457C12.707 57.9694 12.6592 57.3997 12.6592 56.748V55.2305C12.6592 54.4147 12.7321 53.7311 12.8779 53.1797C13.0283 52.6283 13.2402 52.1862 13.5137 51.8535C13.7871 51.5163 14.1152 51.2747 14.498 51.1289C14.8854 50.9831 15.3184 50.9102 15.7969 50.9102C16.1842 50.9102 16.5397 50.958 16.8633 51.0537C17.1914 51.1449 17.4831 51.293 17.7383 51.498C17.9935 51.6986 18.21 51.9674 18.3877 52.3047C18.57 52.6374 18.709 53.0452 18.8047 53.5283C18.9004 54.0114 18.9482 54.5788 18.9482 55.2305ZM17.6768 56.9531V55.0186C17.6768 54.5719 17.6494 54.18 17.5947 53.8428C17.5446 53.501 17.4694 53.2093 17.3691 52.9678C17.2689 52.7262 17.1413 52.5303 16.9863 52.3799C16.8359 52.2295 16.6605 52.1201 16.46 52.0518C16.264 51.9788 16.043 51.9424 15.7969 51.9424C15.4961 51.9424 15.2295 51.9993 14.9971 52.1133C14.7646 52.2227 14.5687 52.3981 14.4092 52.6396C14.2542 52.8812 14.1357 53.1979 14.0537 53.5898C13.9717 53.9818 13.9307 54.458 13.9307 55.0186V56.9531C13.9307 57.3997 13.9557 57.7939 14.0059 58.1357C14.0605 58.4775 14.1403 58.7738 14.2451 59.0244C14.3499 59.2705 14.4775 59.4733 14.6279 59.6328C14.7783 59.7923 14.9515 59.9108 15.1475 59.9883C15.348 60.0612 15.569 60.0977 15.8105 60.0977C16.1204 60.0977 16.3916 60.0384 16.624 59.9199C16.8564 59.8014 17.0501 59.6169 17.2051 59.3662C17.3646 59.111 17.4831 58.7852 17.5605 58.3887C17.638 57.9876 17.6768 57.5091 17.6768 56.9531ZM20.4658 53.4873V52.9609C20.4658 52.5827 20.5479 52.2386 20.7119 51.9287C20.876 51.6188 21.1107 51.3704 21.416 51.1836C21.7214 50.9967 22.0837 50.9033 22.5029 50.9033C22.9313 50.9033 23.2959 50.9967 23.5967 51.1836C23.902 51.3704 24.1367 51.6188 24.3008 51.9287C24.4648 52.2386 24.5469 52.5827 24.5469 52.9609V53.4873C24.5469 53.8564 24.4648 54.196 24.3008 54.5059C24.1413 54.8158 23.9089 55.0641 23.6035 55.251C23.3027 55.4378 22.9404 55.5312 22.5166 55.5312C22.0928 55.5312 21.7259 55.4378 21.416 55.251C21.1107 55.0641 20.876 54.8158 20.7119 54.5059C20.5479 54.196 20.4658 53.8564 20.4658 53.4873ZM21.416 52.9609V53.4873C21.416 53.6969 21.4548 53.8952 21.5322 54.082C21.6143 54.2689 21.7373 54.4215 21.9014 54.54C22.0654 54.654 22.2705 54.7109 22.5166 54.7109C22.7627 54.7109 22.9655 54.654 23.125 54.54C23.2845 54.4215 23.403 54.2689 23.4805 54.082C23.5579 53.8952 23.5967 53.6969 23.5967 53.4873V52.9609C23.5967 52.7467 23.5557 52.5462 23.4736 52.3594C23.3962 52.168 23.2754 52.0153 23.1113 51.9014C22.9518 51.7829 22.749 51.7236 22.5029 51.7236C22.2614 51.7236 22.0586 51.7829 21.8945 51.9014C21.735 52.0153 21.6143 52.168 21.5322 52.3594C21.4548 52.5462 21.416 52.7467 21.416 52.9609ZM25.3125 59.0928V58.5596C25.3125 58.1859 25.3945 57.8441 25.5586 57.5342C25.7227 57.2243 25.9574 56.9759 26.2627 56.7891C26.568 56.6022 26.9303 56.5088 27.3496 56.5088C27.778 56.5088 28.1426 56.6022 28.4434 56.7891C28.7487 56.9759 28.9834 57.2243 29.1475 57.5342C29.3115 57.8441 29.3936 58.1859 29.3936 58.5596V59.0928C29.3936 59.4665 29.3115 59.8083 29.1475 60.1182C28.988 60.4281 28.7555 60.6764 28.4502 60.8633C28.1494 61.0501 27.7871 61.1436 27.3633 61.1436C26.9395 61.1436 26.5749 61.0501 26.2695 60.8633C25.9642 60.6764 25.7272 60.4281 25.5586 60.1182C25.3945 59.8083 25.3125 59.4665 25.3125 59.0928ZM26.2627 58.5596V59.0928C26.2627 59.3024 26.3014 59.5029 26.3789 59.6943C26.4609 59.8812 26.584 60.0339 26.748 60.1523C26.9121 60.2663 27.1172 60.3232 27.3633 60.3232C27.6094 60.3232 27.8122 60.2663 27.9717 60.1523C28.1357 60.0339 28.2565 59.8812 28.334 59.6943C28.4115 59.5075 28.4502 59.307 28.4502 59.0928V58.5596C28.4502 58.3454 28.4092 58.1449 28.3271 57.958C28.2497 57.7712 28.1289 57.6208 27.9648 57.5068C27.8053 57.3883 27.6003 57.3291 27.3496 57.3291C27.1081 57.3291 26.9053 57.3883 26.7412 57.5068C26.5817 57.6208 26.4609 57.7712 26.3789 57.958C26.3014 58.1449 26.2627 58.3454 26.2627 58.5596ZM27.6641 52.4619L22.8037 60.2412L22.0928 59.79L26.9531 52.0107L27.6641 52.4619Z" fill="#99A2AD"/>
<path d="M15.0107 102.23V103.748C15.0107 104.564 14.9378 105.252 14.792 105.812C14.6462 106.373 14.4365 106.824 14.1631 107.166C13.8896 107.508 13.5592 107.756 13.1719 107.911C12.7891 108.062 12.3561 108.137 11.873 108.137C11.4902 108.137 11.137 108.089 10.8135 107.993C10.4899 107.897 10.1982 107.745 9.93848 107.535C9.68327 107.321 9.46452 107.043 9.28223 106.701C9.09993 106.359 8.96094 105.945 8.86523 105.457C8.76953 104.969 8.72168 104.4 8.72168 103.748V102.23C8.72168 101.415 8.7946 100.731 8.94043 100.18C9.09082 99.6283 9.30273 99.1862 9.57617 98.8535C9.84961 98.5163 10.1777 98.2747 10.5605 98.1289C10.9479 97.9831 11.3809 97.9102 11.8594 97.9102C12.2467 97.9102 12.6022 97.958 12.9258 98.0537C13.2539 98.1449 13.5456 98.293 13.8008 98.498C14.056 98.6986 14.2725 98.9674 14.4502 99.3047C14.6325 99.6374 14.7715 100.045 14.8672 100.528C14.9629 101.011 15.0107 101.579 15.0107 102.23ZM13.7393 103.953V102.019C13.7393 101.572 13.7119 101.18 13.6572 100.843C13.6071 100.501 13.5319 100.209 13.4316 99.9678C13.3314 99.7262 13.2038 99.5303 13.0488 99.3799C12.8984 99.2295 12.723 99.1201 12.5225 99.0518C12.3265 98.9788 12.1055 98.9424 11.8594 98.9424C11.5586 98.9424 11.292 98.9993 11.0596 99.1133C10.8271 99.2227 10.6312 99.3981 10.4717 99.6396C10.3167 99.8812 10.1982 100.198 10.1162 100.59C10.0342 100.982 9.99316 101.458 9.99316 102.019V103.953C9.99316 104.4 10.0182 104.794 10.0684 105.136C10.123 105.478 10.2028 105.774 10.3076 106.024C10.4124 106.271 10.54 106.473 10.6904 106.633C10.8408 106.792 11.014 106.911 11.21 106.988C11.4105 107.061 11.6315 107.098 11.873 107.098C12.1829 107.098 12.4541 107.038 12.6865 106.92C12.9189 106.801 13.1126 106.617 13.2676 106.366C13.4271 106.111 13.5456 105.785 13.623 105.389C13.7005 104.988 13.7393 104.509 13.7393 103.953ZM16.5283 100.487V99.9609C16.5283 99.5827 16.6104 99.2386 16.7744 98.9287C16.9385 98.6188 17.1732 98.3704 17.4785 98.1836C17.7839 97.9967 18.1462 97.9033 18.5654 97.9033C18.9938 97.9033 19.3584 97.9967 19.6592 98.1836C19.9645 98.3704 20.1992 98.6188 20.3633 98.9287C20.5273 99.2386 20.6094 99.5827 20.6094 99.9609V100.487C20.6094 100.856 20.5273 101.196 20.3633 101.506C20.2038 101.816 19.9714 102.064 19.666 102.251C19.3652 102.438 19.0029 102.531 18.5791 102.531C18.1553 102.531 17.7884 102.438 17.4785 102.251C17.1732 102.064 16.9385 101.816 16.7744 101.506C16.6104 101.196 16.5283 100.856 16.5283 100.487ZM17.4785 99.9609V100.487C17.4785 100.697 17.5173 100.895 17.5947 101.082C17.6768 101.269 17.7998 101.422 17.9639 101.54C18.1279 101.654 18.333 101.711 18.5791 101.711C18.8252 101.711 19.028 101.654 19.1875 101.54C19.347 101.422 19.4655 101.269 19.543 101.082C19.6204 100.895 19.6592 100.697 19.6592 100.487V99.9609C19.6592 99.7467 19.6182 99.5462 19.5361 99.3594C19.4587 99.168 19.3379 99.0153 19.1738 98.9014C19.0143 98.7829 18.8115 98.7236 18.5654 98.7236C18.3239 98.7236 18.1211 98.7829 17.957 98.9014C17.7975 99.0153 17.6768 99.168 17.5947 99.3594C17.5173 99.5462 17.4785 99.7467 17.4785 99.9609ZM21.375 106.093V105.56C21.375 105.186 21.457 104.844 21.6211 104.534C21.7852 104.224 22.0199 103.976 22.3252 103.789C22.6305 103.602 22.9928 103.509 23.4121 103.509C23.8405 103.509 24.2051 103.602 24.5059 103.789C24.8112 103.976 25.0459 104.224 25.21 104.534C25.374 104.844 25.4561 105.186 25.4561 105.56V106.093C25.4561 106.466 25.374 106.808 25.21 107.118C25.0505 107.428 24.818 107.676 24.5127 107.863C24.2119 108.05 23.8496 108.144 23.4258 108.144C23.002 108.144 22.6374 108.05 22.332 107.863C22.0267 107.676 21.7897 107.428 21.6211 107.118C21.457 106.808 21.375 106.466 21.375 106.093ZM22.3252 105.56V106.093C22.3252 106.302 22.3639 106.503 22.4414 106.694C22.5234 106.881 22.6465 107.034 22.8105 107.152C22.9746 107.266 23.1797 107.323 23.4258 107.323C23.6719 107.323 23.8747 107.266 24.0342 107.152C24.1982 107.034 24.319 106.881 24.3965 106.694C24.474 106.507 24.5127 106.307 24.5127 106.093V105.56C24.5127 105.345 24.4717 105.145 24.3896 104.958C24.3122 104.771 24.1914 104.621 24.0273 104.507C23.8678 104.388 23.6628 104.329 23.4121 104.329C23.1706 104.329 22.9678 104.388 22.8037 104.507C22.6442 104.621 22.5234 104.771 22.4414 104.958C22.3639 105.145 22.3252 105.345 22.3252 105.56ZM23.7266 99.4619L18.8662 107.241L18.1553 106.79L23.0156 99.0107L23.7266 99.4619Z" fill="#99A2AD"/>
</svg>
