<svg width="25" height="24" viewBox="0 0 25 24" fill="none" xmlns="http://www.w3.org/2000/svg">
<g clip-path="url(#clip0_1424_63896)">
<path d="M12.5996 0C5.98281 0 0.599609 5.3832 0.599609 12C0.599609 18.6168 5.98281 24 12.5996 24C19.2164 24 24.5996 18.6168 24.5996 12C24.5996 5.3832 19.2164 0 12.5996 0ZM12.5996 22.3824C6.87561 22.3824 2.21721 17.724 2.21721 12C2.21721 6.276 6.87561 1.6176 12.5996 1.6176C18.3236 1.6176 22.982 6.276 22.982 12C22.982 17.724 18.3236 22.3824 12.5996 22.3824ZM18.6212 11.1912C18.1748 11.1912 17.8124 11.5536 17.8124 12C17.8124 14.8752 15.4748 17.2128 12.5996 17.2128C9.72441 17.2128 7.38681 14.8752 7.38681 12C7.38681 11.5536 7.02441 11.1912 6.57801 11.1912C6.13161 11.1912 5.76921 11.5536 5.76921 12C5.76921 15.768 8.83161 18.8304 12.5996 18.8304C16.3676 18.8304 19.43 15.768 19.43 12C19.43 11.5536 19.07 11.1912 18.6212 11.1912ZM11.3468 8.3136C11.3468 8.964 10.8212 9.4896 10.1732 9.4896C9.52521 9.4896 8.99961 8.964 8.99961 8.3136C8.99961 7.6656 9.52521 7.14 10.1732 7.14C10.8212 7.14 11.3468 7.6656 11.3468 8.3136ZM15.6044 7.2912C16.1684 7.608 16.3676 8.3256 16.0508 8.8896C15.734 9.4536 15.0164 9.6552 14.4524 9.3384C13.886 9.0192 13.6868 8.304 14.0036 7.7376C14.3204 7.1712 15.038 6.972 15.6044 7.2912Z" fill="#00B750"/>
</g>
<defs>
<clipPath id="clip0_1424_63896">
<rect width="24" height="24" fill="white" transform="translate(0.599609)"/>
</clipPath>
</defs>
</svg>
