<svg width="25" height="24" viewBox="0 0 25 24" fill="none" xmlns="http://www.w3.org/2000/svg">
<g clip-path="url(#clip0_1424_63872)">
<path d="M12.7002 0C6.0834 0 0.700195 5.3832 0.700195 12C0.700195 18.6168 6.0834 24 12.7002 24C19.317 24 24.7002 18.6168 24.7002 12C24.7002 5.3832 19.317 0 12.7002 0ZM12.7002 22.3824C6.9762 22.3824 2.3178 17.724 2.3178 12C2.3178 6.276 6.9762 1.6176 12.7002 1.6176C18.4242 1.6176 23.0826 6.276 23.0826 12C23.0826 17.724 18.4242 22.3824 12.7002 22.3824ZM12.7002 11.532C9.9642 11.532 7.581 13.0416 6.477 15.4704C6.2922 15.8784 6.4722 16.356 6.8802 16.5408C7.2882 16.7256 7.7658 16.5456 7.9506 16.1376C8.7882 14.2968 10.6074 13.152 12.7002 13.152C14.793 13.152 16.6122 14.2968 17.4498 16.14C17.5842 16.4376 17.8794 16.6152 18.1866 16.6152C18.2994 16.6152 18.4122 16.5912 18.5202 16.5432C18.9282 16.3584 19.1082 15.8784 18.9234 15.4728C17.8194 13.0416 15.4362 11.532 12.7002 11.532ZM10.2738 9.4896C10.9218 9.4896 11.4474 8.964 11.4474 8.316C11.4474 7.668 10.9218 7.1424 10.2738 7.1424C9.6258 7.1424 9.10019 7.668 9.10019 8.316C9.0978 8.964 9.62339 9.4896 10.2738 9.4896ZM14.5506 9.3384C15.1146 9.6576 15.8322 9.456 16.149 8.892C16.4682 8.3256 16.2666 7.6104 15.7026 7.2936C15.1386 6.9768 14.421 7.176 14.1042 7.74C13.785 8.304 13.9866 9.0192 14.5506 9.3384Z" fill="#FA3D33"/>
</g>
<defs>
<clipPath id="clip0_1424_63872">
<rect width="24" height="24" fill="white" transform="translate(0.700195)"/>
</clipPath>
</defs>
</svg>
