<svg width="36" height="36" viewBox="0 0 36 36" fill="none" xmlns="http://www.w3.org/2000/svg">
<g filter="url(#filter0_d_2354_62654)">
<path fill-rule="evenodd" clip-rule="evenodd" d="M14.5719 15.9992C14.5719 14.1057 16.1069 12.5706 18.0005 12.5706C19.894 12.5706 21.429 14.1057 21.429 15.9992C21.429 17.8928 19.894 19.4278 18.0005 19.4278C16.1069 19.4278 14.5719 17.8928 14.5719 15.9992ZM18.0005 10.2849C14.8445 10.2849 12.2862 12.8433 12.2862 15.9992C12.2862 19.1551 14.8445 21.7135 18.0005 21.7135C21.1564 21.7135 23.7147 19.1551 23.7147 15.9992C23.7147 12.8433 21.1564 10.2849 18.0005 10.2849Z" fill="white"/>
<path fill-rule="evenodd" clip-rule="evenodd" d="M16.4728 3.42777L16.3856 3.42775C15.8496 3.42757 15.4462 3.42743 15.0587 3.49423C14.0873 3.6617 13.196 4.1387 12.5178 4.8541C12.2473 5.13945 12.0236 5.47516 11.7265 5.92125L11.6781 5.99383L11.5804 6.1404C11.433 6.36148 11.4021 6.40542 11.3744 6.43915C11.1825 6.67255 10.9061 6.82049 10.6055 6.85064C10.5621 6.855 10.5084 6.85634 10.2426 6.85634L10.1403 6.85633C9.48354 6.85616 9.01923 6.85604 8.61092 6.92183C6.42128 7.27464 4.70446 8.99146 4.35165 11.1811C4.28586 11.5894 4.28598 12.0537 4.28615 12.7105L4.28617 12.8128L4.28617 17.1921C4.28616 18.7498 4.28615 19.9887 4.36781 20.9883C4.45144 22.0118 4.62637 22.8846 5.03355 23.6837C5.69097 24.974 6.73998 26.023 8.03023 26.6804C8.82937 27.0876 9.70214 27.2625 10.7257 27.3461C11.7252 27.4278 12.9641 27.4278 14.5218 27.4278H21.4791C23.0368 27.4278 24.2757 27.4278 25.2752 27.3461C26.2988 27.2625 27.1715 27.0876 27.9707 26.6804C29.2609 26.023 30.3099 24.974 30.9674 23.6837C31.3745 22.8846 31.5495 22.0118 31.6331 20.9883C31.7148 19.9887 31.7147 18.7499 31.7147 17.1921V12.8128L31.7148 12.7105C31.7149 12.0537 31.715 11.5894 31.6492 11.1811C31.2964 8.99146 29.5796 7.27464 27.39 6.92183C26.9817 6.85604 26.5174 6.85616 25.8606 6.85633L25.7583 6.85634C25.4926 6.85634 25.4388 6.855 25.3954 6.85064C25.0948 6.82049 24.8184 6.67255 24.6265 6.43915C24.5988 6.40542 24.5679 6.36149 24.4205 6.1404L24.3228 5.99383L24.2744 5.92123C23.9773 5.47515 23.7536 5.13945 23.4831 4.8541C22.8049 4.1387 21.9136 3.6617 20.9422 3.49423C20.5547 3.42743 20.1513 3.42757 19.6153 3.42775L19.5281 3.42777H16.4728ZM16.4728 5.71349C15.8117 5.71349 15.617 5.71741 15.4471 5.74671C14.9613 5.83045 14.5157 6.06895 14.1766 6.42665C14.0579 6.55183 13.9466 6.71165 13.5799 7.26172L13.4822 7.40829L13.4591 7.44301C13.3477 7.61025 13.2501 7.75676 13.1402 7.89049C12.5647 8.59067 11.7354 9.03451 10.8336 9.12495C10.6613 9.14222 10.4853 9.14215 10.2844 9.14207L10.2426 9.14206C9.44235 9.14206 9.17755 9.14573 8.97452 9.17844C7.75805 9.37445 6.80427 10.3282 6.60826 11.5447C6.57555 11.7477 6.57188 12.0125 6.57188 12.8128V17.1421C6.57188 18.7611 6.57277 19.9066 6.64594 20.8021C6.71802 21.6843 6.8545 22.2228 7.07014 22.646C7.50841 23.5062 8.20775 24.2055 9.06792 24.6438C9.49114 24.8594 10.0296 24.9959 10.9118 25.068C11.8073 25.1412 12.9529 25.1421 14.5719 25.1421H21.429C23.048 25.1421 24.1936 25.1412 25.0891 25.068C25.9713 24.9959 26.5098 24.8594 26.933 24.6438C27.7931 24.2055 28.4925 23.5062 28.9308 22.646C29.1464 22.2228 29.2829 21.6843 29.355 20.8021C29.4281 19.9066 29.429 18.7611 29.429 17.1421V12.8128C29.429 12.0125 29.4254 11.7477 29.3926 11.5447C29.1966 10.3282 28.2428 9.37445 27.0264 9.17844C26.8233 9.14573 26.5586 9.14206 25.7583 9.14206L25.7165 9.14207C25.5156 9.14215 25.3396 9.14222 25.1673 9.12495C24.2655 9.03451 23.4362 8.59067 22.8607 7.89049C22.7508 7.75676 22.6532 7.61024 22.5418 7.44302L22.5187 7.40829L22.421 7.26172C22.0543 6.71165 21.943 6.55183 21.8243 6.42665C21.4852 6.06895 21.0396 5.83045 20.5538 5.74671C20.3839 5.71741 20.1892 5.71349 19.5281 5.71349H16.4728Z" fill="white"/>
</g>
<defs>
<filter id="filter0_d_2354_62654" x="-2" y="0" width="40" height="40" filterUnits="userSpaceOnUse" color-interpolation-filters="sRGB">
<feFlood flood-opacity="0" result="BackgroundImageFix"/>
<feColorMatrix in="SourceAlpha" type="matrix" values="0 0 0 0 0 0 0 0 0 0 0 0 0 0 0 0 0 0 127 0" result="hardAlpha"/>
<feOffset dy="4"/>
<feGaussianBlur stdDeviation="2"/>
<feComposite in2="hardAlpha" operator="out"/>
<feColorMatrix type="matrix" values="0 0 0 0 0 0 0 0 0 0 0 0 0 0 0 0 0 0 0.25 0"/>
<feBlend mode="normal" in2="BackgroundImageFix" result="effect1_dropShadow_2354_62654"/>
<feBlend mode="normal" in="SourceGraphic" in2="effect1_dropShadow_2354_62654" result="shape"/>
</filter>
</defs>
</svg>
