<svg width="23" height="19" viewBox="0 0 23 19" fill="none" xmlns="http://www.w3.org/2000/svg">
<path d="M18.4605 5.99807C20.9609 5.99807 23 7.98752 23 10.457C23 12.7787 22.087 13.9562 18.5741 16.6464L17.1103 17.7582C16.2112 18.4405 14.9868 18.4784 14.0516 17.8719L13.8897 17.7582L12.3803 16.6115L11.8094 16.1686C8.80464 13.8077 8 12.6365 8 10.457C8 7.98752 10.0391 5.99807 12.5395 5.99807C13.4689 5.99807 14.324 6.29029 15.0901 6.84704L15.2968 7.00542L15.4988 7.17769L15.7159 6.9951C16.3832 6.4608 17.1221 6.13337 17.92 6.03197L18.1881 6.00657L18.4605 5.99807ZM18.5229 7.99645L18.299 8.00342L18.1127 8.02374C17.7813 8.07494 17.4675 8.20074 17.1756 8.39822L17.0032 8.5253L15.8135 9.52541C15.6264 9.68273 15.3529 9.68168 15.167 9.52293L14.0411 8.56159C13.5636 8.17649 13.0769 7.99742 12.5395 7.99742C11.1302 7.99742 10 9.10529 10 10.457C10 11.8645 10.4474 12.5679 13.0723 14.6188L13.5904 15.0196L15.099 16.1657C15.3064 16.3231 15.5834 16.3428 15.8082 16.2247L15.901 16.1657L17.593 14.8789C20.5243 12.6207 21 11.9073 21 10.457C21 9.15936 19.9584 8.08644 18.6835 8.00182L18.5229 7.99645ZM5 11.9961C5.55228 11.9961 6 12.4437 6 12.9958C6 13.5479 5.55228 13.9955 5 13.9955H1C0.447715 13.9955 0 13.5479 0 12.9958C0 12.4437 0.447715 11.9961 1 11.9961H5ZM5 5.99807C5.55228 5.99807 6 6.44564 6 6.99774C6 7.54985 5.55228 7.99742 5 7.99742H1C0.447715 7.99742 0 7.54985 0 6.99774C0 6.44564 0.447715 5.99807 1 5.99807H5ZM19 0C19.5523 0 20 0.447571 20 0.999678C20 1.55178 19.5523 1.99936 19 1.99936H1C0.447715 1.99936 0 1.55178 0 0.999678C0 0.447571 0.447715 0 1 0H19Z" fill="#2C2D2E"/>
</svg>
