<svg width="33" height="32" viewBox="0 0 33 32" xmlns="http://www.w3.org/2000/svg">
<path d="M12.0364 10.2636C11.6849 9.91213 11.1151 9.91213 10.7636 10.2636C10.4121 10.6151 10.4121 11.1849 10.7636 11.5364L15.2272 16L10.7636 20.4636C10.4121 20.8151 10.4121 21.3849 10.7636 21.7364C11.1151 22.0879 11.6849 22.0879 12.0364 21.7364L16.5 17.2728L20.9636 21.7364C21.3151 22.0879 21.8849 22.0879 22.2364 21.7364C22.5879 21.3849 22.5879 20.8151 22.2364 20.4636L17.7728 16L22.2364 11.5364C22.5879 11.1849 22.5879 10.6151 22.2364 10.2636C21.8849 9.91213 21.3151 9.91213 20.9636 10.2636L16.5 14.7272L12.0364 10.2636Z" fill="currentColor"/>
</svg>
