<svg width="23" height="26" viewBox="0 0 23 26" xmlns="http://www.w3.org/2000/svg">
<path d="M5 0.5C5.55229 0.5 6 0.947715 6 1.5V2.00549C6.41146 1.99999 6.86247 2 7.35716 2L9 2V1.5C9 0.947715 9.44771 0.5 10 0.5C10.5523 0.5 11 0.947715 11 1.5V2L12.6428 2C13.1375 2 13.5885 1.99999 14 2.00549V1.5C14 0.947715 14.4477 0.5 15 0.5C15.5523 0.5 16 0.947715 16 1.5V2.1419C16.4531 2.21908 16.8723 2.34237 17.27 2.54497C18.2108 3.02433 18.9757 3.78924 19.455 4.73005C19.7568 5.32234 19.8826 5.96253 19.9422 6.69138C20 7.39923 20 8.27334 20 9.35707V11.2498C20 11.8021 19.5523 12.25 19 12.25C18.4477 12.25 18 11.8023 18 11.25V9.4C18 8.26339 17.9992 7.47108 17.9488 6.85424C17.8994 6.24907 17.8072 5.90138 17.673 5.63803C17.3854 5.07354 16.9265 4.6146 16.362 4.32698C16.258 4.27401 16.1409 4.22758 16 4.18775V4.5C16 5.05228 15.5523 5.5 15 5.5C14.4477 5.5 14 5.05228 14 4.5V4.0057C13.5985 4.00017 13.1378 4 12.6 4H11V4.5C11 5.05228 10.5523 5.5 10 5.5C9.44771 5.5 9 5.05228 9 4.5V4H7.4C6.86222 4 6.40151 4.00017 6 4.0057V4.5C6 5.05228 5.55229 5.5 5 5.5C4.44772 5.5 4 5.05228 4 4.5V4.18775C3.8591 4.22758 3.74199 4.27401 3.63803 4.32698C3.07354 4.6146 2.6146 5.07354 2.32698 5.63803C2.19279 5.90138 2.10062 6.24907 2.05118 6.85424C2.00078 7.47108 2 8.2634 2 9.40001V16.6C2 17.7366 2.00078 18.5289 2.05118 19.1458C2.10062 19.7509 2.1928 20.0986 2.32698 20.362C2.6146 20.9265 3.07355 21.3854 3.63803 21.673C3.90138 21.8072 4.24909 21.8994 4.85435 21.9488C5.47128 21.9992 6.26371 22 7.40047 22L8.5 22C9.05228 22 9.5 22.4477 9.5 23C9.5 23.5523 9.05229 24 8.5 24L7.35762 24C6.27374 24 5.39943 24 4.69151 23.9422C3.9626 23.8826 3.32236 23.7568 2.73005 23.455C1.78924 22.9757 1.02434 22.2108 0.54497 21.27C0.243181 20.6777 0.117368 20.0375 0.0578187 19.3086C-1.75089e-05 18.6007 -9.52191e-06 17.7266 2.53247e-07 16.6428V9.3572C-9.52191e-06 8.27341 -1.75089e-05 7.39926 0.0578185 6.69138C0.117368 5.96253 0.243181 5.32234 0.544968 4.73005C1.02434 3.78924 1.78924 3.02433 2.73005 2.54497C3.12767 2.34237 3.54687 2.21908 4 2.1419V1.5C4 0.947715 4.44772 0.5 5 0.5Z" fill="currentColor"/>
<path d="M14.9071 10.7071C15.2976 10.3166 15.2976 9.68342 14.9071 9.29289C14.5166 8.90237 13.8834 8.90237 13.4929 9.29289L8.59254 14.1932L6.69957 12.34C6.30493 11.9536 5.6718 11.9603 5.28544 12.355C4.89908 12.7496 4.90579 13.3827 5.30043 13.7691L7.90043 16.3146C8.29212 16.698 8.91951 16.6947 9.30711 16.3071L14.9071 10.7071Z" fill="currentColor"/>
<path fillRule="evenodd" clipRule="evenodd" d="M17 26C20.3137 26 23 23.3137 23 20C23 16.6863 20.3137 14 17 14C13.6863 14 11 16.6863 11 20C11 23.3137 13.6863 26 17 26ZM18 17C18 16.4477 17.5523 16 17 16C16.4477 16 16 16.4477 16 17V19H14C13.4477 19 13 19.4477 13 20C13 20.5523 13.4477 21 14 21H16V23C16 23.5523 16.4477 24 17 24C17.5523 24 18 23.5523 18 23V21H20C20.5523 21 21 20.5523 21 20C21 19.4477 20.5523 19 20 19H18V17Z" fill="currentColor"/>
</svg>
