<svg width="22" height="23" viewBox="0 0 22 23" fill="none" xmlns="http://www.w3.org/2000/svg">
<path d="M12.1295 0.691235L21.0662 9.1811C21.6624 9.74748 22 10.5338 22 11.3561V19.9975C22 21.3782 20.8807 22.4975 19.5 22.4975H13.5C12.9477 22.4975 12.5 22.0498 12.5 21.4975V15.9973C12.5 15.1689 11.8284 14.4973 11 14.4973C10.1716 14.4973 9.5 15.1689 9.5 15.9973V21.4975C9.5 22.0498 9.05228 22.4975 8.5 22.4975H2.5C1.11929 22.4975 0 21.3782 0 19.9975V11.3561C0 10.5338 0.33756 9.74748 0.933752 9.1811L9.87045 0.691235C10.5034 0.0899007 11.4966 0.0899007 12.1295 0.691235ZM11 2.37679L2.31125 10.6311C2.11252 10.8199 2 11.082 2 11.3561V19.9975C2 20.2736 2.22386 20.4975 2.5 20.4975H7.5V15.9973C7.5 14.0643 9.067 12.4973 11 12.4973C12.933 12.4973 14.5 14.0643 14.5 15.9973V20.4975H19.5C19.7761 20.4975 20 20.2736 20 19.9975V11.3561C20 11.082 19.8875 10.8199 19.6887 10.6311L11 2.37679Z" fill="#4C239D"/>
</svg>
