<svg width="195" height="48" viewBox="0 0 195 48" fill="none" xmlns="http://www.w3.org/2000/svg">
<g filter="url(#filter0_d_1034_60071)">
<path fill-rule="evenodd" clip-rule="evenodd" d="M33.5501 38.4111C33.4544 38.8671 33.0438 39.1848 32.5801 39.1607C25.8493 38.8112 19.4565 35.1894 15.8671 28.9419C13.0401 24.0215 12.4861 18.4021 13.8754 13.2898C13.9976 12.8402 14.4268 12.548 14.8882 12.5994C21.4784 13.3335 27.6166 17.0634 31.1573 23.226C33.897 27.9944 34.6038 33.3879 33.5501 38.4111Z" fill="url(#paint0_linear_1034_60071)"/>
<ellipse opacity="0.8" cx="36.1618" cy="10.3578" rx="4.01237" ry="4.02965" fill="#8A32E0"/>
<path fill-rule="evenodd" clip-rule="evenodd" d="M32.6449 39.171C32.1796 39.2042 31.7645 38.886 31.675 38.4262C30.7177 33.5087 32.1268 28.2288 35.9071 24.4322C38.8721 21.4545 42.7455 19.9417 46.6408 19.8915C47.1073 19.8855 47.5024 20.2286 47.5651 20.6929C48.2254 25.5797 46.6934 30.6982 42.965 34.4427C40.0931 37.3269 36.4095 38.9024 32.6449 39.171Z" fill="#4C239D"/>
</g>
<g filter="url(#filter1_d_1034_60071)">
<path d="M58.492 33V16.2H61.708L68.86 28.056H67.156L74.188 16.2H77.38L77.428 33H73.78L73.756 21.792H74.428L68.812 31.224H67.06L61.324 21.792H62.14V33H58.492ZM87.2939 33.192C85.9179 33.192 84.6939 32.904 83.6219 32.328C82.5659 31.752 81.7259 30.968 81.1019 29.976C80.4939 28.968 80.1899 27.824 80.1899 26.544C80.1899 25.248 80.4939 24.104 81.1019 23.112C81.7259 22.104 82.5659 21.32 83.6219 20.76C84.6939 20.184 85.9179 19.896 87.2939 19.896C88.6539 19.896 89.8699 20.184 90.9419 20.76C92.0139 21.32 92.8539 22.096 93.4619 23.088C94.0699 24.08 94.3739 25.232 94.3739 26.544C94.3739 27.824 94.0699 28.968 93.4619 29.976C92.8539 30.968 92.0139 31.752 90.9419 32.328C89.8699 32.904 88.6539 33.192 87.2939 33.192ZM87.2939 30.12C87.9179 30.12 88.4779 29.976 88.9739 29.688C89.4699 29.4 89.8619 28.992 90.1499 28.464C90.4379 27.92 90.5819 27.28 90.5819 26.544C90.5819 25.792 90.4379 25.152 90.1499 24.624C89.8619 24.096 89.4699 23.688 88.9739 23.4C88.4779 23.112 87.9179 22.968 87.2939 22.968C86.6699 22.968 86.1099 23.112 85.6139 23.4C85.1179 23.688 84.7179 24.096 84.4139 24.624C84.1259 25.152 83.9819 25.792 83.9819 26.544C83.9819 27.28 84.1259 27.92 84.4139 28.464C84.7179 28.992 85.1179 29.4 85.6139 29.688C86.1099 29.976 86.6699 30.12 87.2939 30.12ZM103.02 33.192C101.644 33.192 100.42 32.904 99.3484 32.328C98.2924 31.752 97.4524 30.968 96.8284 29.976C96.2204 28.968 95.9164 27.824 95.9164 26.544C95.9164 25.248 96.2204 24.104 96.8284 23.112C97.4524 22.104 98.2924 21.32 99.3484 20.76C100.42 20.184 101.644 19.896 103.02 19.896C104.38 19.896 105.596 20.184 106.668 20.76C107.74 21.32 108.58 22.096 109.188 23.088C109.796 24.08 110.1 25.232 110.1 26.544C110.1 27.824 109.796 28.968 109.188 29.976C108.58 30.968 107.74 31.752 106.668 32.328C105.596 32.904 104.38 33.192 103.02 33.192ZM103.02 30.12C103.644 30.12 104.204 29.976 104.7 29.688C105.196 29.4 105.588 28.992 105.876 28.464C106.164 27.92 106.308 27.28 106.308 26.544C106.308 25.792 106.164 25.152 105.876 24.624C105.588 24.096 105.196 23.688 104.7 23.4C104.204 23.112 103.644 22.968 103.02 22.968C102.396 22.968 101.836 23.112 101.34 23.4C100.844 23.688 100.444 24.096 100.14 24.624C99.8524 25.152 99.7084 25.792 99.7084 26.544C99.7084 27.28 99.8524 27.92 100.14 28.464C100.444 28.992 100.844 29.4 101.34 29.688C101.836 29.976 102.396 30.12 103.02 30.12ZM118.147 33.192C116.931 33.192 115.835 32.92 114.859 32.376C113.883 31.816 113.107 31.04 112.531 30.048C111.971 29.056 111.691 27.888 111.691 26.544C111.691 25.184 111.971 24.008 112.531 23.016C113.107 22.024 113.883 21.256 114.859 20.712C115.835 20.168 116.931 19.896 118.147 19.896C119.235 19.896 120.187 20.136 121.003 20.616C121.819 21.096 122.451 21.824 122.899 22.8C123.347 23.776 123.571 25.024 123.571 26.544C123.571 28.048 123.355 29.296 122.923 30.288C122.491 31.264 121.867 31.992 121.051 32.472C120.251 32.952 119.283 33.192 118.147 33.192ZM118.795 30.12C119.403 30.12 119.955 29.976 120.451 29.688C120.947 29.4 121.339 28.992 121.627 28.464C121.931 27.92 122.083 27.28 122.083 26.544C122.083 25.792 121.931 25.152 121.627 24.624C121.339 24.096 120.947 23.688 120.451 23.4C119.955 23.112 119.403 22.968 118.795 22.968C118.171 22.968 117.611 23.112 117.115 23.4C116.619 23.688 116.219 24.096 115.915 24.624C115.627 25.152 115.483 25.792 115.483 26.544C115.483 27.28 115.627 27.92 115.915 28.464C116.219 28.992 116.619 29.4 117.115 29.688C117.611 29.976 118.171 30.12 118.795 30.12ZM122.179 33V30.36L122.251 26.52L122.011 22.704V15.192H125.755V33H122.179ZM129.484 33V16.2H137.692C139.804 16.2 141.388 16.6 142.444 17.4C143.516 18.2 144.052 19.256 144.052 20.568C144.052 21.448 143.836 22.216 143.404 22.872C142.972 23.512 142.38 24.008 141.628 24.36C140.876 24.712 140.012 24.888 139.036 24.888L139.492 23.904C140.548 23.904 141.484 24.08 142.3 24.432C143.116 24.768 143.748 25.272 144.196 25.944C144.66 26.616 144.892 27.44 144.892 28.416C144.892 29.856 144.324 30.984 143.188 31.8C142.052 32.6 140.38 33 138.172 33H129.484ZM133.348 30.072H137.884C138.892 30.072 139.652 29.912 140.164 29.592C140.692 29.256 140.956 28.728 140.956 28.008C140.956 27.304 140.692 26.784 140.164 26.448C139.652 26.096 138.892 25.92 137.884 25.92H133.06V23.088H137.212C138.156 23.088 138.876 22.928 139.372 22.608C139.884 22.272 140.14 21.768 140.14 21.096C140.14 20.44 139.884 19.952 139.372 19.632C138.876 19.296 138.156 19.128 137.212 19.128H133.348V30.072ZM153.98 33.192C152.508 33.192 151.212 32.904 150.092 32.328C148.988 31.752 148.132 30.968 147.524 29.976C146.916 28.968 146.612 27.824 146.612 26.544C146.612 25.248 146.908 24.104 147.5 23.112C148.108 22.104 148.932 21.32 149.972 20.76C151.012 20.184 152.188 19.896 153.5 19.896C154.764 19.896 155.9 20.168 156.908 20.712C157.932 21.24 158.74 22.008 159.332 23.016C159.924 24.008 160.22 25.2 160.22 26.592C160.22 26.736 160.212 26.904 160.196 27.096C160.18 27.272 160.164 27.44 160.148 27.6H149.66V25.416H158.18L156.74 26.064C156.74 25.392 156.604 24.808 156.332 24.312C156.06 23.816 155.684 23.432 155.204 23.16C154.724 22.872 154.164 22.728 153.524 22.728C152.884 22.728 152.316 22.872 151.82 23.16C151.34 23.432 150.964 23.824 150.692 24.336C150.42 24.832 150.284 25.424 150.284 26.112V26.688C150.284 27.392 150.436 28.016 150.74 28.56C151.06 29.088 151.5 29.496 152.06 29.784C152.636 30.056 153.308 30.192 154.076 30.192C154.764 30.192 155.364 30.088 155.876 29.88C156.404 29.672 156.884 29.36 157.316 28.944L159.308 31.104C158.716 31.776 157.972 32.296 157.076 32.664C156.18 33.016 155.148 33.192 153.98 33.192ZM170.281 33V30.48L170.041 29.928V25.416C170.041 24.616 169.793 23.992 169.297 23.544C168.817 23.096 168.073 22.872 167.065 22.872C166.377 22.872 165.697 22.984 165.025 23.208C164.369 23.416 163.809 23.704 163.345 24.072L162.001 21.456C162.705 20.96 163.553 20.576 164.545 20.304C165.537 20.032 166.545 19.896 167.569 19.896C169.537 19.896 171.065 20.36 172.153 21.288C173.241 22.216 173.785 23.664 173.785 25.632V33H170.281ZM166.345 33.192C165.337 33.192 164.473 33.024 163.753 32.688C163.033 32.336 162.481 31.864 162.097 31.272C161.713 30.68 161.521 30.016 161.521 29.28C161.521 28.512 161.705 27.84 162.073 27.264C162.457 26.688 163.057 26.24 163.873 25.92C164.689 25.584 165.753 25.416 167.065 25.416H170.497V27.6H167.473C166.593 27.6 165.985 27.744 165.649 28.032C165.329 28.32 165.169 28.68 165.169 29.112C165.169 29.592 165.353 29.976 165.721 30.264C166.105 30.536 166.625 30.672 167.281 30.672C167.905 30.672 168.465 30.528 168.961 30.24C169.457 29.936 169.817 29.496 170.041 28.92L170.617 30.648C170.345 31.48 169.849 32.112 169.129 32.544C168.409 32.976 167.481 33.192 166.345 33.192ZM182.453 33.192C180.933 33.192 179.749 32.808 178.901 32.04C178.053 31.256 177.629 30.096 177.629 28.56V17.232H181.373V28.512C181.373 29.056 181.517 29.48 181.805 29.784C182.093 30.072 182.485 30.216 182.981 30.216C183.573 30.216 184.077 30.056 184.493 29.736L185.501 32.376C185.117 32.648 184.653 32.856 184.109 33C183.581 33.128 183.029 33.192 182.453 33.192ZM175.637 23.256V20.376H184.589V23.256H175.637Z" fill="#8A32E0"/>
</g>
<defs>
<filter id="filter0_d_1034_60071" x="4.5" y="4" width="52" height="48" filterUnits="userSpaceOnUse" color-interpolation-filters="sRGB">
<feFlood flood-opacity="0" result="BackgroundImageFix"/>
<feColorMatrix in="SourceAlpha" type="matrix" values="0 0 0 0 0 0 0 0 0 0 0 0 0 0 0 0 0 0 127 0" result="hardAlpha"/>
<feOffset dy="4"/>
<feGaussianBlur stdDeviation="2"/>
<feComposite in2="hardAlpha" operator="out"/>
<feColorMatrix type="matrix" values="0 0 0 0 0 0 0 0 0 0 0 0 0 0 0 0 0 0 0.25 0"/>
<feBlend mode="normal" in2="BackgroundImageFix" result="effect1_dropShadow_1034_60071"/>
<feBlend mode="normal" in="SourceGraphic" in2="effect1_dropShadow_1034_60071" result="shape"/>
</filter>
<filter id="filter1_d_1034_60071" x="54.4922" y="15.1914" width="135.009" height="26" filterUnits="userSpaceOnUse" color-interpolation-filters="sRGB">
<feFlood flood-opacity="0" result="BackgroundImageFix"/>
<feColorMatrix in="SourceAlpha" type="matrix" values="0 0 0 0 0 0 0 0 0 0 0 0 0 0 0 0 0 0 127 0" result="hardAlpha"/>
<feOffset dy="4"/>
<feGaussianBlur stdDeviation="2"/>
<feComposite in2="hardAlpha" operator="out"/>
<feColorMatrix type="matrix" values="0 0 0 0 0 0 0 0 0 0 0 0 0 0 0 0 0 0 0.25 0"/>
<feBlend mode="normal" in2="BackgroundImageFix" result="effect1_dropShadow_1034_60071"/>
<feBlend mode="normal" in="SourceGraphic" in2="effect1_dropShadow_1034_60071" result="shape"/>
</filter>
<linearGradient id="paint0_linear_1034_60071" x1="13.8076" y1="13.0758" x2="33.4577" y2="38.6812" gradientUnits="userSpaceOnUse">
<stop offset="0.00226547" stop-color="#FF3B76"/>
<stop offset="1" stop-color="#8A32E0"/>
</linearGradient>
</defs>
</svg>
