<svg width="228" height="48" viewBox="0 0 228 48" fill="none" xmlns="http://www.w3.org/2000/svg">
<path fill-rule="evenodd" clip-rule="evenodd" d="M49.0501 38.4111C48.9544 38.8671 48.5438 39.1848 48.0801 39.1607C41.3493 38.8112 34.9565 35.1894 31.3671 28.9419C28.5401 24.0215 27.9861 18.4021 29.3754 13.2898C29.4976 12.8402 29.9268 12.548 30.3882 12.5994C36.9784 13.3335 43.1166 17.0634 46.6573 23.226C49.397 27.9944 50.1038 33.3879 49.0501 38.4111Z" fill="url(#paint0_linear_2264_68980)"/>
<ellipse opacity="0.8" cx="51.6618" cy="10.3578" rx="4.01237" ry="4.02965" fill="#8A32E0"/>
<path fill-rule="evenodd" clip-rule="evenodd" d="M48.1449 39.171C47.6796 39.2042 47.2645 38.886 47.175 38.4262C46.2177 33.5087 47.6268 28.2288 51.4071 24.4322C54.3721 21.4545 58.2455 19.9417 62.1408 19.8915C62.6073 19.8855 63.0024 20.2286 63.0651 20.6929C63.7254 25.5797 62.1934 30.6982 58.465 34.4427C55.5931 37.3269 51.9095 38.9024 48.1449 39.171Z" fill="#4C239D"/>
<path d="M73.992 33V16.2H77.208L84.36 28.056H82.656L89.688 16.2H92.88L92.928 33H89.28L89.256 21.792H89.928L84.312 31.224H82.56L76.824 21.792H77.64V33H73.992ZM102.794 33.192C101.418 33.192 100.194 32.904 99.1219 32.328C98.0659 31.752 97.2259 30.968 96.6019 29.976C95.9939 28.968 95.6899 27.824 95.6899 26.544C95.6899 25.248 95.9939 24.104 96.6019 23.112C97.2259 22.104 98.0659 21.32 99.1219 20.76C100.194 20.184 101.418 19.896 102.794 19.896C104.154 19.896 105.37 20.184 106.442 20.76C107.514 21.32 108.354 22.096 108.962 23.088C109.57 24.08 109.874 25.232 109.874 26.544C109.874 27.824 109.57 28.968 108.962 29.976C108.354 30.968 107.514 31.752 106.442 32.328C105.37 32.904 104.154 33.192 102.794 33.192ZM102.794 30.12C103.418 30.12 103.978 29.976 104.474 29.688C104.97 29.4 105.362 28.992 105.65 28.464C105.938 27.92 106.082 27.28 106.082 26.544C106.082 25.792 105.938 25.152 105.65 24.624C105.362 24.096 104.97 23.688 104.474 23.4C103.978 23.112 103.418 22.968 102.794 22.968C102.17 22.968 101.61 23.112 101.114 23.4C100.618 23.688 100.218 24.096 99.9139 24.624C99.6259 25.152 99.4819 25.792 99.4819 26.544C99.4819 27.28 99.6259 27.92 99.9139 28.464C100.218 28.992 100.618 29.4 101.114 29.688C101.61 29.976 102.17 30.12 102.794 30.12ZM118.52 33.192C117.144 33.192 115.92 32.904 114.848 32.328C113.792 31.752 112.952 30.968 112.328 29.976C111.72 28.968 111.416 27.824 111.416 26.544C111.416 25.248 111.72 24.104 112.328 23.112C112.952 22.104 113.792 21.32 114.848 20.76C115.92 20.184 117.144 19.896 118.52 19.896C119.88 19.896 121.096 20.184 122.168 20.76C123.24 21.32 124.08 22.096 124.688 23.088C125.296 24.08 125.6 25.232 125.6 26.544C125.6 27.824 125.296 28.968 124.688 29.976C124.08 30.968 123.24 31.752 122.168 32.328C121.096 32.904 119.88 33.192 118.52 33.192ZM118.52 30.12C119.144 30.12 119.704 29.976 120.2 29.688C120.696 29.4 121.088 28.992 121.376 28.464C121.664 27.92 121.808 27.28 121.808 26.544C121.808 25.792 121.664 25.152 121.376 24.624C121.088 24.096 120.696 23.688 120.2 23.4C119.704 23.112 119.144 22.968 118.52 22.968C117.896 22.968 117.336 23.112 116.84 23.4C116.344 23.688 115.944 24.096 115.64 24.624C115.352 25.152 115.208 25.792 115.208 26.544C115.208 27.28 115.352 27.92 115.64 28.464C115.944 28.992 116.344 29.4 116.84 29.688C117.336 29.976 117.896 30.12 118.52 30.12ZM133.647 33.192C132.431 33.192 131.335 32.92 130.359 32.376C129.383 31.816 128.607 31.04 128.031 30.048C127.471 29.056 127.191 27.888 127.191 26.544C127.191 25.184 127.471 24.008 128.031 23.016C128.607 22.024 129.383 21.256 130.359 20.712C131.335 20.168 132.431 19.896 133.647 19.896C134.735 19.896 135.687 20.136 136.503 20.616C137.319 21.096 137.951 21.824 138.399 22.8C138.847 23.776 139.071 25.024 139.071 26.544C139.071 28.048 138.855 29.296 138.423 30.288C137.991 31.264 137.367 31.992 136.551 32.472C135.751 32.952 134.783 33.192 133.647 33.192ZM134.295 30.12C134.903 30.12 135.455 29.976 135.951 29.688C136.447 29.4 136.839 28.992 137.127 28.464C137.431 27.92 137.583 27.28 137.583 26.544C137.583 25.792 137.431 25.152 137.127 24.624C136.839 24.096 136.447 23.688 135.951 23.4C135.455 23.112 134.903 22.968 134.295 22.968C133.671 22.968 133.111 23.112 132.615 23.4C132.119 23.688 131.719 24.096 131.415 24.624C131.127 25.152 130.983 25.792 130.983 26.544C130.983 27.28 131.127 27.92 131.415 28.464C131.719 28.992 132.119 29.4 132.615 29.688C133.111 29.976 133.671 30.12 134.295 30.12ZM137.679 33V30.36L137.751 26.52L137.511 22.704V15.192H141.255V33H137.679ZM144.984 33V16.2H153.192C155.304 16.2 156.888 16.6 157.944 17.4C159.016 18.2 159.552 19.256 159.552 20.568C159.552 21.448 159.336 22.216 158.904 22.872C158.472 23.512 157.88 24.008 157.128 24.36C156.376 24.712 155.512 24.888 154.536 24.888L154.992 23.904C156.048 23.904 156.984 24.08 157.8 24.432C158.616 24.768 159.248 25.272 159.696 25.944C160.16 26.616 160.392 27.44 160.392 28.416C160.392 29.856 159.824 30.984 158.688 31.8C157.552 32.6 155.88 33 153.672 33H144.984ZM148.848 30.072H153.384C154.392 30.072 155.152 29.912 155.664 29.592C156.192 29.256 156.456 28.728 156.456 28.008C156.456 27.304 156.192 26.784 155.664 26.448C155.152 26.096 154.392 25.92 153.384 25.92H148.56V23.088H152.712C153.656 23.088 154.376 22.928 154.872 22.608C155.384 22.272 155.64 21.768 155.64 21.096C155.64 20.44 155.384 19.952 154.872 19.632C154.376 19.296 153.656 19.128 152.712 19.128H148.848V30.072ZM169.48 33.192C168.008 33.192 166.712 32.904 165.592 32.328C164.488 31.752 163.632 30.968 163.024 29.976C162.416 28.968 162.112 27.824 162.112 26.544C162.112 25.248 162.408 24.104 163 23.112C163.608 22.104 164.432 21.32 165.472 20.76C166.512 20.184 167.688 19.896 169 19.896C170.264 19.896 171.4 20.168 172.408 20.712C173.432 21.24 174.24 22.008 174.832 23.016C175.424 24.008 175.72 25.2 175.72 26.592C175.72 26.736 175.712 26.904 175.696 27.096C175.68 27.272 175.664 27.44 175.648 27.6H165.16V25.416H173.68L172.24 26.064C172.24 25.392 172.104 24.808 171.832 24.312C171.56 23.816 171.184 23.432 170.704 23.16C170.224 22.872 169.664 22.728 169.024 22.728C168.384 22.728 167.816 22.872 167.32 23.16C166.84 23.432 166.464 23.824 166.192 24.336C165.92 24.832 165.784 25.424 165.784 26.112V26.688C165.784 27.392 165.936 28.016 166.24 28.56C166.56 29.088 167 29.496 167.56 29.784C168.136 30.056 168.808 30.192 169.576 30.192C170.264 30.192 170.864 30.088 171.376 29.88C171.904 29.672 172.384 29.36 172.816 28.944L174.808 31.104C174.216 31.776 173.472 32.296 172.576 32.664C171.68 33.016 170.648 33.192 169.48 33.192ZM185.781 33V30.48L185.541 29.928V25.416C185.541 24.616 185.293 23.992 184.797 23.544C184.317 23.096 183.573 22.872 182.565 22.872C181.877 22.872 181.197 22.984 180.525 23.208C179.869 23.416 179.309 23.704 178.845 24.072L177.501 21.456C178.205 20.96 179.053 20.576 180.045 20.304C181.037 20.032 182.045 19.896 183.069 19.896C185.037 19.896 186.565 20.36 187.653 21.288C188.741 22.216 189.285 23.664 189.285 25.632V33H185.781ZM181.845 33.192C180.837 33.192 179.973 33.024 179.253 32.688C178.533 32.336 177.981 31.864 177.597 31.272C177.213 30.68 177.021 30.016 177.021 29.28C177.021 28.512 177.205 27.84 177.573 27.264C177.957 26.688 178.557 26.24 179.373 25.92C180.189 25.584 181.253 25.416 182.565 25.416H185.997V27.6H182.973C182.093 27.6 181.485 27.744 181.149 28.032C180.829 28.32 180.669 28.68 180.669 29.112C180.669 29.592 180.853 29.976 181.221 30.264C181.605 30.536 182.125 30.672 182.781 30.672C183.405 30.672 183.965 30.528 184.461 30.24C184.957 29.936 185.317 29.496 185.541 28.92L186.117 30.648C185.845 31.48 185.349 32.112 184.629 32.544C183.909 32.976 182.981 33.192 181.845 33.192ZM197.953 33.192C196.433 33.192 195.249 32.808 194.401 32.04C193.553 31.256 193.129 30.096 193.129 28.56V17.232H196.873V28.512C196.873 29.056 197.017 29.48 197.305 29.784C197.593 30.072 197.985 30.216 198.481 30.216C199.073 30.216 199.577 30.056 199.993 29.736L201.001 32.376C200.617 32.648 200.153 32.856 199.609 33C199.081 33.128 198.529 33.192 197.953 33.192ZM191.137 23.256V20.376H200.089V23.256H191.137Z" fill="#8A32E0"/>
<defs>
<linearGradient id="paint0_linear_2264_68980" x1="29.3076" y1="13.0758" x2="48.9577" y2="38.6812" gradientUnits="userSpaceOnUse">
<stop offset="0.00226547" stop-color="#FF3B76"/>
<stop offset="1" stop-color="#8A32E0"/>
</linearGradient>
</defs>
</svg>
