<svg width="163" height="48" viewBox="0 0 163 48" fill="none" xmlns="http://www.w3.org/2000/svg">
<path fillRule="evenodd" clipRule="evenodd" d="M33.0501 38.4111C32.9544 38.8671 32.5438 39.1848 32.0801 39.1607C25.3493 38.8112 18.9565 35.1894 15.3671 28.9419C12.5401 24.0215 11.9861 18.4021 13.3754 13.2898C13.4976 12.8402 13.9268 12.548 14.3882 12.5994C20.9784 13.3335 27.1166 17.0634 30.6573 23.226C33.397 27.9944 34.1038 33.3879 33.0501 38.4111Z" fill="url(#paint0_linear_1039_58295)"/>
<ellipse opacity="0.8" cx="35.6618" cy="10.3578" rx="4.01237" ry="4.02965" fill="#8A32E0"/>
<path fillRule="evenodd" clipRule="evenodd" d="M32.1449 39.171C31.6796 39.2042 31.2645 38.886 31.175 38.4262C30.2177 33.5087 31.6268 28.2288 35.4071 24.4322C38.3721 21.4545 42.2455 19.9417 46.1408 19.8915C46.6073 19.8855 47.0024 20.2286 47.0651 20.6929C47.7254 25.5797 46.1934 30.6982 42.465 34.4427C39.5931 37.3269 35.9095 38.9024 32.1449 39.171Z" fill="#4C239D"/>
<path d="M66.032 33.288C64.736 33.288 63.528 33.08 62.408 32.664C61.304 32.232 60.344 31.624 59.528 30.84C58.712 30.056 58.072 29.136 57.608 28.08C57.16 27.024 56.936 25.864 56.936 24.6C56.936 23.336 57.16 22.176 57.608 21.12C58.072 20.064 58.712 19.144 59.528 18.36C60.36 17.576 61.328 16.976 62.432 16.56C63.536 16.128 64.744 15.912 66.056 15.912C67.512 15.912 68.824 16.168 69.992 16.68C71.176 17.176 72.168 17.912 72.968 18.888L70.472 21.192C69.896 20.536 69.256 20.048 68.552 19.728C67.848 19.392 67.08 19.224 66.248 19.224C65.464 19.224 64.744 19.352 64.088 19.608C63.432 19.864 62.864 20.232 62.384 20.712C61.904 21.192 61.528 21.76 61.256 22.416C61 23.072 60.872 23.8 60.872 24.6C60.872 25.4 61 26.128 61.256 26.784C61.528 27.44 61.904 28.008 62.384 28.488C62.864 28.968 63.432 29.336 64.088 29.592C64.744 29.848 65.464 29.976 66.248 29.976C67.08 29.976 67.848 29.816 68.552 29.496C69.256 29.16 69.896 28.656 70.472 27.984L72.968 30.288C72.168 31.264 71.176 32.008 69.992 32.52C68.824 33.032 67.504 33.288 66.032 33.288ZM83.1793 33V30.48L82.9393 29.928V25.416C82.9393 24.616 82.6913 23.992 82.1953 23.544C81.7153 23.096 80.9713 22.872 79.9633 22.872C79.2753 22.872 78.5953 22.984 77.9233 23.208C77.2673 23.416 76.7073 23.704 76.2433 24.072L74.8993 21.456C75.6033 20.96 76.4513 20.576 77.4433 20.304C78.4353 20.032 79.4433 19.896 80.4673 19.896C82.4353 19.896 83.9633 20.36 85.0513 21.288C86.1393 22.216 86.6833 23.664 86.6833 25.632V33H83.1793ZM79.2433 33.192C78.2353 33.192 77.3713 33.024 76.6513 32.688C75.9313 32.336 75.3793 31.864 74.9953 31.272C74.6113 30.68 74.4193 30.016 74.4193 29.28C74.4193 28.512 74.6033 27.84 74.9713 27.264C75.3553 26.688 75.9553 26.24 76.7713 25.92C77.5873 25.584 78.6513 25.416 79.9633 25.416H83.3953V27.6H80.3713C79.4913 27.6 78.8833 27.744 78.5473 28.032C78.2273 28.32 78.0673 28.68 78.0673 29.112C78.0673 29.592 78.2513 29.976 78.6193 30.264C79.0033 30.536 79.5233 30.672 80.1793 30.672C80.8033 30.672 81.3633 30.528 81.8593 30.24C82.3553 29.936 82.7153 29.496 82.9393 28.92L83.5153 30.648C83.2433 31.48 82.7473 32.112 82.0273 32.544C81.3073 32.976 80.3793 33.192 79.2433 33.192ZM90.0718 33V20.088H93.6478V23.736L93.1438 22.68C93.5278 21.768 94.1438 21.08 94.9918 20.616C95.8398 20.136 96.8718 19.896 98.0878 19.896V23.352C97.9278 23.336 97.7838 23.328 97.6558 23.328C97.5278 23.312 97.3918 23.304 97.2478 23.304C96.2238 23.304 95.3918 23.6 94.7518 24.192C94.1278 24.768 93.8158 25.672 93.8158 26.904V33H90.0718ZM106.628 33.192C105.156 33.192 103.86 32.904 102.74 32.328C101.636 31.752 100.78 30.968 100.172 29.976C99.5642 28.968 99.2602 27.824 99.2602 26.544C99.2602 25.248 99.5562 24.104 100.148 23.112C100.756 22.104 101.58 21.32 102.62 20.76C103.66 20.184 104.836 19.896 106.148 19.896C107.412 19.896 108.548 20.168 109.556 20.712C110.58 21.24 111.388 22.008 111.98 23.016C112.572 24.008 112.868 25.2 112.868 26.592C112.868 26.736 112.86 26.904 112.844 27.096C112.828 27.272 112.812 27.44 112.796 27.6H102.308V25.416H110.828L109.388 26.064C109.388 25.392 109.252 24.808 108.98 24.312C108.708 23.816 108.332 23.432 107.852 23.16C107.372 22.872 106.812 22.728 106.172 22.728C105.532 22.728 104.964 22.872 104.468 23.16C103.988 23.432 103.612 23.824 103.34 24.336C103.068 24.832 102.932 25.424 102.932 26.112V26.688C102.932 27.392 103.084 28.016 103.388 28.56C103.708 29.088 104.148 29.496 104.708 29.784C105.284 30.056 105.956 30.192 106.724 30.192C107.412 30.192 108.012 30.088 108.524 29.88C109.052 29.672 109.532 29.36 109.964 28.944L111.956 31.104C111.364 31.776 110.62 32.296 109.724 32.664C108.828 33.016 107.796 33.192 106.628 33.192ZM119.225 23.76H127.289V26.88H119.225V23.76ZM119.513 33H115.625V16.2H128.321V19.32H119.513V33ZM136.528 33.192C135.152 33.192 133.928 32.904 132.856 32.328C131.8 31.752 130.96 30.968 130.336 29.976C129.728 28.968 129.424 27.824 129.424 26.544C129.424 25.248 129.728 24.104 130.336 23.112C130.96 22.104 131.8 21.32 132.856 20.76C133.928 20.184 135.152 19.896 136.528 19.896C137.888 19.896 139.104 20.184 140.176 20.76C141.248 21.32 142.088 22.096 142.696 23.088C143.304 24.08 143.608 25.232 143.608 26.544C143.608 27.824 143.304 28.968 142.696 29.976C142.088 30.968 141.248 31.752 140.176 32.328C139.104 32.904 137.888 33.192 136.528 33.192ZM136.528 30.12C137.152 30.12 137.712 29.976 138.208 29.688C138.704 29.4 139.096 28.992 139.384 28.464C139.672 27.92 139.816 27.28 139.816 26.544C139.816 25.792 139.672 25.152 139.384 24.624C139.096 24.096 138.704 23.688 138.208 23.4C137.712 23.112 137.152 22.968 136.528 22.968C135.904 22.968 135.344 23.112 134.848 23.4C134.352 23.688 133.952 24.096 133.648 24.624C133.36 25.152 133.216 25.792 133.216 26.544C133.216 27.28 133.36 27.92 133.648 28.464C133.952 28.992 134.352 29.4 134.848 29.688C135.344 29.976 135.904 30.12 136.528 30.12ZM146.111 33V20.088H149.687V23.736L149.183 22.68C149.567 21.768 150.183 21.08 151.031 20.616C151.879 20.136 152.911 19.896 154.127 19.896V23.352C153.967 23.336 153.823 23.328 153.695 23.328C153.567 23.312 153.431 23.304 153.287 23.304C152.263 23.304 151.431 23.6 150.791 24.192C150.167 24.768 149.855 25.672 149.855 26.904V33H146.111Z" fill="#8A32E0"/>
<defs>
<linearGradient id="paint0_linear_1039_58295" x1="13.3076" y1="13.0758" x2="32.9577" y2="38.6812" gradientUnits="userSpaceOnUse">
<stop offset="0.00226547" stop-color="#FF2B6A"/>
<stop offset="1" stop-color="#8A32E0"/>
</linearGradient>
</defs>
</svg>
