<svg width="147" height="40" viewBox="0 0 147 40" fill="none" xmlns="http://www.w3.org/2000/svg">
<path fillRule="evenodd" clipRule="evenodd" d="M25.0506 34.4117C24.9549 34.8677 24.5443 35.1854 24.0806 35.1613C17.3497 34.8118 10.957 31.19 7.3676 24.9426C4.5406 20.0221 3.98663 14.4027 5.37587 9.29044C5.49807 8.84076 5.92724 8.5486 6.38868 8.60001C12.9788 9.3341 19.1171 13.064 22.6578 19.2266C25.3975 23.995 26.1043 29.3885 25.0506 34.4117Z" fill="url(#paint0_linear_1_22)"/>
<ellipse opacity="0.8" cx="27.6623" cy="6.35856" rx="4.01237" ry="4.02965" fill="#8A32E0"/>
<path fillRule="evenodd" clipRule="evenodd" d="M24.1454 35.171C23.6801 35.2042 23.265 34.886 23.1755 34.4262C22.2181 29.5087 23.6273 24.2288 27.4076 20.4322C30.3725 17.4545 34.246 15.9417 38.1413 15.8915C38.6078 15.8855 39.0029 16.2286 39.0656 16.6929C39.7259 21.5797 38.1939 26.6982 34.4654 30.4427C31.5935 33.3269 27.91 34.9024 24.1454 35.171Z" fill="#4C239D"/>
<path d="M58.032 29.288C56.736 29.288 55.528 29.08 54.408 28.664C53.304 28.232 52.344 27.624 51.528 26.84C50.712 26.056 50.072 25.136 49.608 24.08C49.16 23.024 48.936 21.864 48.936 20.6C48.936 19.336 49.16 18.176 49.608 17.12C50.072 16.064 50.712 15.144 51.528 14.36C52.36 13.576 53.328 12.976 54.432 12.56C55.536 12.128 56.744 11.912 58.056 11.912C59.512 11.912 60.824 12.168 61.992 12.68C63.176 13.176 64.168 13.912 64.968 14.888L62.472 17.192C61.896 16.536 61.256 16.048 60.552 15.728C59.848 15.392 59.08 15.224 58.248 15.224C57.464 15.224 56.744 15.352 56.088 15.608C55.432 15.864 54.864 16.232 54.384 16.712C53.904 17.192 53.528 17.76 53.256 18.416C53 19.072 52.872 19.8 52.872 20.6C52.872 21.4 53 22.128 53.256 22.784C53.528 23.44 53.904 24.008 54.384 24.488C54.864 24.968 55.432 25.336 56.088 25.592C56.744 25.848 57.464 25.976 58.248 25.976C59.08 25.976 59.848 25.816 60.552 25.496C61.256 25.16 61.896 24.656 62.472 23.984L64.968 26.288C64.168 27.264 63.176 28.008 61.992 28.52C60.824 29.032 59.504 29.288 58.032 29.288ZM75.1793 29V26.48L74.9393 25.928V21.416C74.9393 20.616 74.6913 19.992 74.1953 19.544C73.7153 19.096 72.9713 18.872 71.9633 18.872C71.2753 18.872 70.5953 18.984 69.9233 19.208C69.2673 19.416 68.7073 19.704 68.2433 20.072L66.8993 17.456C67.6033 16.96 68.4513 16.576 69.4433 16.304C70.4353 16.032 71.4433 15.896 72.4673 15.896C74.4353 15.896 75.9633 16.36 77.0513 17.288C78.1393 18.216 78.6833 19.664 78.6833 21.632V29H75.1793ZM71.2433 29.192C70.2353 29.192 69.3713 29.024 68.6513 28.688C67.9313 28.336 67.3793 27.864 66.9953 27.272C66.6113 26.68 66.4193 26.016 66.4193 25.28C66.4193 24.512 66.6033 23.84 66.9713 23.264C67.3553 22.688 67.9553 22.24 68.7713 21.92C69.5873 21.584 70.6513 21.416 71.9633 21.416H75.3953V23.6H72.3713C71.4913 23.6 70.8833 23.744 70.5473 24.032C70.2273 24.32 70.0673 24.68 70.0673 25.112C70.0673 25.592 70.2513 25.976 70.6193 26.264C71.0033 26.536 71.5233 26.672 72.1793 26.672C72.8033 26.672 73.3633 26.528 73.8593 26.24C74.3553 25.936 74.7153 25.496 74.9393 24.92L75.5153 26.648C75.2433 27.48 74.7473 28.112 74.0273 28.544C73.3073 28.976 72.3793 29.192 71.2433 29.192ZM82.0718 29V16.088H85.6478V19.736L85.1438 18.68C85.5278 17.768 86.1438 17.08 86.9918 16.616C87.8398 16.136 88.8718 15.896 90.0878 15.896V19.352C89.9278 19.336 89.7838 19.328 89.6558 19.328C89.5278 19.312 89.3918 19.304 89.2478 19.304C88.2238 19.304 87.3918 19.6 86.7518 20.192C86.1278 20.768 85.8158 21.672 85.8158 22.904V29H82.0718ZM98.6282 29.192C97.1562 29.192 95.8602 28.904 94.7402 28.328C93.6362 27.752 92.7802 26.968 92.1722 25.976C91.5642 24.968 91.2602 23.824 91.2602 22.544C91.2602 21.248 91.5562 20.104 92.1482 19.112C92.7562 18.104 93.5802 17.32 94.6202 16.76C95.6602 16.184 96.8362 15.896 98.1482 15.896C99.4122 15.896 100.548 16.168 101.556 16.712C102.58 17.24 103.388 18.008 103.98 19.016C104.572 20.008 104.868 21.2 104.868 22.592C104.868 22.736 104.86 22.904 104.844 23.096C104.828 23.272 104.812 23.44 104.796 23.6H94.3082V21.416H102.828L101.388 22.064C101.388 21.392 101.252 20.808 100.98 20.312C100.708 19.816 100.332 19.432 99.8522 19.16C99.3722 18.872 98.8122 18.728 98.1722 18.728C97.5322 18.728 96.9642 18.872 96.4682 19.16C95.9882 19.432 95.6122 19.824 95.3402 20.336C95.0682 20.832 94.9322 21.424 94.9322 22.112V22.688C94.9322 23.392 95.0842 24.016 95.3882 24.56C95.7082 25.088 96.1482 25.496 96.7082 25.784C97.2842 26.056 97.9562 26.192 98.7242 26.192C99.4122 26.192 100.012 26.088 100.524 25.88C101.052 25.672 101.532 25.36 101.964 24.944L103.956 27.104C103.364 27.776 102.62 28.296 101.724 28.664C100.828 29.016 99.7962 29.192 98.6282 29.192ZM111.225 19.76H119.289V22.88H111.225V19.76ZM111.513 29H107.625V12.2H120.321V15.32H111.513V29ZM128.528 29.192C127.152 29.192 125.928 28.904 124.856 28.328C123.8 27.752 122.96 26.968 122.336 25.976C121.728 24.968 121.424 23.824 121.424 22.544C121.424 21.248 121.728 20.104 122.336 19.112C122.96 18.104 123.8 17.32 124.856 16.76C125.928 16.184 127.152 15.896 128.528 15.896C129.888 15.896 131.104 16.184 132.176 16.76C133.248 17.32 134.088 18.096 134.696 19.088C135.304 20.08 135.608 21.232 135.608 22.544C135.608 23.824 135.304 24.968 134.696 25.976C134.088 26.968 133.248 27.752 132.176 28.328C131.104 28.904 129.888 29.192 128.528 29.192ZM128.528 26.12C129.152 26.12 129.712 25.976 130.208 25.688C130.704 25.4 131.096 24.992 131.384 24.464C131.672 23.92 131.816 23.28 131.816 22.544C131.816 21.792 131.672 21.152 131.384 20.624C131.096 20.096 130.704 19.688 130.208 19.4C129.712 19.112 129.152 18.968 128.528 18.968C127.904 18.968 127.344 19.112 126.848 19.4C126.352 19.688 125.952 20.096 125.648 20.624C125.36 21.152 125.216 21.792 125.216 22.544C125.216 23.28 125.36 23.92 125.648 24.464C125.952 24.992 126.352 25.4 126.848 25.688C127.344 25.976 127.904 26.12 128.528 26.12ZM138.111 29V16.088H141.687V19.736L141.183 18.68C141.567 17.768 142.183 17.08 143.031 16.616C143.879 16.136 144.911 15.896 146.127 15.896V19.352C145.967 19.336 145.823 19.328 145.695 19.328C145.567 19.312 145.431 19.304 145.287 19.304C144.263 19.304 143.431 19.6 142.791 20.192C142.167 20.768 141.855 21.672 141.855 22.904V29H138.111Z" fill="#8A32E0"/>
<defs>
<linearGradient id="paint0_linear_1_22" x1="5.30811" y1="9.07635" x2="24.9582" y2="34.6818" gradientUnits="userSpaceOnUse">
<stop offset="0.00226547" stop-color="#FF3B76"/>
<stop offset="1" stop-color="#8A32E0"/>
</linearGradient>
</defs>
</svg>
