<svg width="191" height="51" viewBox="0 0 191 51" fill="none" xmlns="http://www.w3.org/2000/svg">
<path d="M23 9.5C23 8.67157 23.6716 8 24.5 8C25.3284 8 26 8.67157 26 9.5V41.5C26 42.3284 25.3284 43 24.5 43C23.6716 43 23 42.3284 23 41.5V9.5Z" fill="url(#paint0_linear_2300_91225)"/>
<path d="M28 16.5C28 15.6716 28.6716 15 29.5 15C30.3284 15 31 15.6716 31 16.5V35.5C31 36.3284 30.3284 37 29.5 37C28.6716 37 28 36.3284 28 35.5V16.5Z" fill="url(#paint1_linear_2300_91225)"/>
<path d="M33 21.5C33 20.6716 33.6716 20 34.5 20C35.3284 20 36 20.6716 36 21.5V30.5C36 31.3284 35.3284 32 34.5 32C33.6716 32 33 31.3284 33 30.5V21.5Z" fill="url(#paint2_linear_2300_91225)"/>
<path d="M38 23.5C38 22.6716 38.6716 22 39.5 22C40.3284 22 41 22.6716 41 23.5V28.5C41 29.3284 40.3284 30 39.5 30C38.6716 30 38 29.3284 38 28.5V23.5Z" fill="url(#paint3_linear_2300_91225)"/>
<path d="M8 23.5C8 22.6716 8.67157 22 9.5 22C10.3284 22 11 22.6716 11 23.5V28.5C11 29.3284 10.3284 30 9.5 30C8.67157 30 8 29.3284 8 28.5V23.5Z" fill="url(#paint4_linear_2300_91225)"/>
<path d="M18 16.5C18 15.6716 18.6716 15 19.5 15C20.3284 15 21 15.6716 21 16.5V35.5C21 36.3284 20.3284 37 19.5 37C18.6716 37 18 36.3284 18 35.5V16.5Z" fill="url(#paint5_linear_2300_91225)"/>
<path d="M13 21.5C13 20.6716 13.6716 20 14.5 20C15.3284 20 16 20.6716 16 21.5V30.5C16 31.3284 15.3284 32 14.5 32C13.6716 32 13 31.3284 13 30.5V21.5Z" fill="url(#paint6_linear_2300_91225)"/>
<path d="M54.992 34.5V17.7H58.208L65.36 29.556H63.656L70.688 17.7H73.88L73.928 34.5H70.28L70.256 23.292H70.928L65.312 32.724H63.56L57.824 23.292H58.64V34.5H54.992ZM83.7939 34.692C82.4179 34.692 81.1939 34.404 80.1219 33.828C79.0659 33.252 78.2259 32.468 77.6019 31.476C76.9939 30.468 76.6899 29.324 76.6899 28.044C76.6899 26.748 76.9939 25.604 77.6019 24.612C78.2259 23.604 79.0659 22.82 80.1219 22.26C81.1939 21.684 82.4179 21.396 83.7939 21.396C85.1539 21.396 86.3699 21.684 87.4419 22.26C88.5139 22.82 89.3539 23.596 89.9619 24.588C90.5699 25.58 90.8739 26.732 90.8739 28.044C90.8739 29.324 90.5699 30.468 89.9619 31.476C89.3539 32.468 88.5139 33.252 87.4419 33.828C86.3699 34.404 85.1539 34.692 83.7939 34.692ZM83.7939 31.62C84.4179 31.62 84.9779 31.476 85.4739 31.188C85.9699 30.9 86.3619 30.492 86.6499 29.964C86.9379 29.42 87.0819 28.78 87.0819 28.044C87.0819 27.292 86.9379 26.652 86.6499 26.124C86.3619 25.596 85.9699 25.188 85.4739 24.9C84.9779 24.612 84.4179 24.468 83.7939 24.468C83.1699 24.468 82.6099 24.612 82.1139 24.9C81.6179 25.188 81.2179 25.596 80.9139 26.124C80.6259 26.652 80.4819 27.292 80.4819 28.044C80.4819 28.78 80.6259 29.42 80.9139 29.964C81.2179 30.492 81.6179 30.9 82.1139 31.188C82.6099 31.476 83.1699 31.62 83.7939 31.62ZM99.5204 34.692C98.1444 34.692 96.9204 34.404 95.8484 33.828C94.7924 33.252 93.9524 32.468 93.3284 31.476C92.7204 30.468 92.4164 29.324 92.4164 28.044C92.4164 26.748 92.7204 25.604 93.3284 24.612C93.9524 23.604 94.7924 22.82 95.8484 22.26C96.9204 21.684 98.1444 21.396 99.5204 21.396C100.88 21.396 102.096 21.684 103.168 22.26C104.24 22.82 105.08 23.596 105.688 24.588C106.296 25.58 106.6 26.732 106.6 28.044C106.6 29.324 106.296 30.468 105.688 31.476C105.08 32.468 104.24 33.252 103.168 33.828C102.096 34.404 100.88 34.692 99.5204 34.692ZM99.5204 31.62C100.144 31.62 100.704 31.476 101.2 31.188C101.696 30.9 102.088 30.492 102.376 29.964C102.664 29.42 102.808 28.78 102.808 28.044C102.808 27.292 102.664 26.652 102.376 26.124C102.088 25.596 101.696 25.188 101.2 24.9C100.704 24.612 100.144 24.468 99.5204 24.468C98.8964 24.468 98.3364 24.612 97.8404 24.9C97.3444 25.188 96.9444 25.596 96.6404 26.124C96.3524 26.652 96.2084 27.292 96.2084 28.044C96.2084 28.78 96.3524 29.42 96.6404 29.964C96.9444 30.492 97.3444 30.9 97.8404 31.188C98.3364 31.476 98.8964 31.62 99.5204 31.62ZM114.647 34.692C113.431 34.692 112.335 34.42 111.359 33.876C110.383 33.316 109.607 32.54 109.031 31.548C108.471 30.556 108.191 29.388 108.191 28.044C108.191 26.684 108.471 25.508 109.031 24.516C109.607 23.524 110.383 22.756 111.359 22.212C112.335 21.668 113.431 21.396 114.647 21.396C115.735 21.396 116.687 21.636 117.503 22.116C118.319 22.596 118.951 23.324 119.399 24.3C119.847 25.276 120.071 26.524 120.071 28.044C120.071 29.548 119.855 30.796 119.423 31.788C118.991 32.764 118.367 33.492 117.551 33.972C116.751 34.452 115.783 34.692 114.647 34.692ZM115.295 31.62C115.903 31.62 116.455 31.476 116.951 31.188C117.447 30.9 117.839 30.492 118.127 29.964C118.431 29.42 118.583 28.78 118.583 28.044C118.583 27.292 118.431 26.652 118.127 26.124C117.839 25.596 117.447 25.188 116.951 24.9C116.455 24.612 115.903 24.468 115.295 24.468C114.671 24.468 114.111 24.612 113.615 24.9C113.119 25.188 112.719 25.596 112.415 26.124C112.127 26.652 111.983 27.292 111.983 28.044C111.983 28.78 112.127 29.42 112.415 29.964C112.719 30.492 113.119 30.9 113.615 31.188C114.111 31.476 114.671 31.62 115.295 31.62ZM118.679 34.5V31.86L118.751 28.02L118.511 24.204V16.692H122.255V34.5H118.679ZM125.984 34.5V17.7H134.192C136.304 17.7 137.888 18.1 138.944 18.9C140.016 19.7 140.552 20.756 140.552 22.068C140.552 22.948 140.336 23.716 139.904 24.372C139.472 25.012 138.88 25.508 138.128 25.86C137.376 26.212 136.512 26.388 135.536 26.388L135.992 25.404C137.048 25.404 137.984 25.58 138.8 25.932C139.616 26.268 140.248 26.772 140.696 27.444C141.16 28.116 141.392 28.94 141.392 29.916C141.392 31.356 140.824 32.484 139.688 33.3C138.552 34.1 136.88 34.5 134.672 34.5H125.984ZM129.848 31.572H134.384C135.392 31.572 136.152 31.412 136.664 31.092C137.192 30.756 137.456 30.228 137.456 29.508C137.456 28.804 137.192 28.284 136.664 27.948C136.152 27.596 135.392 27.42 134.384 27.42H129.56V24.588H133.712C134.656 24.588 135.376 24.428 135.872 24.108C136.384 23.772 136.64 23.268 136.64 22.596C136.64 21.94 136.384 21.452 135.872 21.132C135.376 20.796 134.656 20.628 133.712 20.628H129.848V31.572ZM150.48 34.692C149.008 34.692 147.712 34.404 146.592 33.828C145.488 33.252 144.632 32.468 144.024 31.476C143.416 30.468 143.112 29.324 143.112 28.044C143.112 26.748 143.408 25.604 144 24.612C144.608 23.604 145.432 22.82 146.472 22.26C147.512 21.684 148.688 21.396 150 21.396C151.264 21.396 152.4 21.668 153.408 22.212C154.432 22.74 155.24 23.508 155.832 24.516C156.424 25.508 156.72 26.7 156.72 28.092C156.72 28.236 156.712 28.404 156.696 28.596C156.68 28.772 156.664 28.94 156.648 29.1H146.16V26.916H154.68L153.24 27.564C153.24 26.892 153.104 26.308 152.832 25.812C152.56 25.316 152.184 24.932 151.704 24.66C151.224 24.372 150.664 24.228 150.024 24.228C149.384 24.228 148.816 24.372 148.32 24.66C147.84 24.932 147.464 25.324 147.192 25.836C146.92 26.332 146.784 26.924 146.784 27.612V28.188C146.784 28.892 146.936 29.516 147.24 30.06C147.56 30.588 148 30.996 148.56 31.284C149.136 31.556 149.808 31.692 150.576 31.692C151.264 31.692 151.864 31.588 152.376 31.38C152.904 31.172 153.384 30.86 153.816 30.444L155.808 32.604C155.216 33.276 154.472 33.796 153.576 34.164C152.68 34.516 151.648 34.692 150.48 34.692ZM166.781 34.5V31.98L166.541 31.428V26.916C166.541 26.116 166.293 25.492 165.797 25.044C165.317 24.596 164.573 24.372 163.565 24.372C162.877 24.372 162.197 24.484 161.525 24.708C160.869 24.916 160.309 25.204 159.845 25.572L158.501 22.956C159.205 22.46 160.053 22.076 161.045 21.804C162.037 21.532 163.045 21.396 164.069 21.396C166.037 21.396 167.565 21.86 168.653 22.788C169.741 23.716 170.285 25.164 170.285 27.132V34.5H166.781ZM162.845 34.692C161.837 34.692 160.973 34.524 160.253 34.188C159.533 33.836 158.981 33.364 158.597 32.772C158.213 32.18 158.021 31.516 158.021 30.78C158.021 30.012 158.205 29.34 158.573 28.764C158.957 28.188 159.557 27.74 160.373 27.42C161.189 27.084 162.253 26.916 163.565 26.916H166.997V29.1H163.973C163.093 29.1 162.485 29.244 162.149 29.532C161.829 29.82 161.669 30.18 161.669 30.612C161.669 31.092 161.853 31.476 162.221 31.764C162.605 32.036 163.125 32.172 163.781 32.172C164.405 32.172 164.965 32.028 165.461 31.74C165.957 31.436 166.317 30.996 166.541 30.42L167.117 32.148C166.845 32.98 166.349 33.612 165.629 34.044C164.909 34.476 163.981 34.692 162.845 34.692ZM178.953 34.692C177.433 34.692 176.249 34.308 175.401 33.54C174.553 32.756 174.129 31.596 174.129 30.06V18.732H177.873V30.012C177.873 30.556 178.017 30.98 178.305 31.284C178.593 31.572 178.985 31.716 179.481 31.716C180.073 31.716 180.577 31.556 180.993 31.236L182.001 33.876C181.617 34.148 181.153 34.356 180.609 34.5C180.081 34.628 179.529 34.692 178.953 34.692ZM172.137 24.756V21.876H181.089V24.756H172.137Z" fill="#4C239D"/>
<defs>
<linearGradient id="paint0_linear_2300_91225" x1="14.5" y1="20" x2="14.5" y2="32" gradientUnits="userSpaceOnUse">
<stop offset="0.00775638" stop-color="#FD3B77"/>
<stop offset="1" stop-color="#4C239D"/>
</linearGradient>
<linearGradient id="paint1_linear_2300_91225" x1="14.5" y1="20" x2="14.5" y2="32" gradientUnits="userSpaceOnUse">
<stop offset="0.00775638" stop-color="#FD3B77"/>
<stop offset="1" stop-color="#4C239D"/>
</linearGradient>
<linearGradient id="paint2_linear_2300_91225" x1="14.5" y1="20" x2="14.5" y2="32" gradientUnits="userSpaceOnUse">
<stop offset="0.00775638" stop-color="#FD3B77"/>
<stop offset="1" stop-color="#4C239D"/>
</linearGradient>
<linearGradient id="paint3_linear_2300_91225" x1="14.5" y1="20" x2="14.5" y2="32" gradientUnits="userSpaceOnUse">
<stop offset="0.00775638" stop-color="#FD3B77"/>
<stop offset="1" stop-color="#4C239D"/>
</linearGradient>
<linearGradient id="paint4_linear_2300_91225" x1="14.5" y1="20" x2="14.5" y2="32" gradientUnits="userSpaceOnUse">
<stop offset="0.00775638" stop-color="#FD3B77"/>
<stop offset="1" stop-color="#4C239D"/>
</linearGradient>
<linearGradient id="paint5_linear_2300_91225" x1="14.5" y1="20" x2="14.5" y2="32" gradientUnits="userSpaceOnUse">
<stop offset="0.00775638" stop-color="#FD3B77"/>
<stop offset="1" stop-color="#4C239D"/>
</linearGradient>
<linearGradient id="paint6_linear_2300_91225" x1="14.5" y1="20" x2="14.5" y2="32" gradientUnits="userSpaceOnUse">
<stop offset="0.00775638" stop-color="#FD3B77"/>
<stop offset="1" stop-color="#4C239D"/>
</linearGradient>
</defs>
</svg>
