<svg width="33" height="30" viewBox="0 0 33 30" fill="none" xmlns="http://www.w3.org/2000/svg">
<path d="M14.5046 5.5L14.6166 5.50673C15.114 5.56449 15.5 5.98716 15.5 6.5C15.5 7.05228 15.0523 7.5 14.5 7.5L14.503 7.499L14.28 7.50422C11.0033 7.62764 8.5 10.445 8.5 14.0789V15.9071C8.5 16.8348 8.1156 17.5239 7.28841 18.4993C7.21509 18.5857 7.14587 18.6661 7.00717 18.8266C6.24712 19.7076 6 20.1246 6 20.5882C6 20.8144 6.01597 20.9348 6.06791 21.0453C6.19184 21.3089 6.55558 21.5 7.5 21.5H21.5C22.4142 21.5 22.7863 21.3076 22.9228 21.0392C22.9818 20.923 23 20.7989 23 20.5882V20.5L23.0067 20.3834C23.0645 19.886 23.4872 19.5 24 19.5C24.5523 19.5 25 19.9477 25 20.5V20.5882C25 21.0893 24.943 21.4785 24.7056 21.9456C24.1996 22.9409 23.1182 23.5 21.5 23.5L18.8989 23.5007C18.231 25.7645 16.7123 27 14.5 27C12.2877 27 10.769 25.7645 10.1011 23.5007L7.5 23.5C5.83483 23.5 4.74203 22.9258 4.25797 21.8962C4.04802 21.4497 4 21.0875 4 20.5882C4 19.475 4.42475 18.7582 5.49283 17.5202C5.63191 17.3592 5.69552 17.2854 5.76308 17.2057C6.30171 16.5706 6.5 16.2151 6.5 15.9071V14.0789C6.5 9.29571 9.97202 5.5 14.5046 5.5ZM16.7794 23.5008H12.2206C12.6714 24.5432 13.3987 25 14.5 25C15.6013 25 16.3286 24.5432 16.7794 23.5008Z" fill="#2C2D2E"/>
<rect x="13" width="20" height="20" rx="10" fill="#8A32E0"/>
<path d="M24.6419 7.904C24.6419 8.804 24.1379 9.332 23.3339 10.088L20.1419 13.076V14H25.9379V13.016H21.6179L24.0539 10.772C24.9179 9.98 25.7339 9.188 25.7339 7.904C25.7339 6.536 24.6899 5.42 23.0339 5.42C21.4019 5.42 20.3099 6.416 20.1179 7.844H21.1739C21.3659 6.98 21.9899 6.404 23.0099 6.404C23.9819 6.404 24.6419 7.052 24.6419 7.904Z" fill="white"/>
</svg>
