<svg width="24" height="22" viewBox="0 0 24 22" fill="none" xmlns="http://www.w3.org/2000/svg">
<path fillRule="evenodd" clipRule="evenodd" d="M12.0182 2.5C6.63315 2.5 2.53663 6.21891 2.53663 10.4989C2.53663 12.0359 3.05127 13.4778 3.95849 14.6996C4.08651 14.872 4.15563 15.081 4.15563 15.2957C4.15563 16.3376 3.88201 17.3477 3.54547 18.2587C3.3335 18.8325 3.08167 19.4034 2.84121 19.9339C4.89728 19.7155 6.24612 19.0571 7.05946 18.1C7.33263 17.7786 7.77815 17.6631 8.17306 17.8114C9.34527 18.2516 10.6456 18.4979 12.0182 18.4979C17.4033 18.4979 21.4998 14.779 21.4998 10.4989C21.4998 6.21891 17.4033 2.5 12.0182 2.5ZM0.536633 10.4989C0.536633 4.83902 5.82565 0.5 12.0182 0.5C18.2108 0.5 23.4998 4.83902 23.4998 10.4989C23.4998 16.1589 18.2108 20.4979 12.0182 20.4979C10.6451 20.4979 9.32519 20.288 8.10021 19.9013C6.65537 21.2498 4.55607 21.898 1.98805 21.9989C0.941943 22.04 0.18689 20.9519 0.624917 19.978C0.714605 19.7772 0.805082 19.5787 0.895029 19.3814L0.895188 19.381L0.895197 19.381C1.17091 18.7761 1.44163 18.1822 1.66938 17.5657C1.92549 16.8724 2.09992 16.2173 2.14443 15.6002C1.1276 14.1195 0.536633 12.3721 0.536633 10.4989ZM11.9876 7.00191C11.5587 7.00191 11.1958 7.29522 11.0933 7.69369C10.9556 8.22854 10.4104 8.55053 9.87556 8.41286C9.3407 8.2752 9.01872 7.73002 9.15638 7.19517C9.48085 5.93452 10.624 5.00191 11.9876 5.00191C13.6021 5.00191 14.9109 6.31074 14.9109 7.92527C14.9109 9.21494 14.2016 9.89135 13.7217 10.3393C13.2522 10.7775 13.0421 10.9806 12.9775 11.4326C12.8994 11.9793 12.3929 12.3592 11.8462 12.2811C11.2994 12.203 10.9195 11.6965 10.9977 11.1497C11.1645 9.98183 11.8496 9.34735 12.2883 8.94103L12.3571 8.87716C12.7788 8.48359 12.9109 8.31853 12.9109 7.92526C12.9109 7.41531 12.4975 7.00191 11.9876 7.00191ZM11.9989 16C12.6893 16 13.2489 15.4404 13.2489 14.75C13.2489 14.0596 12.6893 13.5 11.9989 13.5C11.3086 13.5 10.7489 14.0596 10.7489 14.75C10.7489 15.4404 11.3086 16 11.9989 16Z" fill="#2C2D2E"/>
</svg>
