<svg width="26" height="17" viewBox="0 0 26 17" fill="none" xmlns="http://www.w3.org/2000/svg">
<path d="M13 9.5C16.862 9.5 19.5 11.2586 19.5 14C19.5 15.9301 18.2161 17 16.5 17H9.5C7.78393 17 6.5 15.9301 6.5 14C6.5 11.2586 9.13797 9.5 13 9.5ZM21 9.5C23.7458 9.5 25.5 11.1568 25.5 13.25C25.5 14.9424 24.2074 16 22.75 16H22C21.4477 16 21 15.5523 21 15C21 14.4477 21.4477 14 22 14H22.75C23.1815 14 23.5 13.7394 23.5 13.25C23.5 12.2877 22.666 11.5 21 11.5C20.4477 11.5 20 11.0523 20 10.5C20 9.94772 20.4477 9.5 21 9.5ZM5 9.5C5.55228 9.5 6 9.94772 6 10.5C6 11.0523 5.55228 11.5 5 11.5C3.33403 11.5 2.5 12.2877 2.5 13.25C2.5 13.7394 2.81854 14 3.25 14H4C4.55228 14 5 14.4477 5 15C5 15.5523 4.55228 16 4 16H3.25C1.79257 16 0.5 14.9424 0.5 13.25C0.5 11.1568 2.25421 9.5 5 9.5ZM13 11.5C10.112 11.5 8.5 12.5747 8.5 14C8.5 14.7366 8.81607 15 9.5 15H16.5C17.1839 15 17.5 14.7366 17.5 14C17.5 12.5747 15.888 11.5 13 11.5ZM19 1C20.933 1 22.5 2.567 22.5 4.5C22.5 6.433 20.933 8 19 8C18.4477 8 18 7.55228 18 7C18 6.44772 18.4477 6 19 6L19.1445 5.99313C19.9051 5.92045 20.5 5.2797 20.5 4.5C20.5 3.67157 19.8284 3 19 3L18.8834 2.99327C18.386 2.93551 18 2.51284 18 2C18 1.44772 18.4477 1 19 1ZM7 1C7.55228 1 8 1.44772 8 2C8 2.51284 7.61396 2.93551 7.11662 2.99327L7 3C6.17157 3 5.5 3.67157 5.5 4.5C5.5 5.2797 6.09489 5.92045 6.85554 5.99313L7 6C7.55228 6 8 6.44772 8 7C8 7.55228 7.55228 8 7 8C5.067 8 3.5 6.433 3.5 4.5C3.5 2.567 5.067 1 7 1ZM13 0C15.2091 0 17 1.79086 17 4C17 6.20914 15.2091 8 13 8C10.7909 8 9 6.20914 9 4C9 1.79086 10.7909 0 13 0ZM13 2C11.8954 2 11 2.89543 11 4C11 5.10457 11.8954 6 13 6C14.1046 6 15 5.10457 15 4C15 2.89543 14.1046 2 13 2Z" fill="#4C239D"/>
</svg>
